{"glyphs":{"0":{"ha":718,"x_min":39,"x_max":682,"o":"m 113 858 q 126 876 118 868 q 342 986 219 981 q 558 902 475 990 q 665 685 640 814 q 676 518 682 585 q 664 343 681 432 q 610 174 647 254 q 501 45 572 93 q 338 3 431 -3 q 240 21 286 4 q 148 76 186 40 q 90 148 110 113 q 60 242 71 183 q 47 336 50 300 q 43 438 44 372 q 40 582 40 514 q 56 725 39 650 q 113 858 74 800 m 319 235 q 371 232 350 225 q 428 299 410 243 q 438 340 435 319 q 442 391 440 360 q 444 433 443 422 q 406 739 454 668 q 321 761 374 779 q 274 724 292 754 q 253 622 263 707 q 265 319 236 426 q 273 295 268 314 q 281 267 278 276 q 294 247 285 257 q 319 235 304 238 z "},"1":{"ha":497,"x_min":8,"x_max":456,"o":"m 442 25 q 357 0 442 0 q 221 10 308 0 l 221 11 l 221 146 q 229 413 221 236 q 238 679 238 589 q 236 704 238 694 q 224 694 231 706 q 211 667 217 682 q 196 640 206 653 q 176 628 186 628 q 83 648 158 628 q 8 679 8 668 q 86 846 13 719 q 176 989 160 972 q 303 992 263 992 q 449 986 382 992 q 456 753 456 888 q 448 438 456 647 q 440 122 440 228 q 442 25 440 57 z "},"2":{"ha":696,"x_min":19,"x_max":661,"o":"m 636 6 l 108 -1 l 46 -1 q 44 3 44 0 q 48 117 47 36 q 58 251 49 199 q 93 347 67 303 q 251 469 144 404 q 389 560 357 533 q 435 629 425 583 q 426 714 446 675 q 365 758 407 753 q 320 747 339 758 q 291 719 301 735 q 274 678 281 704 q 266 634 268 651 q 263 590 264 617 l 263 588 l 261 588 q 56 581 131 572 l 54 581 l 54 583 q 124 904 19 786 q 236 970 158 949 q 392 988 314 992 q 521 963 469 983 q 657 731 640 901 q 660 606 661 629 q 610 485 654 535 q 513 411 565 435 q 397 353 460 388 q 301 279 333 318 q 286 199 272 204 q 459 199 325 196 q 629 201 593 201 q 639 68 642 169 q 642 7 639 17 q 636 6 642 6 z "},"3":{"ha":661,"x_min":26,"x_max":628,"o":"m 89 61 q 43 160 50 100 q 36 229 39 182 q 31 303 33 276 q 32 304 31 304 l 33 304 q 119 311 60 303 q 214 317 179 319 l 215 317 l 217 315 q 263 255 228 281 q 335 228 297 229 q 403 263 372 226 q 415 326 421 290 q 381 383 408 363 q 228 401 326 422 q 219 495 214 414 q 221 593 224 576 l 221 594 q 296 601 239 601 q 385 618 353 601 q 414 688 417 635 q 368 758 413 746 q 276 744 324 769 q 214 679 229 718 q 31 676 194 676 l 31 679 q 28 717 31 688 q 28 769 26 747 q 36 808 29 790 q 111 916 56 872 q 238 974 167 960 q 381 982 308 988 q 515 945 454 976 q 603 865 575 914 q 622 765 625 829 q 619 306 628 542 q 617 265 618 293 q 615 222 617 238 q 609 185 614 207 q 596 144 604 163 q 457 15 554 47 q 231 6 365 -12 q 154 25 225 7 q 89 61 114 36 z "},"4":{"ha":650,"x_min":10,"x_max":624,"o":"m 531 457 l 539 458 q 582 458 544 461 q 624 456 619 456 l 615 254 q 572 251 600 249 q 531 250 544 253 l 529 222 q 511 6 515 22 q 499 -1 508 1 q 472 -3 490 -3 q 435 -4 453 -4 q 378 -4 417 -4 q 311 -4 340 -4 q 313 61 310 -3 q 322 192 317 125 q 326 263 326 260 q 244 265 318 265 q 100 266 169 265 q 29 269 31 267 q 15 471 10 328 q 59 548 26 488 q 159 723 92 608 q 318 974 226 838 q 319 975 318 975 q 377 976 322 975 q 472 978 432 978 q 538 978 511 979 l 540 978 l 539 925 q 535 803 538 874 q 531 656 533 733 q 529 526 529 578 q 531 457 529 474 m 364 454 l 368 751 q 206 500 364 776 q 181 456 183 461 l 364 454 z "},"5":{"ha":689,"x_min":32,"x_max":644,"o":"m 42 300 l 239 307 l 239 306 q 239 303 239 304 l 240 300 q 269 231 246 251 q 328 219 293 211 q 412 290 389 231 q 413 409 435 349 q 338 486 390 469 q 181 489 293 494 q 38 486 69 483 q 35 488 35 486 q 33 731 35 581 q 32 967 32 881 l 33 967 l 186 969 q 460 976 340 974 q 625 975 579 978 q 627 942 628 975 q 625 872 626 908 q 622 803 624 836 l 621 769 q 242 760 550 760 l 240 760 l 240 757 l 240 756 l 242 754 q 242 751 242 753 q 244 728 243 746 q 250 704 246 711 l 251 703 l 253 701 l 254 701 q 400 704 333 717 q 513 658 465 694 q 588 570 561 622 q 629 453 614 518 q 643 320 644 388 q 635 186 642 253 q 570 77 621 124 q 453 9 519 31 q 311 -12 386 -12 q 174 12 236 -11 q 72 88 113 35 q 33 217 32 142 q 42 297 33 253 l 42 300 z "},"6":{"ha":724,"x_min":49,"x_max":686,"o":"m 672 315 l 675 282 q 628 106 686 176 q 478 12 569 36 q 281 -1 388 -12 q 138 85 192 14 q 70 252 85 156 q 52 463 56 349 q 60 679 49 576 q 62 728 60 685 q 71 793 64 771 q 78 813 74 806 q 208 938 113 892 q 408 983 303 983 q 607 888 536 986 q 646 674 678 789 q 546 667 614 668 q 463 664 478 665 l 460 664 l 460 665 q 428 761 457 731 q 377 781 407 782 q 326 760 347 781 q 288 685 296 733 q 286 557 281 636 q 290 453 292 478 l 290 451 q 361 482 329 472 q 529 492 468 508 q 625 432 588 474 q 672 315 661 397 m 510 281 l 510 283 q 508 301 510 297 q 464 346 499 340 q 361 304 400 356 q 354 253 346 278 q 385 215 363 228 q 469 219 426 196 q 510 265 504 236 l 510 278 l 510 281 z "},"7":{"ha":668,"x_min":35,"x_max":656,"o":"m 46 792 l 43 792 q 50 981 46 817 l 50 982 q 191 985 64 982 q 365 989 318 989 q 501 988 413 989 q 654 979 590 986 l 654 978 q 653 881 651 960 q 656 785 656 803 q 440 365 592 638 q 246 10 289 93 q 183 6 229 10 q 98 3 136 3 q 35 10 60 3 q 208 371 79 106 q 400 779 338 636 q 46 792 142 796 z "},"8":{"ha":750,"x_min":78,"x_max":699,"o":"m 692 721 l 692 713 l 692 688 q 686 644 692 661 q 585 481 663 544 l 585 479 q 674 352 650 431 q 681 196 699 274 q 613 63 663 118 q 472 -10 567 8 q 283 -3 376 -28 q 146 79 189 21 q 82 284 78 160 q 169 489 86 408 q 94 678 99 563 q 153 886 89 794 q 326 983 218 978 q 487 982 436 988 q 581 951 538 976 q 592 943 585 949 q 604 935 600 938 q 615 926 608 932 q 626 914 621 919 q 639 898 632 908 q 654 875 646 888 q 675 822 668 851 q 689 751 683 789 q 692 726 692 732 l 692 721 m 321 704 q 319 703 319 704 l 319 700 q 332 638 315 667 q 385 607 349 610 q 449 651 433 603 q 433 724 464 696 q 364 735 408 746 q 353 731 354 732 q 336 719 349 729 q 332 716 335 718 q 327 712 329 714 q 323 708 325 710 q 321 704 321 706 m 467 296 l 467 299 q 468 304 468 301 q 467 319 468 315 q 443 361 458 349 q 358 383 406 393 q 308 317 317 368 q 343 247 300 267 q 422 243 374 235 q 443 253 438 247 q 461 278 449 256 q 464 284 463 281 q 466 291 465 288 q 467 296 467 294 z "},"9":{"ha":679,"x_min":15,"x_max":654,"o":"m 647 654 l 650 449 q 651 267 654 286 q 582 79 635 153 q 420 -2 526 13 q 213 19 314 -17 q 64 124 111 54 q 31 301 15 194 l 31 308 q 101 312 50 308 q 176 315 153 315 q 249 311 200 315 q 281 263 257 282 q 336 246 306 243 q 410 417 419 256 l 408 418 q 219 413 314 381 q 71 525 124 444 q 28 676 33 581 q 50 831 24 772 q 81 878 69 865 q 344 985 165 978 q 391 984 357 985 q 441 982 425 983 q 485 976 457 981 q 531 965 514 972 q 567 942 549 957 q 600 907 586 928 q 631 831 621 876 q 644 749 642 785 q 647 654 646 714 m 436 669 q 438 688 438 674 q 397 751 440 729 q 311 753 354 774 q 268 700 268 735 q 278 649 271 668 l 278 647 q 349 603 297 606 q 422 635 401 600 q 427 644 425 640 q 431 651 429 649 q 433 660 432 657 q 436 669 433 664 z "},"―":{"ha":331,"x_min":0,"x_max":0,"o":""},"‖":{"ha":331,"x_min":0,"x_max":0,"o":""},"‗":{"ha":331,"x_min":0,"x_max":0,"o":""},"‛":{"ha":331,"x_min":0,"x_max":0,"o":""},"‟":{"ha":331,"x_min":0,"x_max":0,"o":""},"‣":{"ha":331,"x_min":0,"x_max":0,"o":""},"․":{"ha":331,"x_min":0,"x_max":0,"o":""},"‥":{"ha":331,"x_min":0,"x_max":0,"o":""}," ":{"ha":331,"x_min":0,"x_max":0,"o":""},"!":{"ha":268,"x_min":39,"x_max":226,"o":"m 157 3 l 53 1 q 48 32 47 11 q 53 99 49 53 q 57 164 57 146 l 57 165 q 105 174 76 174 q 172 172 133 175 q 226 168 210 168 q 222 1 222 14 l 213 1 q 185 2 201 1 q 160 3 169 3 l 157 3 m 49 975 l 53 975 q 92 979 63 976 q 138 983 121 982 q 181 984 156 985 q 224 978 206 983 q 225 243 215 465 q 46 236 199 240 l 44 236 q 42 602 46 308 q 49 975 39 896 z "},"\"":{"ha":518,"x_min":47,"x_max":472,"o":"m 50 978 l 51 978 q 96 982 54 978 q 163 987 138 986 q 201 981 188 988 q 203 797 201 946 q 204 639 204 647 l 174 639 q 103 638 143 639 q 47 638 63 638 l 47 639 q 50 975 47 924 l 50 978 m 318 978 l 319 978 q 364 982 322 978 q 431 987 406 986 q 469 981 456 988 q 471 797 469 946 q 472 639 472 647 l 442 639 q 371 638 411 639 q 315 638 331 638 l 315 639 q 318 975 315 924 l 318 978 z "},"#":{"ha":911,"x_min":25,"x_max":888,"o":"m 878 664 l 888 536 l 740 532 q 711 444 729 501 q 682 357 693 388 q 715 357 689 357 q 781 356 740 357 q 863 351 821 354 q 869 326 868 339 q 869 284 869 313 q 872 222 869 256 l 872 219 q 821 216 846 217 q 744 215 796 215 q 635 214 693 215 l 633 214 l 631 214 q 615 171 628 210 q 583 82 601 132 q 549 3 564 32 l 547 1 l 544 1 l 386 1 q 423 116 397 44 q 457 218 449 188 l 456 218 q 294 218 421 221 q 278 171 285 188 q 268 146 272 154 q 253 113 264 138 q 229 51 243 89 q 210 3 221 22 q 199 0 207 0 q 50 0 140 4 q 65 59 56 28 q 80 108 74 90 q 101 165 86 125 q 121 215 117 204 q 76 213 107 215 q 29 213 44 211 q 27 260 28 235 q 26 316 26 285 q 25 364 25 347 q 178 357 36 353 q 183 366 181 360 q 190 386 186 372 q 198 417 193 400 q 213 466 203 435 q 235 532 222 497 q 43 531 225 532 l 40 681 l 42 681 q 239 674 76 669 l 282 674 q 283 675 282 675 q 283 676 283 675 q 316 770 292 693 q 349 885 340 847 l 349 886 q 514 879 353 885 q 453 675 514 878 q 531 676 478 675 q 618 675 583 676 q 688 888 642 711 l 689 888 l 690 888 q 769 885 717 883 q 847 882 821 886 q 849 874 849 878 q 848 865 849 869 q 844 852 847 860 q 840 835 842 844 q 832 810 838 826 q 822 776 826 793 q 808 730 817 758 q 790 671 799 701 q 835 670 806 671 q 878 669 864 669 l 878 664 m 343 357 l 517 358 l 517 360 q 518 363 518 361 q 546 449 525 393 q 574 532 567 504 l 574 533 l 572 533 l 571 533 q 406 536 451 536 l 403 536 l 403 535 q 372 447 392 506 q 343 357 353 388 z "},"$":{"ha":608,"x_min":22,"x_max":586,"o":"m 467 451 q 549 349 518 414 q 581 222 581 283 q 499 61 581 128 q 454 31 492 54 q 411 8 417 8 q 410 -40 411 3 q 410 -90 410 -83 l 410 -96 q 357 -133 410 -133 q 329 -134 349 -133 q 299 -135 310 -135 l 260 -135 q 215 -115 225 -135 q 211 -71 206 -96 q 208 -20 217 -46 q 169 15 200 6 q 49 102 76 46 q 22 265 22 158 q 23 301 22 290 q 30 321 24 311 q 49 333 36 331 q 86 336 63 336 q 140 332 90 336 q 172 331 149 331 q 206 328 196 331 q 226 316 217 326 q 236 286 236 306 q 237 264 236 278 q 238 243 238 250 q 296 182 238 182 q 340 197 319 182 q 360 232 360 211 q 317 333 360 285 q 204 436 275 382 q 108 518 133 490 q 33 704 33 603 q 83 829 33 779 q 208 901 133 879 q 214 906 213 903 q 214 913 215 908 q 213 921 213 918 q 209 972 213 925 q 206 1024 206 1019 q 208 1033 206 1029 q 216 1040 211 1038 q 226 1044 221 1043 q 241 1046 232 1046 q 256 1046 250 1046 q 272 1046 261 1046 q 286 1046 282 1046 q 406 1028 397 1046 l 406 914 q 424 894 406 896 q 509 855 471 890 q 567 779 547 819 q 586 650 586 739 q 539 614 586 614 l 517 614 q 478 613 503 614 q 439 611 453 611 q 383 628 399 611 q 368 667 367 646 q 359 706 369 689 q 319 724 349 724 q 276 704 297 724 q 254 661 254 685 q 267 615 254 638 q 308 567 281 592 q 357 527 336 543 q 416 485 378 511 q 467 451 454 460 z "},"%":{"ha":847,"x_min":28,"x_max":819,"o":"m 414 210 l 335 10 q 331 3 333 6 q 306 1 321 1 q 250 1 292 1 q 157 -1 208 0 l 156 -1 q 157 26 149 -1 q 178 88 165 54 q 192 125 190 121 q 236 247 215 200 q 367 608 246 282 q 397 699 379 640 q 419 769 415 758 q 433 803 422 774 q 459 885 443 833 q 488 985 475 938 q 582 983 508 981 q 671 974 656 986 q 666 961 668 968 q 663 949 664 954 q 601 747 658 933 q 577 678 597 733 q 547 594 557 624 q 505 468 543 583 q 444 293 467 353 q 414 210 425 238 m 29 678 l 28 713 l 31 747 q 34 777 32 754 q 38 811 36 800 q 45 840 40 822 q 57 872 50 858 q 75 896 64 885 q 178 949 117 947 q 283 909 243 951 q 335 804 322 867 q 340 724 342 754 q 329 610 343 665 q 275 514 315 556 q 175 475 235 472 q 108 493 138 478 q 40 594 56 528 q 35 633 39 606 q 29 676 32 661 l 29 678 m 138 767 l 144 665 q 146 639 144 656 q 147 613 147 622 q 161 588 147 596 q 192 586 175 581 q 201 590 197 588 q 208 595 206 593 q 213 602 211 597 q 217 609 215 607 q 219 617 218 611 q 222 624 221 622 q 224 633 222 626 q 225 642 225 640 q 226 649 225 644 q 226 657 226 654 q 214 822 233 751 q 213 826 214 825 q 210 829 211 826 q 168 840 192 853 q 146 822 156 836 q 138 768 135 806 l 138 767 m 506 238 l 504 272 l 507 307 q 510 337 508 314 q 515 371 513 360 q 522 400 517 382 q 533 431 526 418 q 551 456 540 444 q 654 508 593 507 q 759 469 719 511 q 811 364 799 426 q 817 283 818 314 q 806 170 819 225 q 751 74 792 115 q 651 35 711 32 q 585 53 614 38 q 517 154 532 88 q 512 193 515 165 q 506 236 508 221 l 506 238 m 614 326 l 621 225 q 622 199 622 215 q 624 172 622 182 q 638 148 624 156 q 668 146 651 140 q 678 150 674 147 q 685 155 682 153 q 690 162 688 157 q 693 169 692 167 q 696 176 694 171 q 698 184 697 182 q 700 193 699 186 q 701 201 701 200 q 702 209 701 204 q 703 217 703 214 q 690 382 710 311 q 688 385 689 383 q 686 389 686 386 q 644 400 668 413 q 622 382 632 396 q 614 328 611 365 l 614 326 z "},"&":{"ha":800,"x_min":33,"x_max":776,"o":"m 776 47 l 775 40 q 669 -1 764 -1 l 663 -1 q 578 8 607 -1 q 511 53 549 17 q 313 -1 442 6 q 108 92 183 -1 q 33 306 33 185 q 172 569 33 439 q 65 806 65 713 q 148 953 65 892 q 333 1015 231 1015 q 505 953 438 1015 q 572 804 572 890 q 571 783 572 793 q 567 760 569 772 q 561 740 564 749 q 552 719 558 732 q 544 701 546 707 q 533 682 542 696 q 522 665 525 668 q 510 646 519 661 q 499 628 500 631 q 467 579 469 585 q 457 561 457 565 l 456 556 q 456 545 456 550 q 458 531 457 540 q 463 511 458 522 q 473 487 467 500 q 490 456 479 474 q 515 419 501 439 q 529 475 529 442 q 610 539 538 539 l 708 539 q 747 528 735 539 q 760 488 760 518 q 719 339 760 433 l 719 340 q 708 311 714 326 q 701 299 706 308 q 694 285 697 289 q 671 229 671 235 q 676 217 671 224 q 691 197 681 210 q 707 178 701 185 l 707 179 q 776 60 768 103 l 776 47 m 333 858 q 274 801 274 858 q 289 733 274 772 q 317 697 304 694 l 317 696 q 361 829 361 703 q 333 858 361 858 m 372 197 q 407 214 407 210 q 410 237 407 217 q 414 277 413 257 q 411 323 415 297 q 397 366 407 349 q 360 394 386 383 q 297 399 335 404 q 256 354 272 396 q 244 278 239 313 q 335 193 254 193 q 372 197 343 193 z "},"'":{"ha":243,"x_min":44,"x_max":201,"o":"m 47 978 l 49 978 q 93 982 51 978 q 160 987 135 986 q 199 981 185 988 q 200 797 199 946 q 201 639 201 647 l 171 639 q 100 638 140 639 q 44 638 60 638 l 44 639 q 47 975 44 924 l 47 978 z "},"(":{"ha":436,"x_min":33,"x_max":392,"o":"m 139 57 q 86 111 111 78 q 81 121 85 113 q 33 282 42 192 q 42 583 43 506 l 42 617 q 42 678 42 644 q 44 742 43 713 q 52 804 44 772 q 75 863 60 836 q 283 988 139 985 q 385 979 340 985 l 386 978 q 386 807 390 949 q 258 696 272 774 q 250 660 251 676 q 233 528 243 626 q 233 453 233 513 q 235 356 232 394 q 247 282 238 317 q 308 209 267 238 q 390 179 349 181 l 392 179 l 392 172 q 389 92 389 149 q 388 13 389 35 q 329 0 378 0 l 306 0 q 215 15 256 3 q 139 57 174 31 z "},")":{"ha":436,"x_min":43,"x_max":401,"o":"m 296 57 q 219 15 261 31 q 129 0 179 3 l 106 0 q 47 13 57 0 q 44 92 44 36 q 43 172 44 147 l 43 179 l 44 179 q 127 209 86 181 q 188 282 168 238 q 200 356 197 317 q 202 453 203 394 q 201 528 201 513 q 185 660 192 626 q 176 696 183 676 q 49 807 163 774 q 49 978 44 949 l 50 979 q 151 988 94 985 q 360 863 296 985 q 383 804 375 836 q 391 742 390 772 q 392 678 392 713 q 393 617 393 644 l 393 583 q 401 282 392 506 q 354 121 393 192 q 349 111 350 113 q 296 57 324 78 z "},"*":{"ha":514,"x_min":26,"x_max":485,"o":"m 443 575 l 353 503 q 349 503 350 500 q 322 529 331 526 q 249 597 258 593 q 205 558 240 593 q 157 515 169 524 q 147 510 151 510 q 28 619 53 599 q 49 646 33 628 q 89 689 65 664 q 124 726 113 714 q 122 733 125 728 q 73 794 117 744 q 26 851 29 843 q 85 906 33 854 q 147 967 136 958 l 149 968 q 176 945 153 967 q 226 899 200 924 q 258 871 253 875 l 361 965 l 478 849 q 433 790 475 831 q 386 735 392 749 q 435 681 390 735 q 483 625 481 626 q 476 608 485 618 q 456 588 468 599 q 443 575 444 578 z "},"+":{"ha":600,"x_min":18,"x_max":579,"o":"m 189 158 q 188 163 188 160 q 185 231 183 193 q 185 304 186 268 q 182 332 185 329 l 179 332 q 94 336 154 332 q 25 346 35 340 q 24 349 24 347 q 24 412 25 376 q 20 490 22 447 q 18 533 18 532 q 106 538 25 532 q 194 547 186 544 q 197 635 194 557 q 201 675 199 650 q 203 703 203 700 q 206 716 204 708 q 207 728 207 724 q 304 721 207 718 q 408 722 401 724 q 411 550 408 558 q 492 549 429 549 q 579 544 556 549 q 578 447 578 513 q 574 343 578 381 q 494 340 569 340 q 408 333 418 339 q 405 243 411 315 q 399 164 399 171 l 399 161 q 346 156 390 156 q 247 158 301 157 q 189 158 192 160 z "},",":{"ha":238,"x_min":29,"x_max":204,"o":"m 189 -29 l 178 -85 q 173 -111 176 -93 q 167 -139 169 -129 q 71 -136 165 -139 q 74 -111 68 -133 q 88 -56 79 -89 q 99 -1 96 -22 l 33 4 q 29 6 31 4 q 35 165 29 44 l 35 167 l 36 167 q 74 174 53 172 q 112 174 96 175 q 157 169 128 172 q 203 165 186 167 l 204 165 l 199 6 l 196 6 l 194 4 q 194 1 194 3 q 192 -14 194 -3 q 189 -29 189 -25 z "},"-":{"ha":711,"x_min":43,"x_max":667,"o":"m 43 281 q 45 403 43 306 q 47 503 47 501 l 663 503 q 661 429 663 476 q 660 343 660 382 q 667 271 661 304 l 665 271 q 354 276 650 271 q 43 281 58 281 z "},".":{"ha":261,"x_min":43,"x_max":219,"o":"m 208 0 l 51 1 l 47 1 q 44 52 44 19 q 44 122 43 85 q 46 163 46 158 q 137 174 72 174 q 219 165 201 174 l 217 131 q 213 54 215 94 q 211 3 211 14 l 211 1 l 211 0 l 208 0 z "},"/":{"ha":547,"x_min":15,"x_max":538,"o":"m 281 210 l 201 10 q 197 3 200 6 q 173 1 188 1 q 117 1 158 1 q 24 -1 75 0 l 22 -1 q 24 26 15 -1 q 44 88 32 54 q 58 125 57 121 q 103 247 82 200 q 233 608 113 282 q 264 699 246 640 q 286 769 282 758 q 299 803 289 774 q 326 885 310 833 q 354 985 342 938 q 449 983 375 981 q 538 974 522 986 q 533 961 535 968 q 529 949 531 954 q 468 747 525 933 q 444 678 464 733 q 414 594 424 624 q 372 468 410 583 q 311 293 333 353 q 281 210 292 238 z "},":":{"ha":263,"x_min":43,"x_max":219,"o":"m 208 0 l 51 1 l 47 1 q 44 52 44 19 q 44 122 43 85 q 46 163 46 158 q 137 174 72 174 q 219 165 201 174 l 217 131 q 213 54 215 94 q 211 3 211 14 l 211 1 l 211 0 l 208 0 m 208 467 l 51 468 l 47 468 q 44 519 44 486 q 44 588 43 551 q 46 629 46 625 q 137 640 72 640 q 219 632 201 640 l 217 597 q 213 521 215 561 q 211 469 211 481 l 211 468 l 211 467 l 208 467 z "},";":{"ha":244,"x_min":31,"x_max":207,"o":"m 196 467 l 39 468 l 35 468 q 31 519 32 486 q 32 588 31 551 q 33 629 33 625 q 124 640 60 640 q 207 632 189 640 l 206 597 q 201 521 203 561 q 199 469 199 481 l 199 468 l 199 467 l 196 467 m 192 -29 l 181 -85 q 176 -111 179 -93 q 169 -139 172 -129 q 74 -136 168 -139 q 76 -111 71 -133 q 90 -56 82 -89 q 101 -1 99 -22 l 36 4 q 32 6 33 4 q 38 165 32 44 l 38 167 l 39 167 q 77 174 56 172 q 115 174 99 175 q 160 169 131 172 q 206 165 189 167 l 207 165 l 201 6 l 199 6 l 197 4 q 197 1 197 3 q 194 -14 197 -3 q 192 -29 192 -25 z "},"<":{"ha":493,"x_min":6,"x_max":464,"o":"m 464 129 l 449 115 l 426 93 q 356 26 389 56 l 354 28 q 201 169 336 46 q 6 375 67 292 q 80 460 36 414 q 182 566 124 507 q 267 651 240 625 q 346 733 322 710 q 399 686 363 724 q 451 638 436 649 q 334 510 425 604 q 207 371 243 417 q 330 253 244 338 q 464 129 415 168 z "},"=":{"ha":621,"x_min":43,"x_max":578,"o":"m 43 453 q 45 558 43 475 q 47 643 47 640 l 574 643 q 572 580 574 621 q 572 506 571 539 q 578 444 572 472 l 576 444 q 310 449 563 444 q 43 453 57 453 m 43 165 q 45 270 43 188 q 47 356 47 353 l 574 356 q 572 292 574 333 q 572 218 571 251 q 578 157 572 185 l 576 157 q 310 161 563 157 q 43 165 57 165 z "},">":{"ha":494,"x_min":31,"x_max":489,"o":"m 46 115 l 31 129 q 165 253 79 168 q 288 371 250 338 q 160 509 250 415 q 43 638 71 603 q 94 685 58 647 q 149 733 131 724 q 228 651 172 710 q 313 566 254 625 q 415 460 371 507 q 489 375 458 414 q 297 174 426 293 q 140 28 167 54 l 139 26 q 68 93 106 56 l 46 115 z "},"?":{"ha":624,"x_min":15,"x_max":604,"o":"m 190 276 l 193 329 q 247 494 211 442 q 283 547 257 513 q 328 610 310 582 q 361 671 347 639 q 365 727 375 703 q 317 765 354 751 q 267 772 288 781 q 237 747 246 763 q 214 713 228 732 q 185 689 200 694 q 128 687 144 686 q 72 690 111 688 q 15 692 32 692 l 15 693 q 98 890 21 803 q 289 982 175 976 q 512 913 419 993 q 590 710 604 832 q 525 563 582 633 q 483 513 510 542 q 442 467 456 485 q 374 297 393 399 q 368 250 364 264 l 368 249 q 283 246 338 244 q 197 246 228 247 l 196 246 q 190 276 190 251 m 353 0 l 196 1 l 192 1 q 188 52 189 19 q 189 122 188 85 q 190 163 190 158 q 281 174 217 174 q 364 165 346 174 l 361 131 q 358 54 360 94 q 356 3 356 14 l 356 1 l 356 0 l 353 0 z "},"@":{"ha":769,"x_min":38,"x_max":732,"o":"m 536 644 l 540 642 q 554 594 556 624 q 553 576 554 589 q 553 554 553 563 q 551 474 551 531 q 581 329 551 335 q 597 376 590 336 q 603 444 603 417 q 601 528 604 475 l 601 567 q 503 771 593 721 l 504 771 q 404 794 474 786 q 367 797 382 797 q 229 747 279 797 q 190 676 204 721 q 174 602 176 632 q 168 517 171 572 q 167 454 167 496 q 181 279 167 361 q 260 122 199 161 q 397 96 304 96 q 419 97 406 96 q 439 97 433 97 l 438 97 q 676 172 539 104 l 729 58 q 631 9 689 33 q 536 -21 574 -15 q 399 -32 488 -32 q 303 -28 349 -32 q 117 74 181 -11 q 71 169 92 110 q 47 271 50 229 q 38 522 38 436 l 38 564 q 107 819 40 733 q 310 911 165 893 q 381 915 331 915 q 496 906 431 915 q 644 836 582 894 q 704 742 683 801 q 728 639 725 682 q 732 528 732 596 l 732 453 q 724 328 732 379 q 673 245 714 275 q 572 214 632 215 q 515 232 546 214 q 490 260 500 247 q 378 222 444 222 q 260 272 306 222 q 219 438 217 322 q 278 592 222 528 q 351 643 300 621 q 454 665 401 665 q 536 644 504 665 m 338 401 l 338 397 q 356 360 338 372 q 397 358 374 347 q 435 444 435 374 q 442 531 435 531 q 357 499 376 538 q 338 401 338 468 z "},"A":{"ha":644,"x_min":22,"x_max":624,"o":"m 519 488 l 624 1 l 624 0 q 438 6 542 -17 l 436 6 q 406 117 426 32 q 371 232 385 203 q 326 235 364 238 q 285 233 288 233 q 257 121 274 207 q 224 1 240 35 q 219 0 222 1 q 190 -1 201 -1 q 128 1 179 0 q 25 1 78 1 q 22 3 24 1 q 50 160 24 7 q 126 544 76 313 q 235 972 176 775 q 263 974 254 975 q 313 974 272 972 q 406 979 353 975 q 519 488 507 540 m 378 397 q 326 688 344 685 q 313 661 319 689 q 275 397 308 646 l 378 397 z "},"B":{"ha":674,"x_min":42,"x_max":635,"o":"m 536 460 q 562 428 557 435 q 584 399 567 422 q 606 365 601 375 q 620 331 610 354 q 633 291 631 308 q 635 250 635 274 q 631 201 635 226 q 601 117 622 154 q 555 58 581 81 q 489 22 529 36 q 415 1 449 7 q 330 -6 381 -4 q 245 -6 279 -7 q 158 -1 211 -4 q 79 3 106 1 q 49 6 56 3 q 44 483 42 136 q 44 961 47 829 l 46 963 q 189 990 117 982 q 335 988 261 997 q 467 949 410 978 q 561 857 525 919 q 597 706 597 794 q 529 489 597 603 q 536 460 522 476 m 406 229 q 410 332 435 268 q 350 379 390 369 q 289 387 329 385 q 242 390 249 389 q 246 196 207 253 l 249 194 q 279 194 253 194 q 317 194 306 193 q 348 197 328 194 q 381 208 368 200 q 406 229 394 217 m 404 625 q 417 708 433 676 q 349 760 396 749 q 238 756 271 774 q 236 678 239 746 q 243 583 233 610 q 404 625 374 567 z "},"C":{"ha":732,"x_min":32,"x_max":654,"o":"m 260 753 q 251 735 256 750 q 245 656 249 729 q 241 495 242 582 q 246 339 240 408 q 325 211 257 231 q 424 260 397 204 q 438 333 436 285 q 442 397 439 382 q 535 396 461 394 q 628 389 608 397 q 631 200 654 289 q 531 49 607 111 q 357 -15 456 -14 q 219 -11 286 -25 q 101 49 153 3 q 42 169 49 96 q 38 746 32 354 q 53 839 32 788 q 129 960 78 913 q 200 992 157 981 q 351 1006 274 1015 q 487 958 428 996 q 590 863 546 921 q 643 734 633 806 q 629 585 653 663 q 426 590 554 568 q 422 638 424 606 q 418 690 421 669 q 407 732 415 710 q 379 765 399 754 q 329 775 360 776 q 260 753 272 765 z "},"D":{"ha":669,"x_min":51,"x_max":640,"o":"m 544 857 q 628 653 601 768 q 640 565 638 624 q 638 501 639 544 q 635 432 636 457 q 630 370 633 407 q 621 304 626 333 q 620 303 621 303 q 619 301 619 303 q 443 7 574 169 q 78 3 321 3 l 76 1 q 55 289 58 132 q 54 647 51 446 q 54 954 57 849 q 57 957 56 956 q 58 960 58 958 q 162 974 106 971 q 288 974 218 976 q 393 974 358 972 q 478 931 438 963 q 544 857 519 899 m 417 353 q 450 526 471 435 q 435 587 443 563 q 408 638 428 611 q 360 675 389 665 q 256 674 300 683 l 253 674 l 251 674 l 251 668 q 253 497 254 618 q 254 308 251 376 q 349 300 275 290 q 374 308 353 300 q 417 353 396 322 z "},"E":{"ha":681,"x_min":50,"x_max":646,"o":"m 638 189 l 638 186 q 626 4 646 74 q 444 2 561 4 q 232 0 328 0 q 57 7 136 0 q 53 308 57 113 q 50 659 50 503 q 58 957 50 815 q 426 968 221 965 q 633 965 632 971 q 638 903 638 936 q 635 831 638 871 q 633 768 633 790 l 633 767 q 453 753 567 751 q 269 750 340 754 l 265 750 l 264 749 q 260 665 264 739 q 265 586 257 592 l 267 585 q 320 583 292 583 q 383 581 349 582 q 438 581 418 581 l 438 579 q 442 485 444 574 q 440 386 440 396 q 347 378 413 378 q 272 371 282 378 q 272 197 261 311 l 274 196 q 444 191 321 196 q 638 189 567 186 z "},"F":{"ha":678,"x_min":42,"x_max":665,"o":"m 475 363 q 386 353 447 358 q 297 342 325 347 l 296 342 q 285 1 288 247 q 142 -4 228 -4 q 43 1 57 -4 l 42 3 q 43 437 42 158 q 44 943 44 715 l 44 944 q 333 967 142 961 q 665 947 524 972 l 665 742 q 499 733 638 740 q 294 719 361 726 q 297 594 265 651 q 300 593 299 593 q 475 593 375 583 q 478 494 481 578 q 479 365 476 410 q 475 363 479 363 z "},"G":{"ha":678,"x_min":33,"x_max":647,"o":"m 336 483 q 417 497 357 496 q 547 494 476 499 q 621 489 618 489 l 624 489 l 625 488 q 625 174 647 294 q 493 8 613 53 q 199 -1 304 -46 q 116 61 146 22 q 68 163 86 100 q 51 260 58 200 q 38 578 33 449 q 51 760 40 690 q 133 919 69 875 q 268 971 179 958 q 538 911 432 992 q 624 668 643 831 l 622 660 q 578 654 619 656 q 447 658 481 654 q 353 774 413 774 q 306 774 331 776 q 268 758 282 772 q 253 721 261 751 q 228 540 233 657 q 232 321 222 422 q 278 197 242 226 q 310 185 290 189 q 396 197 347 179 q 439 247 431 213 q 445 293 443 264 q 440 331 447 322 q 388 331 431 332 q 338 333 344 329 q 335 404 335 363 q 332 479 335 446 l 332 481 q 333 482 332 482 q 336 483 335 482 z "},"H":{"ha":682,"x_min":43,"x_max":643,"o":"m 606 981 l 643 8 q 533 1 606 1 q 449 0 461 1 l 447 0 q 435 195 438 64 q 426 383 433 326 l 425 385 q 264 382 342 400 q 262 192 258 325 q 256 10 265 58 q 156 3 231 -4 q 67 1 82 10 q 50 450 57 131 q 47 969 43 769 l 47 971 l 49 971 l 51 971 q 141 970 78 965 q 228 967 204 975 q 240 788 235 911 q 257 601 244 665 l 258 601 q 408 603 294 593 l 410 603 q 415 965 424 764 q 606 981 489 989 z "},"I":{"ha":344,"x_min":44,"x_max":306,"o":"m 272 976 l 306 976 l 306 971 q 301 649 306 863 q 297 326 297 436 q 304 7 296 215 q 181 -7 299 -11 q 51 -6 64 -3 q 54 497 64 154 q 63 981 44 839 l 63 983 q 92 983 68 985 q 119 981 115 981 q 272 976 235 976 z "},"J":{"ha":651,"x_min":11,"x_max":607,"o":"m 396 986 l 599 989 q 602 725 597 903 q 604 457 607 547 q 602 390 603 440 q 599 315 601 340 q 592 244 597 289 q 576 171 588 199 q 549 111 565 143 q 506 58 533 79 q 443 22 479 36 q 183 0 333 -32 q 92 60 129 15 q 39 165 56 104 q 17 283 22 225 q 14 400 11 340 q 229 397 99 419 l 229 396 l 229 389 q 313 231 240 235 q 372 252 351 222 q 397 328 393 282 q 396 976 389 750 l 396 986 z "},"K":{"ha":674,"x_min":44,"x_max":639,"o":"m 401 499 l 639 6 q 591 0 618 1 q 544 -1 564 -1 q 492 1 524 0 q 446 3 460 3 q 333 200 400 56 q 254 365 265 344 q 255 171 251 304 q 258 7 258 38 q 156 -2 218 -3 q 56 7 94 -1 q 51 487 44 85 q 58 971 58 889 q 157 970 93 972 q 244 968 221 968 q 246 801 246 915 q 247 635 246 688 q 254 643 247 636 q 353 807 294 696 q 449 969 413 918 q 543 969 471 968 q 638 965 615 971 q 519 718 613 878 q 401 499 426 558 z "},"L":{"ha":642,"x_min":42,"x_max":631,"o":"m 626 126 q 630 52 629 75 q 626 16 631 29 q 616 1 621 3 q 596 0 611 0 q 590 0 592 0 q 531 0 578 1 q 374 -3 483 -1 q 42 -1 265 -6 l 42 24 q 52 510 53 476 q 46 976 51 543 q 151 988 72 989 q 268 972 231 988 q 267 596 264 863 q 269 221 271 329 l 269 219 q 450 217 289 225 q 629 211 611 208 q 628 181 629 190 q 626 126 625 143 z "},"M":{"ha":674,"x_min":40,"x_max":629,"o":"m 624 442 l 619 -1 q 561 2 594 1 q 488 1 528 3 q 436 0 447 0 q 431 237 435 25 q 417 540 428 449 q 388 473 407 525 q 353 379 369 421 q 329 338 336 338 q 316 349 324 338 q 300 377 308 360 q 284 415 292 394 q 269 456 276 436 q 256 494 261 476 q 247 521 250 511 l 243 531 q 247 4 226 335 q 189 -1 221 0 q 111 -1 157 -3 q 53 0 65 0 q 49 4 50 0 q 47 953 40 33 q 138 960 54 963 q 236 960 221 958 l 238 960 q 287 854 257 939 q 329 750 317 769 q 338 746 333 746 q 347 763 340 744 q 361 808 353 781 q 379 866 369 836 q 399 923 389 896 q 419 963 410 950 q 472 963 442 961 q 552 966 501 964 q 625 968 603 968 q 626 705 622 885 q 624 442 629 525 z "},"N":{"ha":667,"x_min":43,"x_max":624,"o":"m 578 -7 q 514 -3 558 -7 q 450 0 469 0 q 392 126 432 39 q 327 272 353 213 q 282 385 301 332 l 268 426 q 250 468 254 468 q 240 115 240 468 q 242 0 240 32 q 181 -7 215 -7 q 113 -3 158 -7 q 47 1 68 1 l 47 99 q 45 351 47 188 q 43 600 43 514 q 56 972 43 821 q 118 978 79 978 q 189 974 144 978 q 233 964 233 969 q 269 886 247 928 q 306 808 290 844 q 367 681 315 785 q 422 576 419 576 q 432 653 432 583 q 430 756 432 690 q 428 854 428 822 q 431 978 428 886 q 531 986 478 986 q 622 978 583 986 l 622 531 q 624 293 624 453 q 623 215 624 265 q 622 139 622 164 q 623 83 622 119 q 624 28 624 47 l 624 0 q 578 -7 603 -7 z "},"O":{"ha":671,"x_min":40,"x_max":636,"o":"m 608 822 q 631 736 622 790 q 633 599 636 679 q 631 458 631 553 q 626 314 631 364 l 622 268 q 569 81 615 154 q 426 -4 528 24 q 268 -18 357 -25 q 153 8 200 -12 q 85 79 107 29 q 51 233 54 132 q 47 338 50 261 q 42 455 43 415 q 41 556 40 494 q 44 669 42 618 q 118 907 47 825 q 150 932 135 924 q 357 972 240 978 q 551 907 474 967 q 608 822 592 871 m 460 483 l 457 578 l 456 592 q 453 624 454 604 q 451 657 451 643 q 379 775 444 743 q 271 756 325 797 q 206 660 222 717 q 193 432 186 568 q 201 346 194 419 q 219 236 208 272 q 316 175 246 181 q 429 218 386 169 q 447 247 442 235 q 453 267 453 260 q 455 299 454 275 q 457 344 456 322 q 458 378 457 360 q 459 406 458 396 q 460 417 460 415 l 460 483 z "},"P":{"ha":672,"x_min":42,"x_max":663,"o":"m 663 682 l 663 681 q 661 644 663 656 q 529 428 644 513 q 282 365 414 343 q 283 317 283 344 q 284 210 283 290 q 288 17 285 131 l 288 15 q 283 14 286 15 q 172 3 247 4 q 51 8 96 3 q 47 472 46 143 q 42 965 47 801 q 234 990 133 990 q 431 965 335 990 q 592 867 526 940 q 663 682 657 794 m 419 740 q 249 772 349 797 q 244 771 246 772 q 246 699 247 733 q 247 626 244 665 q 257 563 249 588 l 261 563 q 306 564 271 563 q 360 567 342 565 q 403 578 378 569 q 444 603 429 588 q 462 676 468 633 q 419 740 456 719 z "},"Q":{"ha":693,"x_min":46,"x_max":654,"o":"m 638 229 q 631 193 635 204 q 599 108 624 165 q 625 67 625 76 q 619 44 625 54 q 607 29 613 33 q 588 14 601 25 q 528 -11 549 -11 q 503 4 519 -11 q 476 33 486 19 q 414 1 460 14 q 325 -8 368 -11 q 129 75 207 0 q 102 105 114 89 q 81 140 90 121 q 66 174 72 160 q 56 214 60 189 q 50 252 53 239 q 47 295 47 265 q 46 336 46 325 q 46 382 46 347 q 46 426 46 417 q 46 492 46 440 q 46 568 46 544 q 47 640 46 592 q 52 718 49 688 q 62 788 56 749 q 76 858 68 826 q 173 954 96 917 q 356 992 250 992 q 518 965 465 992 q 614 836 571 939 q 654 511 654 710 q 650 367 654 422 q 648 323 649 351 q 645 272 647 294 q 638 229 643 249 m 394 317 q 399 320 394 317 q 413 322 403 322 q 431 310 422 322 q 449 281 440 299 q 468 253 458 263 q 474 297 469 261 q 479 340 478 332 q 481 501 481 354 q 471 672 481 579 q 440 756 467 726 q 351 785 413 785 q 252 767 272 785 q 226 678 232 749 q 217 476 217 569 q 216 427 217 469 q 215 357 215 385 q 218 293 215 329 q 228 238 221 257 q 353 160 257 160 q 378 161 368 160 q 362 178 372 167 q 347 193 351 189 q 318 249 318 228 q 324 267 318 261 q 344 281 329 274 q 364 293 358 289 q 377 304 368 296 q 394 317 386 313 z "},"R":{"ha":789,"x_min":42,"x_max":714,"o":"m 713 4 l 714 4 q 606 1 703 4 q 483 1 508 -3 l 482 1 q 289 350 382 235 l 286 354 q 293 15 278 286 q 210 1 265 4 q 106 0 154 -1 q 51 0 57 1 q 57 223 57 0 q 53 687 57 446 q 42 971 49 928 q 407 990 276 1006 q 554 943 488 986 q 655 836 621 900 q 694 695 689 772 q 653 546 699 618 q 472 425 594 432 l 467 425 l 465 425 l 465 424 q 579 247 479 399 q 713 4 679 94 m 244 776 q 247 693 246 757 q 251 606 247 629 l 253 606 q 393 606 339 597 q 451 680 444 617 q 418 772 458 743 q 244 776 363 824 z "},"S":{"ha":764,"x_min":76,"x_max":728,"o":"m 708 658 l 707 658 q 499 660 581 638 q 469 736 510 707 q 380 754 428 765 q 325 694 332 743 q 325 657 322 685 q 415 597 342 608 q 551 550 489 589 q 656 451 614 511 q 708 306 703 390 q 678 153 713 222 q 573 31 646 71 q 410 -7 500 -10 q 251 28 326 -4 q 126 128 175 61 q 82 278 76 194 l 82 282 l 82 286 q 190 290 94 293 q 294 288 285 288 q 360 206 299 226 q 458 219 418 185 q 482 296 490 246 q 476 322 481 310 q 461 344 471 335 q 443 362 451 354 q 419 376 435 369 q 395 387 404 383 q 367 395 386 390 q 340 401 347 400 q 310 407 332 403 q 283 413 288 411 q 189 460 235 422 q 107 594 128 518 q 103 738 86 669 q 168 863 121 806 q 281 949 215 921 q 435 970 351 975 q 589 933 519 965 q 694 827 660 897 q 708 658 728 757 z "},"T":{"ha":640,"x_min":24,"x_max":621,"o":"m 613 965 q 607 750 621 844 q 438 750 575 757 l 435 750 l 433 750 l 433 749 q 432 746 432 747 q 439 11 426 718 l 439 10 l 439 8 q 324 3 404 3 q 211 -1 244 4 q 212 74 210 3 q 213 329 214 146 q 201 739 211 513 l 200 740 q 106 754 175 753 q 33 757 38 756 q 26 838 28 768 q 28 975 24 908 l 28 976 l 26 978 q 319 980 147 981 q 613 965 490 979 z "},"U":{"ha":689,"x_min":40,"x_max":658,"o":"m 640 929 q 624 210 658 529 q 552 53 611 115 q 396 -19 493 -10 q 235 -8 314 -28 q 100 68 157 13 q 40 204 43 124 q 44 549 40 293 q 46 943 49 804 l 44 944 l 46 944 q 104 946 56 944 q 185 946 153 947 q 242 938 217 944 l 242 936 q 254 254 226 600 q 305 197 267 211 q 380 202 343 183 q 425 261 417 221 q 433 624 431 388 q 438 933 436 860 q 483 938 442 933 q 544 943 524 942 q 594 942 564 944 q 640 929 625 939 z "},"V":{"ha":646,"x_min":29,"x_max":625,"o":"m 625 950 q 394 1 557 588 q 360 -1 390 1 q 307 -4 329 -4 q 192 7 225 -4 q 29 946 71 443 l 29 947 q 125 966 43 964 q 226 961 207 968 q 234 836 231 940 q 253 587 238 732 q 300 310 268 442 q 372 682 339 472 q 422 960 404 892 q 425 963 422 963 q 526 956 458 956 q 625 950 594 956 z "},"W":{"ha":656,"x_min":35,"x_max":622,"o":"m 621 968 l 622 967 q 577 499 610 819 q 531 7 544 178 q 483 4 522 4 l 433 4 l 417 4 q 376 121 400 26 q 335 240 351 215 l 333 240 q 293 126 315 222 q 258 10 271 31 q 190 3 219 3 q 138 7 169 3 l 136 7 q 115 160 133 29 q 90 331 96 292 q 72 479 85 369 q 53 650 58 589 q 42 799 47 711 q 35 965 36 888 l 35 967 q 125 974 81 974 q 233 969 133 974 q 238 703 238 922 q 263 390 239 483 q 325 636 271 421 q 328 643 328 642 q 349 583 335 638 q 379 461 363 528 q 404 372 396 394 q 417 667 413 453 q 429 963 422 882 l 429 964 q 528 972 468 972 q 621 968 575 972 z "},"X":{"ha":685,"x_min":36,"x_max":649,"o":"m 647 969 q 595 819 633 925 q 533 632 557 713 q 497 474 510 551 q 563 219 513 385 q 626 3 614 54 q 590 4 614 4 q 547 3 576 4 q 501 1 518 1 q 440 7 464 1 l 439 8 q 394 162 419 50 q 344 319 368 274 l 343 321 q 290 159 319 268 q 239 3 261 50 q 174 0 197 0 q 50 13 85 0 q 119 228 64 61 q 194 482 175 394 q 174 566 186 521 q 154 640 163 611 q 125 725 146 668 q 99 797 104 782 q 66 882 93 813 q 36 957 39 951 q 175 963 115 963 q 194 963 183 963 q 210 963 204 963 q 222 963 215 963 q 233 963 229 963 q 240 961 236 963 q 244 959 243 960 q 247 956 246 958 q 339 649 322 694 q 394 821 358 693 q 435 965 429 949 l 435 967 q 647 972 500 972 l 649 972 l 647 971 l 647 969 z "},"Y":{"ha":656,"x_min":38,"x_max":647,"o":"m 647 963 l 647 961 q 442 470 593 788 q 239 0 292 153 q 204 1 228 1 q 140 -1 185 1 q 74 -3 96 -3 q 40 -1 51 -3 l 38 -1 q 219 479 83 142 l 219 482 q 132 722 200 563 q 44 961 64 882 q 103 965 63 961 q 164 969 143 969 q 229 958 206 969 q 276 803 242 899 q 336 654 310 708 q 397 809 357 692 q 449 956 436 926 q 594 965 496 965 q 647 963 625 965 z "},"Z":{"ha":696,"x_min":39,"x_max":654,"o":"m 647 743 l 647 742 q 457 453 586 638 q 290 210 328 268 l 289 208 q 403 219 356 217 q 518 223 450 222 q 639 226 586 224 l 639 222 q 636 0 649 151 l 636 -3 q 68 -1 338 14 q 56 106 56 36 q 56 221 57 175 q 131 361 83 283 q 212 488 178 439 q 312 627 246 536 q 396 743 378 718 q 61 761 261 761 q 50 849 50 781 q 42 951 50 917 l 42 953 q 39 958 42 956 q 188 967 106 965 q 331 969 269 969 q 492 966 392 968 q 647 964 593 964 q 651 853 654 946 q 647 743 647 760 z "},"[":{"ha":443,"x_min":47,"x_max":401,"o":"m 397 1 l 263 0 q 49 -3 75 0 l 49 3 q 49 324 51 178 q 50 654 47 471 q 63 978 53 838 l 63 979 q 236 981 121 988 q 401 981 351 975 q 393 817 401 843 l 392 817 l 389 817 q 317 815 367 818 q 242 814 267 811 l 240 814 q 233 611 232 689 q 240 397 235 533 q 244 199 244 260 l 244 197 q 292 190 267 192 q 349 186 318 188 q 393 183 379 185 q 397 1 401 63 z "},"\\":{"ha":547,"x_min":10,"x_max":532,"o":"m 346 10 l 267 210 q 236 293 256 238 q 202 388 219 338 q 165 499 185 439 q 133 594 146 560 q 103 678 124 624 q 79 747 83 733 q 18 949 22 933 q 15 961 17 954 q 10 974 13 968 q 99 983 35 986 q 193 985 163 981 q 222 885 206 938 q 248 803 238 833 q 261 769 258 774 q 283 699 265 758 q 314 608 301 640 q 444 247 435 282 q 489 125 465 200 q 503 88 490 121 q 524 26 515 54 q 525 -1 532 -1 l 524 -1 q 429 1 471 0 q 373 1 388 1 q 350 3 358 1 q 346 10 347 6 z "},"]":{"ha":442,"x_min":42,"x_max":394,"o":"m 181 0 l 46 1 q 50 183 42 63 q 94 186 64 185 q 151 190 125 188 q 199 197 176 192 l 199 199 q 203 397 199 260 q 210 611 208 533 q 203 814 211 689 l 201 814 q 126 815 176 811 q 54 817 76 818 l 51 817 l 50 817 q 42 981 42 843 q 207 981 92 975 q 381 979 322 988 l 381 978 q 393 489 393 793 q 394 3 393 185 l 394 -3 q 181 0 368 0 z "},"^":{"ha":611,"x_min":15,"x_max":597,"o":"m 306 957 l 597 665 q 567 662 596 667 q 495 653 538 657 q 393 657 453 650 q 347 697 383 657 q 301 743 311 738 q 253 699 290 739 q 207 657 215 658 q 15 664 197 656 q 82 744 43 703 q 148 813 121 786 q 229 888 175 839 q 306 957 283 936 z "},"_":{"ha":878,"x_min":43,"x_max":835,"o":"m 43 -58 q 438 -55 58 -58 q 833 -51 817 -51 l 835 -51 q 829 -98 831 -78 q 828 -128 828 -118 q 828 -163 828 -139 q 829 -208 829 -187 q 607 -208 801 -208 q 230 -206 413 -207 q 46 -206 47 -206 q 44 -144 46 -204 q 43 -58 43 -85 z "},"`":{"ha":354,"x_min":18,"x_max":346,"o":"m 18 861 l 114 958 q 240 839 151 929 q 346 732 328 749 q 265 724 324 726 q 160 726 206 722 q 123 765 151 739 q 61 822 94 792 q 19 860 28 851 l 18 861 z "},"a":{"ha":672,"x_min":33,"x_max":624,"o":"m 617 692 q 619 658 619 669 l 619 644 q 620 349 617 564 q 617 56 624 135 q 617 47 617 53 q 617 37 617 40 q 617 28 617 33 q 616 20 617 24 q 614 13 615 17 q 610 6 613 8 q 606 1 608 3 q 599 -1 603 0 l 582 -1 q 536 1 567 -1 q 492 3 506 3 q 461 1 481 3 q 432 -1 442 -1 q 415 29 415 4 q 418 55 415 40 q 421 78 421 69 q 335 20 386 43 q 238 -3 285 -3 q 122 61 171 -3 q 53 206 74 125 q 33 369 33 288 q 101 597 33 507 q 267 690 168 688 q 330 688 310 690 q 373 672 350 686 q 408 626 396 657 q 410 666 407 643 q 414 697 414 689 q 481 699 414 699 q 617 692 578 694 m 213 415 q 204 342 204 388 q 238 235 204 278 q 328 192 271 192 q 369 199 353 192 q 395 217 386 207 q 408 250 404 226 q 413 290 413 274 q 414 343 414 306 q 414 360 414 354 q 406 482 414 465 q 342 504 393 504 q 254 478 288 504 q 213 415 221 453 z "},"b":{"ha":633,"x_min":46,"x_max":617,"o":"m 233 976 l 233 961 q 237 906 235 932 q 240 866 239 881 q 240 803 240 851 q 238 660 239 756 q 336 695 243 686 q 504 678 429 704 q 590 579 563 657 q 617 396 617 501 q 613 316 615 347 q 605 240 611 285 q 589 167 599 196 q 562 107 579 139 q 521 56 544 75 q 463 22 497 36 q 383 4 428 7 q 254 64 290 -8 q 240 58 249 76 q 240 34 240 47 q 239 13 239 21 q 238 3 239 4 q 181 -1 213 0 q 108 0 149 -1 q 50 1 67 1 q 52 461 46 151 q 58 886 58 771 l 58 978 q 129 983 86 983 q 203 981 172 983 q 233 976 233 979 m 449 438 q 317 536 433 536 q 245 510 258 536 q 232 376 232 485 q 235 294 232 324 q 247 233 238 264 q 276 189 256 203 q 332 175 297 175 q 424 229 389 175 q 458 357 458 283 q 449 438 458 411 z "},"c":{"ha":644,"x_min":56,"x_max":611,"o":"m 608 267 q 569 49 594 74 q 503 1 547 17 q 428 -16 460 -14 q 330 -15 397 -18 q 247 -12 263 -12 q 128 49 176 0 q 76 131 93 79 q 60 236 60 183 q 59 347 60 289 q 56 449 58 406 q 64 549 56 499 q 86 631 65 561 q 163 691 104 671 q 294 711 222 711 q 348 710 313 710 q 403 710 383 711 q 557 651 504 703 q 572 638 565 646 q 585 619 579 631 q 594 598 590 607 q 600 572 597 589 q 604 544 603 554 q 607 512 606 535 q 609 478 608 489 q 610 440 610 468 q 611 401 611 413 q 435 408 561 390 q 394 485 428 460 q 307 497 360 510 q 260 467 278 489 q 247 439 251 460 q 242 344 243 407 q 239 258 240 282 q 267 198 236 218 q 338 179 299 178 q 399 196 376 181 q 432 269 418 210 q 519 271 444 268 q 608 267 594 274 z "},"d":{"ha":633,"x_min":17,"x_max":588,"o":"m 400 961 l 400 976 q 431 981 400 979 q 504 983 461 983 q 575 978 547 983 l 575 886 q 581 460 575 769 q 583 1 588 151 q 526 0 567 1 q 453 -1 485 -1 q 396 3 421 0 q 394 13 394 4 q 394 34 394 21 q 393 58 393 47 q 379 64 385 76 q 250 4 343 -8 q 146 34 189 8 q 78 94 103 60 q 40 183 54 128 q 22 284 26 239 q 17 396 18 329 q 44 579 17 501 q 129 678 71 657 q 297 695 204 704 q 396 660 390 686 q 394 803 394 756 q 394 866 393 851 q 397 906 394 881 q 400 961 399 932 m 185 438 q 175 357 175 411 q 210 229 175 283 q 301 175 244 175 q 383 223 365 175 q 401 376 401 271 q 388 510 401 485 q 317 536 375 536 q 185 438 200 536 z "},"e":{"ha":633,"x_min":29,"x_max":617,"o":"m 222 349 l 222 324 q 222 306 222 319 q 223 290 222 293 q 224 276 224 286 q 224 262 224 265 q 226 250 225 258 q 229 238 228 242 q 233 227 231 233 q 238 215 235 221 q 243 204 240 210 q 308 148 265 161 q 385 166 351 135 q 417 267 419 197 q 503 268 429 265 q 592 264 576 271 q 553 47 578 68 q 507 7 535 22 q 442 -12 479 -8 q 375 -17 404 -17 q 299 -16 346 -18 q 233 -14 253 -14 q 161 11 194 -8 q 60 166 92 60 q 35 394 29 272 q 65 588 46 535 q 202 699 100 667 q 408 704 304 731 q 594 360 617 669 q 416 346 564 351 q 222 349 268 340 m 390 564 q 342 578 368 578 q 257 554 282 578 q 226 488 232 531 q 232 460 222 463 q 357 457 240 457 q 417 456 385 457 q 441 456 438 454 q 444 468 444 457 q 444 474 444 471 q 390 564 444 536 z "},"f":{"ha":558,"x_min":19,"x_max":542,"o":"m 304 192 l 304 6 q 211 4 274 10 q 125 1 149 -1 q 119 131 119 32 q 120 356 118 229 q 122 493 122 483 q 24 492 61 493 l 19 661 q 119 660 90 661 q 145 824 113 746 q 263 929 178 901 q 524 956 363 964 q 524 768 542 903 q 350 751 497 771 q 310 657 292 742 l 522 657 q 520 627 519 651 q 521 593 521 603 q 514 483 521 556 q 304 494 340 493 l 304 192 z "},"g":{"ha":653,"x_min":38,"x_max":615,"o":"m 194 329 l 194 317 q 236 196 194 246 q 303 159 260 167 q 381 164 346 151 q 405 185 396 169 q 416 213 414 201 q 421 249 418 225 q 403 472 421 401 q 335 519 386 514 q 253 496 285 525 q 197 383 207 443 q 194 329 194 371 m 435 -278 l 292 -278 q 92 -175 163 -278 q 74 -117 81 -154 q 69 -58 67 -81 q 156 -49 107 -49 q 247 -57 206 -50 q 284 -126 247 -103 q 361 -134 321 -150 q 413 -69 401 -118 q 415 -15 417 -24 q 415 33 413 8 q 381 11 403 19 q 344 1 360 3 q 297 -1 328 0 q 257 -3 267 -1 q 76 85 118 -3 q 38 247 44 144 q 38 309 38 294 q 40 370 38 324 q 45 437 42 417 q 56 497 49 457 q 75 558 64 538 q 104 606 86 578 q 144 649 122 635 q 199 676 167 664 q 269 690 231 688 q 407 625 375 697 q 414 632 413 622 q 413 653 414 636 q 415 692 411 683 q 474 695 443 694 q 544 694 504 696 q 603 693 583 693 q 601 -60 615 275 q 601 -92 601 -71 q 601 -126 601 -114 q 599 -155 601 -139 q 589 -181 596 -171 q 435 -278 532 -269 z "},"h":{"ha":618,"x_min":46,"x_max":579,"o":"m 231 619 q 265 640 258 635 q 405 688 325 685 q 544 644 485 692 q 575 508 571 621 q 574 232 579 396 q 574 3 569 68 q 400 -3 536 -3 q 397 152 397 39 q 394 319 397 265 q 393 340 394 325 q 391 363 392 354 q 388 385 390 371 q 384 407 386 399 q 378 426 382 415 q 370 443 375 436 q 360 454 365 450 q 357 456 358 456 q 354 457 356 456 q 308 467 335 467 q 253 448 281 468 q 222 382 225 428 q 225 194 219 329 q 221 10 231 58 l 221 4 q 144 -4 206 -7 q 49 -4 83 -1 q 47 285 49 60 q 46 703 46 511 q 49 1004 46 896 q 146 1004 97 1000 q 174 1008 150 1004 q 211 1011 199 1011 q 229 1006 224 1011 q 231 619 231 999 z "},"i":{"ha":283,"x_min":43,"x_max":243,"o":"m 219 699 l 243 699 l 243 694 q 240 467 243 628 q 236 235 236 306 q 242 8 236 165 q 147 -1 240 -4 q 46 0 53 1 q 49 357 54 113 q 54 701 43 601 l 54 703 q 74 703 58 704 q 93 701 90 701 q 219 699 163 697 m 49 1001 l 238 997 q 240 920 238 989 q 242 819 242 851 q 206 807 235 808 q 128 808 176 806 q 54 810 79 811 q 51 892 54 829 q 49 1001 47 954 z "},"j":{"ha":472,"x_min":8,"x_max":431,"o":"m 246 504 l 246 690 q 339 692 276 686 q 425 694 401 697 q 428 522 431 649 q 428 365 425 394 q 428 264 428 332 q 429 159 429 196 q 427 67 429 122 q 420 -37 425 13 q 407 -137 415 -86 q 26 -260 349 -275 q 26 -72 8 -207 q 151 -64 86 -76 q 240 -17 217 -51 q 242 236 242 49 q 246 504 242 424 m 238 1001 l 422 997 q 424 920 422 989 q 426 819 426 851 q 392 807 419 808 q 317 808 364 806 q 243 810 269 811 q 240 892 243 829 q 238 1001 236 954 z "},"k":{"ha":625,"x_min":44,"x_max":615,"o":"m 242 1008 l 242 704 q 240 643 242 683 q 239 573 239 603 q 242 524 239 543 q 319 625 276 554 q 383 722 361 696 q 491 715 392 711 q 603 718 590 719 q 535 621 572 671 q 447 503 499 571 q 374 407 396 436 q 435 310 393 376 q 501 204 476 243 q 558 108 525 165 q 615 0 590 50 q 550 -3 600 0 q 458 -6 500 -6 q 392 0 417 -6 q 324 128 371 33 q 242 268 278 222 q 244 194 242 256 q 244 84 246 132 q 236 0 243 36 q 149 -1 218 1 q 53 0 81 -4 q 49 507 44 78 q 53 1008 53 936 q 113 1010 71 1008 q 188 1011 154 1011 q 242 1008 221 1011 z "},"l":{"ha":289,"x_min":42,"x_max":249,"o":"m 60 1010 l 249 1006 q 246 696 249 938 q 242 316 243 454 q 247 8 242 178 q 152 -1 246 -4 q 51 0 58 1 q 53 504 64 160 q 60 1010 42 849 z "},"m":{"ha":967,"x_min":43,"x_max":907,"o":"m 232 619 q 267 640 260 635 q 406 688 326 685 q 546 644 486 692 q 560 621 554 636 q 593 640 590 639 q 733 688 653 685 q 872 644 813 692 q 903 508 899 621 q 902 232 907 396 q 901 3 897 68 q 728 -3 864 -3 q 725 152 725 39 q 722 319 725 265 q 721 340 722 325 q 719 363 719 354 q 716 385 718 371 q 712 407 714 399 q 706 426 710 415 q 698 443 703 436 q 688 454 693 450 q 685 456 686 456 q 682 457 683 456 q 578 447 625 483 q 575 220 579 379 q 575 3 571 61 q 401 -3 538 -3 q 399 152 399 39 q 396 319 399 265 q 394 340 396 325 q 392 363 393 354 q 390 385 392 371 q 385 407 388 399 q 380 426 383 415 q 372 443 376 436 q 361 454 367 450 q 358 456 360 456 q 356 457 356 456 q 309 467 336 467 q 254 448 282 468 q 224 382 226 428 q 226 194 221 329 q 222 10 232 58 l 222 4 q 146 -4 207 -7 q 50 -4 85 -1 q 47 338 50 25 q 49 692 43 650 q 146 692 97 688 q 174 695 150 692 q 211 699 199 699 q 229 693 224 699 q 232 651 232 675 q 232 619 232 626 z "},"n":{"ha":636,"x_min":42,"x_max":579,"o":"m 231 619 q 265 640 258 635 q 405 688 325 685 q 544 644 485 692 q 575 508 571 621 q 574 232 579 396 q 574 3 569 68 q 400 -3 536 -3 q 397 152 397 39 q 394 319 397 265 q 393 340 394 325 q 391 363 392 354 q 388 385 390 371 q 384 407 386 399 q 378 426 382 415 q 370 443 375 436 q 360 454 365 450 q 357 456 358 456 q 354 457 356 456 q 308 467 335 467 q 253 448 281 468 q 222 382 225 428 q 225 194 219 329 q 221 10 231 58 l 221 4 q 144 -4 206 -7 q 49 -4 83 -1 q 45 338 49 25 q 47 692 42 650 q 144 692 96 688 q 173 695 149 692 q 210 699 197 699 q 228 693 222 699 q 231 651 231 675 q 231 619 231 626 z "},"o":{"ha":650,"x_min":57,"x_max":614,"o":"m 86 633 q 163 694 104 674 q 294 714 222 714 q 348 713 313 713 q 403 713 383 714 q 557 653 503 706 q 613 403 606 621 q 614 378 614 386 q 583 75 604 131 q 569 51 576 58 q 503 4 547 19 q 428 -13 460 -11 q 330 -12 397 -15 q 247 -10 263 -10 q 128 51 176 3 q 76 134 93 82 q 59 239 60 186 q 58 350 58 292 q 57 451 58 408 q 64 551 57 508 q 68 576 64 561 q 78 609 72 592 q 86 633 85 626 m 260 469 q 247 442 251 463 q 242 347 243 408 q 239 261 240 285 q 267 202 238 222 q 335 183 297 182 q 399 199 372 185 q 431 244 422 210 q 435 419 444 369 q 394 491 428 469 q 307 500 361 513 q 260 469 278 492 z "},"p":{"ha":631,"x_min":44,"x_max":615,"o":"m 232 -267 l 232 -282 q 201 -287 232 -285 q 128 -289 171 -289 q 57 -283 85 -289 l 57 -192 q 51 233 57 -76 q 49 693 44 543 q 106 694 65 693 q 179 695 147 696 q 236 692 211 694 q 238 682 238 690 q 238 660 238 674 q 239 636 239 647 q 253 631 247 618 q 382 690 289 703 q 461 673 426 688 q 519 639 496 658 q 560 588 543 619 q 588 527 578 556 q 603 454 597 499 q 612 378 610 410 q 615 299 614 347 q 588 115 615 193 q 503 17 561 38 q 335 -1 428 -10 q 236 35 242 8 q 238 -109 238 -61 q 238 -172 239 -157 q 235 -212 238 -186 q 232 -267 233 -237 m 447 257 q 457 338 457 283 q 422 465 457 411 q 331 519 388 519 q 249 472 267 519 q 231 318 231 424 q 244 184 231 210 q 315 158 257 158 q 447 257 432 158 z "},"q":{"ha":631,"x_min":15,"x_max":586,"o":"m 399 -282 l 399 -267 q 395 -212 397 -237 q 392 -172 393 -186 q 392 -109 392 -157 q 394 35 393 -61 q 296 -1 389 8 q 128 17 203 -10 q 42 115 69 38 q 15 299 15 193 q 21 410 17 365 q 39 511 25 456 q 77 601 53 567 q 144 660 101 635 q 249 690 188 686 q 378 631 342 703 q 392 636 383 618 q 392 660 392 647 q 393 682 393 674 q 394 692 393 690 q 451 695 419 694 q 524 694 483 696 q 582 693 565 693 q 580 233 586 543 q 574 -192 574 -76 l 574 -283 q 503 -289 546 -289 q 429 -287 460 -289 q 399 -282 399 -285 m 183 257 q 315 158 199 158 q 387 184 374 158 q 400 318 400 210 q 397 401 400 371 q 385 461 394 431 q 356 506 376 492 q 300 519 335 519 q 208 465 243 519 q 174 338 174 411 q 183 257 174 283 z "},"r":{"ha":504,"x_min":42,"x_max":493,"o":"m 236 646 q 301 672 246 651 q 383 688 333 682 q 459 692 432 693 q 493 690 486 692 l 493 446 l 481 450 q 467 455 476 453 q 451 460 457 457 q 399 469 413 469 q 269 462 313 479 q 229 374 226 444 q 235 10 235 203 l 235 4 q 151 -4 219 -7 q 49 -4 82 -1 q 45 338 49 25 q 47 692 42 650 q 144 692 96 688 q 175 694 149 692 q 215 697 201 696 q 235 693 229 697 q 235 668 235 678 q 236 646 236 658 z "},"s":{"ha":694,"x_min":67,"x_max":672,"o":"m 657 481 q 458 481 547 463 q 433 542 467 515 q 363 567 400 569 q 306 531 322 560 q 306 470 290 501 q 364 424 322 439 q 610 333 563 394 q 628 103 672 231 q 379 -22 567 -25 q 153 36 239 -28 q 67 211 67 100 l 67 215 l 67 218 q 131 222 94 221 q 212 221 167 222 q 272 219 257 219 q 318 156 274 179 q 405 147 363 133 q 446 211 447 161 q 430 262 450 243 q 381 286 410 281 q 306 302 353 292 q 228 326 258 313 q 115 409 153 351 q 81 526 78 467 q 122 638 83 585 q 225 707 160 690 q 371 722 278 722 q 536 704 464 721 q 657 481 657 653 z "},"t":{"ha":558,"x_min":19,"x_max":540,"o":"m 303 950 l 303 764 q 303 726 303 753 q 304 686 304 700 q 514 697 340 688 q 526 653 525 685 q 523 581 526 621 q 522 524 519 542 l 307 524 q 308 243 307 326 q 397 196 332 208 q 522 188 463 183 q 522 0 540 53 q 142 122 200 -15 q 119 521 117 272 q 19 519 90 519 l 24 689 q 122 688 61 688 q 121 772 122 711 q 120 878 119 832 q 124 954 121 924 q 210 951 147 957 q 303 950 272 946 z "},"u":{"ha":638,"x_min":57,"x_max":594,"o":"m 406 75 q 371 54 378 60 q 231 6 311 10 q 92 50 151 3 q 61 186 65 74 q 62 463 57 299 q 63 692 67 626 q 236 697 100 697 q 239 542 239 656 q 242 375 239 429 q 243 355 242 369 q 245 332 244 340 q 248 310 246 324 q 252 288 250 296 q 258 269 254 279 q 266 251 261 258 q 276 240 271 244 q 279 239 276 239 q 282 238 281 239 q 328 227 301 228 q 383 247 356 226 q 414 313 411 267 q 410 501 417 363 q 415 685 404 639 l 415 690 q 492 699 431 701 q 588 699 553 696 q 591 357 588 669 q 589 3 594 44 q 492 3 540 7 q 463 -1 488 3 q 426 -4 439 -4 q 408 1 414 -4 q 406 44 406 19 q 406 75 406 68 z "},"v":{"ha":625,"x_min":24,"x_max":603,"o":"m 217 690 q 242 541 225 646 q 274 350 258 436 q 308 215 290 264 q 360 449 328 268 q 417 689 393 631 q 497 692 436 689 q 603 693 558 696 q 502 317 558 571 q 429 -1 446 63 q 351 -8 397 -7 q 245 -6 304 -8 q 168 -4 186 -4 q 24 694 100 414 q 123 692 57 690 q 217 690 189 694 z "},"w":{"ha":992,"x_min":31,"x_max":963,"o":"m 225 690 q 249 541 233 646 q 281 350 265 436 q 315 215 297 264 q 341 297 329 256 q 359 369 353 338 q 380 470 365 400 q 407 597 394 540 l 425 694 q 508 696 458 692 q 579 693 557 700 q 613 480 582 678 q 668 215 644 282 q 729 462 692 274 q 782 689 767 650 q 859 692 799 689 q 963 693 919 696 q 862 317 918 571 q 789 -1 806 63 q 715 -8 757 -7 q 618 -6 672 -8 q 544 -4 564 -4 q 490 318 493 304 q 465 163 481 274 q 436 -1 450 53 q 358 -8 404 -7 q 252 -6 311 -8 q 175 -4 193 -4 q 31 694 107 414 q 131 692 64 690 q 225 690 197 694 z "},"x":{"ha":644,"x_min":38,"x_max":608,"o":"m 607 694 q 567 585 594 657 q 522 455 540 514 q 493 342 503 396 q 543 160 504 279 q 592 0 582 42 q 567 1 582 1 q 533 1 557 1 q 499 0 510 0 q 390 4 403 0 l 389 4 q 356 114 375 36 q 322 224 336 192 l 322 225 q 285 110 306 189 q 249 -1 265 32 q 199 -2 242 -1 q 147 -3 156 -3 q 47 6 68 -3 q 99 166 58 47 q 154 343 140 285 q 139 410 147 376 q 115 487 131 443 q 92 550 99 531 q 63 626 85 569 q 38 690 40 682 q 135 694 100 694 q 254 690 250 694 q 319 454 318 458 q 356 578 332 483 q 386 692 381 674 q 607 696 419 696 l 608 696 q 607 694 608 694 z "},"y":{"ha":685,"x_min":21,"x_max":669,"o":"m 267 690 q 288 574 272 661 q 316 428 304 488 q 344 299 328 369 q 375 190 361 229 q 419 440 394 243 q 467 693 443 636 q 563 695 486 693 q 669 693 639 697 q 596 386 649 614 q 572 281 586 349 q 547 168 557 214 q 515 60 536 122 q 472 -43 494 -1 q 410 -128 450 -85 q 323 -197 371 -172 q 205 -237 275 -222 q 49 -246 135 -251 q 40 -61 21 -161 q 85 -62 54 -61 q 133 -64 117 -64 q 171 -60 149 -64 q 203 -46 193 -56 q 220 -16 214 -36 q 222 33 226 4 q 199 149 213 88 q 176 253 186 211 q 147 373 167 296 q 121 476 128 450 q 89 592 114 501 q 61 694 64 683 q 167 692 94 690 q 267 690 239 694 z "},"z":{"ha":657,"x_min":42,"x_max":615,"o":"m 615 690 q 614 627 615 665 q 613 560 613 589 q 615 504 613 532 q 465 355 572 458 q 307 194 357 251 q 455 196 342 197 q 608 203 568 194 q 610 108 608 174 q 611 10 611 43 q 46 1 269 1 q 45 107 49 60 q 43 179 42 154 q 204 347 90 240 q 361 504 318 453 q 51 482 146 494 q 50 594 47 533 q 51 690 53 654 q 263 691 132 690 q 438 692 394 692 q 532 691 453 688 q 615 690 611 694 z "},"{":{"ha":444,"x_min":4,"x_max":407,"o":"m 403 1 q 230 35 294 -11 q 168 150 165 82 q 173 235 176 189 q 158 320 169 281 q 112 385 146 360 q 26 408 78 411 q 15 410 17 408 q 18 546 4 460 q 105 560 69 540 q 154 615 140 579 q 174 694 168 650 q 172 781 179 738 q 187 884 161 838 q 264 939 213 931 q 399 942 343 947 q 400 813 407 885 q 369 801 379 806 q 344 785 358 797 q 328 757 331 774 q 325 674 325 718 q 326 591 325 629 q 308 521 326 553 q 251 475 290 489 q 325 296 332 431 q 404 143 315 151 q 403 1 404 15 z "},"|":{"ha":244,"x_min":46,"x_max":201,"o":"m 201 -39 l 189 -39 q 105 -37 163 -39 q 46 -35 47 -35 l 46 835 l 46 1008 q 99 1007 71 1008 q 146 1006 128 1006 q 199 1013 164 1007 l 199 1011 q 200 486 199 996 q 201 -39 201 -24 z "},"}":{"ha":444,"x_min":38,"x_max":440,"o":"m 42 1 q 40 143 40 15 q 119 296 129 151 q 193 475 113 431 q 136 521 154 489 q 119 591 118 553 q 119 674 119 629 q 117 757 119 718 q 100 785 114 774 q 76 801 86 797 q 44 813 65 806 q 46 942 38 885 q 181 939 101 947 q 258 884 232 931 q 272 781 283 838 q 271 694 265 738 q 290 615 276 650 q 340 560 304 579 q 426 546 375 540 q 429 410 440 460 q 418 408 428 408 q 333 385 367 411 q 287 320 299 360 q 272 235 275 281 q 276 150 268 189 q 215 35 279 82 q 42 1 150 -11 z "},"~":{"ha":799,"x_min":25,"x_max":778,"o":"m 236 186 l 236 185 q 114 190 214 190 q 25 189 57 190 q 69 315 38 240 q 133 425 101 389 q 251 485 182 474 q 379 460 319 496 q 424 413 399 446 q 464 371 450 381 q 550 374 510 331 q 603 467 590 417 q 753 472 626 468 l 757 468 q 690 239 778 364 q 618 188 660 201 q 492 185 557 163 q 399 268 426 207 q 328 308 369 310 q 265 292 299 308 q 236 258 242 278 q 236 186 225 231 z "}," ":{"ha":250,"x_min":0,"x_max":0,"o":""},"¡":{"ha":268,"x_min":42,"x_max":226,"o":"m 111 875 l 215 876 q 220 846 221 867 q 215 778 219 825 q 211 714 211 732 l 211 713 q 163 703 192 704 q 97 706 135 703 q 42 710 58 710 q 46 876 46 864 l 56 876 q 83 876 67 876 q 108 875 99 875 l 111 875 m 219 -97 l 215 -97 q 176 -101 206 -99 q 130 -106 147 -104 q 88 -106 113 -107 q 44 -100 63 -106 q 43 635 53 413 q 222 642 69 638 l 224 642 q 224 275 222 561 q 219 -97 226 -11 z "},"¢":{"ha":490,"x_min":28,"x_max":468,"o":"m 178 553 q 179 368 171 456 q 218 286 182 306 q 217 656 221 533 q 196 649 204 656 q 185 629 188 642 q 181 605 182 617 q 179 576 179 593 q 178 553 179 560 m 268 286 l 269 286 q 295 308 286 293 q 306 338 304 324 q 308 374 307 351 q 311 407 310 397 q 374 407 322 406 q 438 401 426 408 l 438 400 q 442 345 438 383 q 443 286 446 307 q 385 182 435 225 q 271 131 335 139 l 268 131 l 268 129 q 268 84 267 115 q 267 42 269 53 l 265 42 q 263 40 264 40 q 221 42 231 26 q 219 69 219 54 q 219 97 218 83 q 218 129 219 110 q 106 153 161 121 q 43 244 51 185 q 35 360 36 306 q 35 495 33 415 q 38 614 38 575 q 79 767 28 700 q 217 814 131 835 q 219 853 219 815 q 219 897 219 892 q 240 908 224 906 q 268 903 256 911 l 268 901 l 268 811 l 269 811 q 416 717 364 808 q 439 535 468 625 l 439 533 q 300 538 369 524 q 297 578 297 549 q 292 627 297 607 q 268 658 286 647 q 267 479 265 638 q 268 286 268 321 z "},"£":{"ha":658,"x_min":15,"x_max":640,"o":"m 189 514 l 193 514 l 200 514 l 201 514 q 199 775 197 638 q 207 929 201 913 q 369 938 333 929 l 369 936 q 369 508 375 721 q 551 507 532 500 l 553 507 q 555 424 557 471 q 549 356 553 376 q 551 322 546 336 q 451 324 479 324 q 399 322 422 324 q 368 321 375 321 q 372 276 364 314 q 383 233 379 238 q 640 218 592 222 q 633 98 636 151 q 630 25 631 44 q 629 3 629 6 q 515 3 588 3 q 273 5 336 3 q 199 15 210 7 q 196 326 206 108 q 89 328 136 328 q 37 328 42 329 q 19 329 32 328 q 18 430 19 385 q 16 481 17 475 q 17 500 15 486 q 18 504 17 503 q 102 515 36 518 q 189 514 168 511 z "},"¤":{"ha":860,"x_min":33,"x_max":826,"o":"m 310 775 q 344 781 315 775 q 382 786 374 786 q 551 776 463 792 q 616 849 572 799 q 683 925 660 900 l 826 803 q 765 733 807 781 q 711 672 724 686 q 739 592 731 635 q 743 479 743 569 q 703 278 743 353 q 826 154 789 172 l 800 132 q 738 80 790 128 q 669 35 685 32 q 606 100 638 71 q 543 165 574 129 q 286 164 404 138 q 190 35 236 97 q 109 92 175 33 q 33 154 43 150 q 136 278 78 207 l 136 279 q 121 353 132 292 q 136 682 104 560 q 78 750 101 729 q 33 803 56 771 l 176 925 q 310 775 229 867 m 336 628 q 269 551 279 608 q 265 502 265 528 q 265 443 264 476 q 267 396 267 410 q 287 335 267 361 q 343 301 307 308 q 481 307 422 294 q 490 308 483 307 q 501 310 496 310 l 504 310 q 585 404 572 318 q 591 447 588 419 q 596 483 594 475 q 575 592 606 553 q 535 622 557 617 q 336 628 450 649 z "},"¥":{"ha":725,"x_min":29,"x_max":707,"o":"m 642 347 l 642 346 q 548 347 626 350 q 449 344 469 344 q 427 314 436 339 q 413 282 418 289 l 411 281 l 639 281 q 642 154 639 167 q 360 147 554 156 q 326 68 346 122 q 300 1 306 14 l 300 0 l 299 0 q 206 3 281 7 q 104 1 132 -1 l 100 1 q 110 42 101 18 q 131 95 118 65 q 149 140 143 125 q 91 144 136 144 q 32 153 46 143 l 32 154 q 33 198 33 176 q 33 242 32 219 q 39 276 35 264 q 126 276 71 274 q 200 279 182 279 l 200 281 q 208 297 204 289 q 217 317 213 306 q 225 335 221 328 q 226 339 225 338 l 226 340 l 225 340 q 129 340 217 342 q 33 349 42 338 q 31 406 29 350 q 33 467 33 461 l 36 467 q 167 472 82 472 q 281 474 253 472 q 280 475 281 475 q 279 476 279 475 q 194 708 260 543 q 111 961 128 874 q 210 962 144 958 q 311 961 276 965 q 335 884 318 939 q 366 788 351 829 q 397 711 381 747 q 507 949 442 792 q 510 950 508 950 q 513 951 511 950 q 707 957 642 969 q 503 483 621 703 q 569 476 514 474 q 638 471 624 478 l 639 471 l 639 469 q 639 406 639 463 q 642 347 639 350 z "},"¦":{"ha":1157,"x_min":0,"x_max":0,"o":""},"§":{"ha":1157,"x_min":0,"x_max":0,"o":""},"¨":{"ha":485,"x_min":46,"x_max":442,"o":"m 189 724 l 54 725 l 50 725 q 47 769 47 742 q 47 829 46 797 q 49 865 49 861 q 128 874 75 874 q 200 867 181 875 l 197 836 q 194 772 196 806 q 192 726 192 738 l 192 725 l 192 724 l 189 724 m 431 724 l 296 725 l 292 725 q 288 769 289 742 q 289 829 288 797 q 290 865 290 861 q 369 874 317 874 q 442 867 422 875 l 439 836 q 435 772 438 806 q 433 726 433 738 l 433 725 l 433 724 l 431 724 z "},"©":{"ha":774,"x_min":31,"x_max":708,"o":"m 690 346 q 624 233 674 281 q 583 202 606 215 q 541 182 560 189 q 490 170 522 175 q 443 164 458 165 q 390 160 428 163 q 342 157 351 157 q 192 176 254 157 q 50 343 64 235 q 43 619 31 456 q 94 739 50 686 q 263 828 151 811 q 489 824 426 836 q 604 779 551 813 q 613 774 607 776 q 621 768 618 771 q 671 715 651 747 q 699 656 690 682 q 708 578 708 629 q 707 506 708 528 q 699 422 706 483 q 690 346 692 360 m 582 669 q 468 726 550 710 q 263 726 365 739 q 260 726 261 726 q 256 725 258 725 q 180 685 210 717 q 144 613 150 654 q 147 365 135 540 q 189 290 147 321 q 286 256 231 258 q 374 260 299 257 q 489 271 450 264 q 567 320 539 279 q 601 415 596 361 q 607 564 608 500 q 606 582 607 567 q 606 601 606 597 q 604 618 606 606 q 600 637 603 631 q 593 652 597 643 q 582 669 589 661 m 332 592 q 328 583 331 589 l 328 564 q 326 524 326 546 q 325 475 325 501 q 326 432 325 449 q 356 382 329 390 q 397 400 385 379 l 401 453 q 438 453 404 453 q 475 450 471 454 q 460 344 492 393 q 369 294 428 294 q 289 306 326 289 q 249 364 251 322 q 246 589 244 422 q 253 624 244 604 q 282 671 263 654 q 310 685 288 675 q 442 653 383 707 q 476 525 501 600 q 399 528 444 521 q 397 547 399 532 q 394 567 396 561 q 389 583 393 574 q 377 597 385 593 q 358 601 369 601 q 345 597 356 600 q 332 592 335 594 z "},"ª":{"ha":381,"x_min":33,"x_max":335,"o":"m 331 1004 q 332 996 331 1001 q 333 988 333 990 l 333 982 q 333 830 332 936 q 331 681 335 724 q 321 651 331 653 l 313 651 q 290 652 306 651 q 267 653 275 653 q 251 652 261 653 q 235 651 240 651 q 226 667 226 653 q 228 680 226 672 q 231 692 231 688 q 136 650 192 650 q 60 710 86 650 q 33 840 33 771 q 67 958 33 911 q 151 1004 101 1004 q 175 1003 167 1004 q 194 1000 183 1003 q 213 990 206 997 q 224 971 219 983 q 225 990 224 979 q 226 1007 226 1001 q 234 1008 226 1008 q 249 1008 242 1008 q 261 1008 257 1007 q 331 1004 290 1006 m 125 863 q 119 826 119 851 q 138 771 119 793 q 183 749 156 749 q 215 762 206 749 q 226 787 225 775 q 226 836 226 799 q 226 853 226 842 q 222 900 226 892 q 190 908 217 908 q 125 863 132 908 z "},"«":{"ha":818,"x_min":17,"x_max":782,"o":"m 68 308 m 475 118 l 460 104 l 438 82 q 367 15 400 44 l 365 17 q 213 158 347 35 q 17 364 78 281 q 91 449 47 403 q 193 555 135 496 q 278 640 251 614 q 357 722 333 699 q 410 675 374 713 q 463 626 447 638 q 345 499 436 593 q 218 360 254 406 q 341 242 256 326 q 475 118 426 157 m 782 118 l 767 104 l 744 82 q 674 15 707 44 l 672 17 q 519 158 654 35 q 324 364 385 281 q 398 449 354 403 q 500 555 442 496 q 585 640 558 614 q 664 722 640 699 q 717 675 681 713 q 769 626 754 638 q 652 499 743 593 q 525 360 561 406 q 648 242 563 326 q 782 118 733 157 z "},"¬":{"ha":624,"x_min":3,"x_max":578,"o":"m 574 349 l 497 349 q 497 390 497 350 q 497 483 497 429 q 496 572 496 536 q 4 579 7 576 q 4 595 4 581 q 3 628 4 610 q 3 656 3 646 q 290 654 11 656 q 578 653 569 653 l 578 651 q 576 649 576 650 l 578 649 q 576 560 578 633 q 575 417 575 486 l 574 349 z "},"­":{"ha":499,"x_min":43,"x_max":456,"o":"m 43 422 q 249 424 50 422 q 456 425 447 425 q 453 344 453 410 q 430 344 447 344 q 388 344 413 344 q 332 344 363 344 q 269 344 301 344 q 204 344 236 344 q 144 345 172 344 q 93 346 115 346 q 58 346 71 346 l 44 346 q 44 362 44 347 q 44 394 44 376 q 43 422 43 413 z "},"®":{"ha":767,"x_min":31,"x_max":710,"o":"m 686 329 q 624 233 667 275 q 583 202 606 215 q 541 182 560 189 q 490 170 522 175 q 443 164 458 165 q 390 160 428 163 q 342 157 351 157 q 192 176 254 157 q 50 343 64 235 q 43 619 31 456 q 94 739 50 686 q 263 828 151 811 q 489 824 426 836 q 604 779 551 813 q 613 774 607 776 q 621 768 618 771 q 683 696 661 738 q 707 593 704 654 q 707 495 710 532 q 694 381 704 458 q 691 356 693 374 q 686 329 689 339 m 582 669 q 468 726 550 710 q 263 726 365 739 q 260 726 261 726 q 256 725 258 725 q 180 685 210 717 q 144 613 150 654 l 140 567 q 143 400 139 551 q 214 274 146 300 q 250 261 231 265 q 468 267 300 254 l 489 271 q 567 320 539 279 q 601 415 596 361 q 607 564 608 500 q 606 582 607 567 q 606 601 606 597 q 604 618 606 606 q 600 637 603 631 q 593 652 597 643 q 582 669 589 661 m 511 300 q 470 298 501 300 q 421 297 439 296 l 419 297 q 405 328 417 304 q 385 369 393 353 q 364 406 376 385 q 340 439 351 426 l 339 442 q 335 397 335 417 q 339 345 336 376 q 342 304 342 314 q 243 297 315 297 q 245 388 244 297 q 244 576 246 478 q 240 692 243 674 q 389 700 332 704 q 488 637 456 694 q 488 518 521 579 q 415 469 461 471 l 413 469 l 411 469 l 411 468 q 444 418 421 453 q 485 356 468 383 q 511 300 501 328 m 322 614 q 322 578 322 603 q 324 543 322 553 l 325 543 q 381 543 369 540 q 406 574 401 549 q 393 613 410 600 q 322 614 368 631 z "},"°":{"ha":418,"x_min":35,"x_max":382,"o":"m 113 569 q 51 626 65 593 q 43 667 46 642 q 47 817 35 769 q 153 900 69 883 q 162 901 156 900 q 171 901 168 901 q 225 903 192 903 q 282 896 260 903 q 294 892 288 894 q 307 886 301 889 q 346 863 328 879 q 379 797 372 842 q 382 736 382 783 q 297 571 382 601 q 269 564 288 567 q 113 569 182 549 m 160 817 q 124 775 129 806 q 122 690 122 765 q 164 639 122 646 q 239 642 207 636 q 244 642 242 642 q 250 643 247 643 l 251 643 q 296 694 289 647 q 301 738 299 703 q 290 797 308 775 q 268 814 279 810 q 160 817 224 828 z "},"±":{"ha":678,"x_min":28,"x_max":651,"o":"m 222 356 q 221 360 221 357 q 218 428 217 390 q 218 501 219 465 q 215 529 218 526 l 213 529 q 128 533 188 529 q 58 543 68 538 q 57 546 57 544 q 57 609 58 574 q 53 687 56 644 q 51 731 51 729 q 139 735 58 729 q 228 744 219 742 q 231 832 228 754 q 234 872 232 847 q 236 900 236 897 q 239 913 238 906 q 240 925 240 921 q 338 918 240 915 q 442 919 435 921 q 444 747 442 756 q 526 746 463 746 q 613 742 589 746 q 611 644 611 710 q 607 540 611 578 q 527 537 603 538 q 442 531 451 536 q 438 440 444 513 q 432 361 432 368 l 432 358 q 379 353 424 353 q 280 356 335 354 q 222 356 225 357 m 28 15 q 30 138 28 40 q 32 238 32 236 l 647 238 q 646 164 647 211 q 645 78 644 117 q 651 6 646 39 l 650 6 q 339 10 636 6 q 28 15 42 15 z "},"²":{"ha":356,"x_min":26,"x_max":321,"o":"m 308 467 l 68 463 l 39 463 l 39 465 q 40 517 40 482 q 44 576 40 551 q 61 621 49 600 q 133 676 86 647 q 196 717 181 706 q 217 769 221 733 q 186 807 214 804 q 138 731 138 807 l 138 729 q 44 726 92 724 l 44 728 q 76 874 26 819 q 161 910 100 903 q 257 900 222 917 q 318 794 311 874 q 321 738 321 758 q 288 673 318 697 q 215 629 257 649 q 157 590 174 610 q 150 551 142 556 q 228 552 179 551 q 306 553 278 553 q 310 493 313 536 q 311 467 310 469 l 308 467 z "},"³":{"ha":336,"x_min":29,"x_max":301,"o":"m 56 488 q 35 532 44 497 q 31 564 32 542 q 29 599 31 586 l 31 599 q 69 601 43 599 q 113 603 96 604 l 114 603 q 151 567 124 578 q 199 579 178 556 q 204 608 207 592 q 189 633 201 625 q 119 642 165 654 q 115 685 113 649 q 115 731 117 722 q 151 734 125 735 q 190 741 176 733 q 204 772 204 749 q 183 805 204 799 q 140 799 163 811 q 113 768 118 786 q 67 767 103 768 q 29 767 31 767 l 29 768 q 32 828 29 821 q 101 895 46 875 q 212 903 156 915 q 290 853 268 890 q 299 808 301 839 q 297 600 301 667 q 295 568 297 597 q 286 525 293 539 q 225 468 269 483 q 119 463 181 454 q 86 472 104 464 q 72 477 78 474 q 61 484 65 481 q 56 488 57 488 z "},"´":{"ha":354,"x_min":8,"x_max":336,"o":"m 240 961 l 336 864 l 335 863 q 292 825 326 854 q 229 769 258 796 q 194 729 200 742 q 89 727 149 725 q 8 735 29 729 q 115 842 26 751 q 240 961 203 932 z "},"µ":{"ha":606,"x_min":44,"x_max":582,"o":"m 235 6 q 238 -167 235 -128 q 240 -219 240 -207 q 145 -229 239 -232 q 44 -228 51 -226 q 46 288 44 268 q 49 485 46 338 q 50 692 53 633 q 224 697 88 697 q 226 542 226 656 q 229 375 226 429 q 231 355 229 369 q 233 332 232 340 q 235 310 233 324 q 240 288 238 296 q 245 269 242 279 q 253 251 249 258 q 264 240 258 244 q 267 239 264 239 q 269 238 268 239 q 316 227 289 228 q 371 247 343 226 q 401 313 399 267 q 397 504 404 364 q 400 690 389 644 q 488 694 446 696 q 575 699 531 693 q 578 357 575 669 q 576 3 582 44 q 520 -1 572 3 q 439 -5 468 -4 q 396 1 410 -6 q 393 44 393 19 q 393 75 393 68 q 348 33 378 49 q 297 14 318 18 q 235 6 276 10 z "},"¶":{"ha":942,"x_min":17,"x_max":913,"o":"m 551 1011 l 776 1014 l 908 1011 q 910 928 908 1004 q 913 821 913 853 q 774 811 901 803 q 767 -275 758 -133 q 672 -285 765 -287 q 571 -283 578 -282 q 584 281 583 -122 q 589 813 585 685 l 482 814 q 478 -275 467 -94 q 383 -285 476 -287 q 282 -283 289 -282 q 292 444 300 -74 q 140 456 188 429 q 46 572 93 483 q 42 896 17 707 q 110 988 58 965 q 152 1000 126 996 q 198 1006 178 1004 q 254 1008 218 1007 q 307 1010 290 1008 l 551 1011 z "},"·":{"ha":207,"x_min":39,"x_max":169,"o":"m 40 546 l 165 544 q 167 467 165 536 q 169 367 169 399 q 149 353 163 356 q 103 353 136 351 q 46 354 71 356 q 42 436 46 374 q 40 546 39 499 z "},"¸":{"ha":264,"x_min":24,"x_max":242,"o":"m 121 -6 l 242 -8 l 240 -8 l 175 -204 l 175 -206 q 24 -204 24 -206 q 68 -76 54 -118 q 94 0 82 -33 q 101 -1 97 0 q 107 -3 106 -3 l 121 -6 z "},"¹":{"ha":243,"x_min":8,"x_max":200,"o":"m 193 517 l 193 475 q 158 465 193 465 q 99 469 149 465 l 99 471 l 99 528 q 103 642 99 567 q 107 757 107 718 l 107 768 q 96 751 104 768 q 79 735 88 735 q 41 744 74 735 q 8 757 8 753 q 19 789 8 767 q 43 832 31 811 q 67 872 56 853 l 79 890 q 108 891 90 890 q 135 892 126 892 q 197 889 156 892 q 200 788 200 867 q 197 654 200 744 q 193 517 193 564 z "},"º":{"ha":353,"x_min":31,"x_max":322,"o":"m 69 842 q 75 849 69 843 q 171 899 118 897 q 265 862 228 901 q 313 765 303 822 q 317 692 318 726 q 285 534 322 607 q 168 465 247 461 q 125 472 150 465 q 54 540 69 494 q 39 656 39 585 q 69 842 31 783 m 161 567 q 183 565 172 561 q 208 594 200 571 q 215 654 213 610 q 199 789 225 753 q 161 799 185 807 q 140 782 149 797 q 132 738 135 774 q 136 604 124 656 q 140 593 138 601 q 144 581 143 585 q 150 573 146 578 q 161 567 154 568 z "},"»":{"ha":818,"x_min":36,"x_max":801,"o":"m 358 104 l 343 118 q 477 242 392 157 q 600 360 563 326 q 473 498 563 404 q 356 626 383 592 q 407 674 371 636 q 461 722 443 713 q 540 640 485 699 q 625 555 567 614 q 727 449 683 496 q 801 364 771 403 q 609 163 739 282 q 453 17 479 43 l 451 15 q 381 82 418 44 l 358 104 m 51 104 l 36 118 q 170 242 85 157 q 293 360 256 326 q 166 498 256 404 q 49 626 76 592 q 100 674 64 636 q 154 722 136 713 q 233 640 178 699 q 318 555 260 614 q 420 449 376 496 q 494 364 464 403 q 302 163 432 282 q 146 17 172 43 l 144 15 q 74 82 111 44 l 51 104 z "},"¼":{"ha":824,"x_min":19,"x_max":797,"o":"m 299 11 q 297 10 297 11 q 296 7 297 8 l 293 1 q 233 2 286 0 q 172 1 181 4 q 328 441 201 89 q 506 985 454 793 q 570 985 514 982 q 633 979 626 988 l 633 978 q 553 737 606 894 q 467 481 500 579 q 387 250 433 382 q 299 11 340 118 m 797 250 l 793 144 l 792 144 q 774 143 786 142 q 756 142 761 144 l 754 142 q 750 81 756 143 q 743 8 744 19 q 639 4 739 4 q 640 77 639 6 q 640 153 640 149 q 599 155 636 154 q 533 155 563 156 q 497 156 504 154 l 497 157 q 490 257 489 192 l 490 258 q 494 264 493 261 q 643 493 532 325 q 697 494 647 493 q 754 494 747 494 l 756 494 q 756 435 757 485 q 756 324 756 386 q 758 253 756 261 q 778 253 763 256 q 797 250 794 250 m 665 253 l 668 350 q 651 333 668 357 q 615 281 633 310 q 594 251 596 253 l 608 250 q 641 251 624 250 q 664 251 658 251 l 665 251 l 665 253 m 235 433 q 192 421 235 421 q 158 423 181 421 q 125 425 135 425 l 125 426 l 125 493 q 129 625 125 538 q 133 757 133 713 q 132 771 133 767 q 120 751 129 771 q 103 732 111 732 q 57 742 94 732 q 19 757 19 753 q 58 840 22 778 q 103 911 94 903 q 135 912 114 911 q 165 913 156 913 q 238 910 190 913 q 240 794 240 883 q 237 638 240 742 q 233 482 233 535 q 235 433 233 450 z "},"½":{"ha":828,"x_min":19,"x_max":803,"o":"m 299 11 q 297 10 297 11 q 296 7 297 8 l 293 1 q 233 2 286 0 q 172 1 181 4 q 328 441 201 89 q 506 985 454 793 q 570 985 514 982 q 633 979 626 988 l 633 978 q 553 737 606 894 q 467 481 500 579 q 387 250 433 382 q 299 11 340 118 m 790 6 l 526 3 l 494 3 l 494 4 q 496 49 496 21 q 497 96 496 78 q 503 137 497 114 q 518 176 508 160 q 597 238 543 206 q 667 283 651 271 q 692 340 696 300 q 654 382 688 379 q 603 299 603 382 l 603 297 q 500 293 525 290 l 499 293 l 499 294 q 533 456 481 397 q 627 496 558 489 q 732 485 696 503 q 800 368 793 453 q 801 306 803 326 q 765 235 799 261 q 686 187 732 208 q 622 143 640 165 q 615 103 607 108 q 708 103 651 101 q 786 104 765 104 q 792 38 792 92 q 793 7 792 10 q 790 6 793 6 m 235 433 q 192 421 235 421 q 158 423 181 421 q 125 425 135 425 l 125 426 l 125 493 q 129 625 125 538 q 133 757 133 713 q 132 771 133 767 q 120 751 129 771 q 103 732 111 732 q 57 742 94 732 q 19 757 19 753 q 58 840 22 778 q 103 911 94 903 q 135 912 114 911 q 165 913 156 913 q 238 910 190 913 q 240 794 240 883 q 237 638 240 742 q 233 482 233 535 q 235 433 233 450 z "},"¾":{"ha":863,"x_min":24,"x_max":836,"o":"m 338 11 q 336 10 336 11 q 335 7 336 8 l 332 1 q 272 2 325 0 q 211 1 219 4 q 367 441 240 89 q 544 985 493 793 q 609 985 553 982 q 672 979 665 988 l 672 978 q 592 737 644 894 q 506 481 539 579 q 426 250 472 382 q 338 11 379 118 m 836 250 l 832 144 l 831 144 q 813 143 825 142 q 794 142 800 144 l 793 142 q 789 81 794 143 q 782 8 783 19 q 678 4 778 4 q 678 77 678 6 q 679 153 679 149 q 638 155 675 154 q 572 155 601 156 q 536 156 543 154 l 536 157 q 529 257 528 192 l 529 258 q 533 264 532 261 q 682 493 571 325 q 736 494 686 493 q 793 494 786 494 l 794 494 q 795 435 796 485 q 794 324 794 386 q 797 253 794 261 q 817 253 801 256 q 836 250 833 250 m 704 253 l 707 350 q 690 333 707 357 q 653 281 672 310 q 633 251 635 253 l 647 250 q 680 251 663 250 q 703 251 697 251 l 704 251 l 704 253 m 53 450 q 31 500 32 475 q 26 534 28 511 q 24 571 25 557 q 25 572 24 572 q 69 576 39 572 q 115 578 99 579 l 117 578 q 157 537 126 549 q 210 551 188 525 q 216 582 218 564 q 199 611 214 600 q 122 621 174 629 q 117 649 117 632 q 118 688 117 667 q 119 717 119 708 q 157 720 128 719 q 201 729 186 721 q 215 764 217 738 q 194 799 215 793 q 148 792 172 806 q 115 760 124 779 q 65 759 106 760 q 24 758 25 758 l 24 760 q 26 824 24 815 q 102 899 42 876 q 224 907 163 921 q 310 853 286 893 q 319 803 322 833 q 318 572 322 649 q 307 492 315 510 q 238 428 289 444 q 124 422 190 415 q 86 432 111 424 q 69 439 76 435 q 58 447 63 443 q 53 450 54 450 z "},"¿":{"ha":624,"x_min":19,"x_max":608,"o":"m 433 579 l 431 526 q 376 361 413 414 q 341 308 367 343 q 296 244 315 274 q 262 184 276 215 q 258 128 247 153 q 307 90 268 103 q 356 84 335 75 q 386 108 376 93 q 410 142 396 122 q 439 167 424 161 q 496 169 479 169 q 552 166 513 168 q 608 164 592 164 l 608 163 q 526 -34 603 53 q 335 -126 449 -121 q 113 -58 206 -140 q 33 146 19 25 q 99 293 42 222 q 141 342 114 314 q 182 389 168 371 q 250 558 231 457 q 256 606 260 592 l 256 607 q 341 610 286 611 q 426 610 396 608 l 428 610 q 433 579 433 604 m 271 856 l 428 854 l 432 854 q 435 803 435 836 q 435 734 436 771 q 433 693 433 697 q 342 683 404 683 q 260 690 279 682 q 262 726 260 692 q 266 801 264 761 q 268 853 268 840 l 268 854 l 268 856 l 271 856 z "},"À":{"ha":642,"x_min":26,"x_max":628,"o":"m 96 1176 l 192 1274 q 317 1154 229 1244 q 424 1047 406 1064 q 342 1040 401 1042 q 238 1042 283 1038 q 201 1081 229 1054 q 139 1137 172 1107 q 97 1175 106 1167 l 96 1176 m 524 488 l 628 1 l 628 0 q 442 6 546 -17 l 440 6 q 410 117 431 32 q 375 232 389 203 q 330 235 368 238 q 289 233 292 233 q 261 121 278 207 q 228 1 244 35 l 226 0 q 224 0 225 0 q 194 -1 206 -1 q 133 1 183 0 q 29 1 82 1 q 26 3 28 1 q 239 972 103 521 q 267 974 258 975 q 317 974 276 972 q 410 979 357 975 q 442 849 419 949 q 491 634 465 749 q 524 488 517 519 m 382 397 q 331 688 349 685 q 317 661 324 689 q 279 397 313 646 l 382 397 z "},"Á":{"ha":643,"x_min":17,"x_max":618,"o":"m 426 1274 l 522 1176 l 521 1175 q 478 1138 513 1167 q 415 1081 444 1108 q 381 1042 386 1054 q 275 1040 335 1038 q 194 1047 215 1042 q 301 1154 213 1064 q 426 1274 389 1244 m 514 488 l 618 1 l 618 0 q 432 6 536 -17 l 431 6 q 400 117 421 32 q 365 232 379 203 q 320 235 358 238 q 279 233 282 233 q 251 121 268 207 q 218 1 235 35 q 214 0 217 1 q 185 -1 196 -1 q 123 1 174 0 q 19 1 72 1 q 17 3 18 1 q 229 972 93 521 q 258 974 249 975 q 307 974 267 972 q 400 979 347 975 q 433 849 410 949 q 481 634 456 749 q 514 488 507 519 m 372 397 q 321 688 339 685 q 307 661 314 689 q 269 397 303 646 q 301 397 283 397 q 340 397 318 397 q 372 397 361 397 z "},"Â":{"ha":644,"x_min":22,"x_max":624,"o":"m 324 1275 l 550 1050 q 526 1048 549 1051 q 470 1041 504 1044 q 390 1043 436 1038 q 354 1075 382 1043 q 319 1111 326 1107 q 283 1077 313 1108 q 247 1043 254 1046 q 99 1049 232 1042 q 151 1110 121 1078 q 201 1163 181 1143 q 265 1222 222 1183 q 324 1275 307 1260 m 519 488 l 624 1 l 624 0 q 438 6 542 -17 l 436 6 q 406 117 426 32 q 371 232 385 203 q 326 235 364 238 q 285 233 288 233 q 257 121 274 207 q 224 1 240 35 q 219 0 222 1 q 190 -1 201 -1 q 128 1 179 0 q 25 1 78 1 q 22 3 24 1 q 50 160 24 7 q 126 544 76 313 q 235 972 176 775 q 263 974 254 975 q 313 974 272 972 q 406 979 353 975 q 519 488 507 540 m 378 397 q 326 688 344 685 q 313 661 319 689 q 275 397 308 646 l 378 397 z "},"Ã":{"ha":663,"x_min":29,"x_max":631,"o":"m 210 1049 l 210 1047 q 115 1053 186 1053 q 47 1051 71 1053 q 131 1231 82 1175 q 221 1278 169 1269 q 318 1257 272 1286 q 353 1222 333 1247 q 383 1190 372 1197 q 448 1191 419 1160 q 490 1264 476 1222 q 604 1268 492 1264 l 606 1267 q 607 1265 606 1265 l 607 1264 q 580 1124 617 1193 q 475 1043 543 1054 q 390 1053 429 1035 q 333 1111 350 1071 q 285 1143 315 1142 q 214 1113 233 1143 l 210 1104 q 210 1049 201 1078 m 526 488 l 631 1 l 631 0 q 444 6 549 -17 l 443 6 q 413 117 433 32 q 378 232 392 203 q 333 235 371 238 q 292 233 294 233 q 264 121 281 207 q 231 1 247 35 l 229 0 q 226 0 228 0 q 197 -1 208 -1 q 135 1 186 0 q 32 1 85 1 q 29 3 31 1 q 57 160 31 7 q 133 544 83 313 q 242 972 183 775 q 270 974 261 975 q 319 974 279 972 q 413 979 360 975 q 445 849 422 949 q 494 634 468 749 q 526 488 519 519 m 385 397 q 333 688 351 685 q 319 661 326 689 q 282 397 315 646 l 385 397 z "},"Ä":{"ha":643,"x_min":22,"x_max":624,"o":"m 251 1053 l 117 1054 l 113 1054 q 109 1099 110 1071 q 110 1158 108 1126 q 111 1194 111 1190 q 190 1203 138 1203 q 263 1196 243 1204 l 261 1165 q 256 1101 258 1135 q 254 1056 254 1067 l 254 1054 l 254 1053 l 251 1053 m 493 1053 l 358 1054 l 354 1054 q 351 1099 351 1071 q 351 1158 350 1126 q 353 1194 353 1190 q 432 1203 379 1203 q 504 1196 485 1204 l 503 1165 q 498 1101 500 1135 q 496 1056 496 1067 l 496 1054 l 496 1053 l 493 1053 m 519 488 l 624 1 l 624 0 q 438 6 542 -17 l 436 6 q 406 117 426 32 q 371 232 385 203 q 326 235 364 238 q 285 233 288 233 q 257 121 274 207 q 224 1 240 35 q 219 0 222 1 q 190 -1 201 -1 q 128 1 179 0 q 25 1 78 1 q 22 3 24 1 q 50 160 24 7 q 126 544 76 313 q 235 972 176 775 q 263 974 254 975 q 313 974 272 972 q 406 979 353 975 q 519 488 507 540 m 378 397 q 326 688 344 685 q 313 661 319 689 q 275 397 308 646 l 378 397 z "},"Å":{"ha":644,"x_min":22,"x_max":624,"o":"m 422 1079 q 339 1046 403 1049 q 261 1044 313 1042 q 199 1085 214 1047 q 197 1243 181 1178 q 213 1271 200 1254 q 321 1299 251 1306 q 431 1258 404 1296 q 422 1079 457 1167 m 275 1229 q 254 1201 258 1218 q 251 1178 251 1182 q 265 1117 251 1131 q 300 1104 279 1104 l 314 1104 q 374 1125 365 1107 q 381 1188 382 1163 q 371 1218 379 1206 q 317 1238 351 1238 q 275 1229 294 1238 m 519 488 l 624 1 l 624 0 q 438 6 542 -17 l 436 6 q 406 117 426 32 q 371 232 385 203 q 326 235 364 238 q 285 233 288 233 q 257 121 274 207 q 224 1 240 35 q 219 0 222 1 q 190 -1 201 -1 q 128 1 179 0 q 25 1 78 1 q 22 3 24 1 q 50 160 24 7 q 126 544 76 313 q 235 972 176 775 q 263 974 254 975 q 313 974 272 972 q 406 979 353 975 q 519 488 507 540 m 378 397 q 326 688 344 685 q 313 661 319 689 q 275 397 308 646 l 378 397 z "},"Æ":{"ha":1049,"x_min":36,"x_max":1008,"o":"m 1003 190 l 1003 186 q 994 8 1008 93 l 992 6 q 811 3 932 6 q 597 1 690 1 q 422 7 503 1 q 403 80 417 29 q 383 160 389 131 l 383 161 q 349 163 364 161 q 288 164 333 164 l 285 164 q 283 161 285 163 q 239 4 246 33 q 238 3 239 3 q 235 1 236 3 q 177 3 217 1 q 106 3 138 4 q 44 0 74 3 q 40 -1 42 0 q 36 -1 39 -1 q 58 122 49 65 q 69 194 68 179 q 78 246 71 210 q 88 293 85 282 q 105 367 90 304 q 133 485 119 431 q 178 678 146 539 q 246 963 211 817 q 999 974 497 974 l 999 972 l 999 971 q 1001 909 1001 942 q 1000 836 1001 876 q 999 774 999 796 l 999 771 q 814 759 935 757 q 628 753 693 761 q 625 670 629 739 q 632 590 621 601 q 715 586 657 586 q 800 582 772 586 q 806 524 806 556 q 805 451 807 493 q 803 389 803 408 q 740 384 781 385 q 671 383 700 383 q 635 375 642 382 q 643 199 625 236 l 644 199 q 817 196 693 196 q 1003 190 942 196 m 386 399 q 360 501 381 433 q 338 581 340 568 l 336 585 q 304 485 311 515 q 292 394 297 456 l 293 394 l 294 394 q 343 394 306 399 q 386 399 381 390 z "},"Ç":{"ha":682,"x_min":31,"x_max":653,"o":"m 43 728 q 44 743 43 739 q 133 939 57 874 q 264 963 175 965 q 450 943 389 965 q 597 788 550 901 q 611 567 644 674 l 610 567 q 607 565 608 565 q 424 568 544 550 l 421 568 q 411 633 414 586 q 395 710 408 679 q 346 749 382 740 q 332 750 343 750 q 269 728 294 753 q 240 667 243 704 q 243 303 231 443 q 317 203 261 218 q 413 250 386 196 q 424 289 421 267 q 427 339 426 311 q 429 381 428 367 q 480 383 438 381 q 554 383 522 385 q 610 375 586 382 q 582 117 653 240 q 371 -14 511 -6 l 368 -14 l 367 -12 q 325 -174 338 -136 l 325 -176 q 261 -178 304 -175 q 201 -178 218 -181 q 200 -174 200 -178 q 216 -103 200 -165 q 236 -14 232 -42 l 236 -10 q 143 4 182 -17 q 83 66 104 25 q 51 153 61 107 q 39 256 40 200 l 39 269 q 43 728 31 540 z "},"È":{"ha":654,"x_min":44,"x_max":640,"o":"m 143 1176 l 239 1274 q 365 1154 276 1244 q 471 1047 453 1064 q 390 1040 449 1042 q 285 1042 331 1038 q 248 1081 276 1054 q 186 1137 219 1107 q 144 1175 153 1167 l 143 1176 m 632 189 l 632 186 q 621 4 640 74 q 439 2 556 4 q 226 0 322 0 q 51 7 131 0 q 48 308 51 113 q 44 659 44 503 q 53 957 44 815 q 421 968 215 965 q 628 965 626 971 q 632 903 632 936 q 630 831 632 871 q 628 768 628 790 l 628 767 q 448 753 561 751 q 264 750 335 754 l 260 750 l 258 749 q 255 665 258 739 q 260 586 251 592 l 261 585 l 432 581 l 432 579 q 437 485 439 574 q 435 386 435 396 q 342 378 407 378 q 267 371 276 378 q 267 197 256 311 l 268 196 q 438 191 315 196 q 632 189 561 186 z "},"É":{"ha":658,"x_min":39,"x_max":635,"o":"m 626 189 l 626 186 q 615 4 635 74 q 433 2 550 4 q 221 0 317 0 q 46 7 125 0 q 42 308 46 113 q 39 659 39 503 q 47 957 39 815 q 415 968 210 965 q 622 965 621 971 q 626 903 626 936 q 624 831 626 871 q 622 768 622 790 l 622 767 q 442 753 556 751 q 258 750 329 754 l 254 750 l 253 749 q 249 665 253 739 q 254 586 246 592 l 256 585 q 309 583 281 583 q 372 581 338 582 q 426 581 407 581 l 426 579 q 431 485 433 574 q 429 386 429 396 q 335 378 400 378 q 261 371 271 378 q 261 197 250 311 l 263 196 q 433 191 310 196 q 626 189 556 186 m 438 1274 l 533 1176 l 532 1175 q 490 1138 524 1167 q 426 1081 456 1108 q 392 1042 397 1054 q 286 1040 346 1038 q 206 1047 226 1042 q 312 1154 224 1064 q 438 1274 400 1244 z "},"Ê":{"ha":660,"x_min":43,"x_max":639,"o":"m 338 1275 l 564 1050 q 540 1048 563 1051 q 484 1041 518 1044 q 404 1043 450 1038 q 368 1075 396 1043 q 333 1111 340 1107 q 297 1077 326 1108 q 261 1043 268 1046 q 113 1049 246 1042 q 165 1110 135 1078 q 215 1163 194 1143 q 278 1222 236 1183 q 338 1275 321 1260 m 631 189 l 631 186 q 619 4 639 74 q 438 2 554 4 q 225 0 321 0 q 50 7 129 0 q 47 308 50 113 q 43 659 43 503 q 51 957 43 815 q 419 968 214 965 q 626 965 625 971 q 631 903 631 936 q 628 831 631 871 q 626 768 626 790 l 626 767 q 447 753 560 751 q 263 750 333 754 l 258 750 l 257 749 q 253 665 257 739 q 258 586 250 592 l 260 585 q 313 583 285 583 q 376 581 342 582 q 431 581 411 581 l 431 579 q 435 485 438 574 q 433 386 433 396 q 340 378 406 378 q 265 371 275 378 q 265 197 254 311 l 267 196 q 437 191 314 196 q 631 189 560 186 z "},"Ë":{"ha":664,"x_min":46,"x_max":642,"o":"m 633 189 l 633 186 q 622 4 642 74 q 440 2 557 4 q 228 0 324 0 q 53 7 132 0 q 49 308 53 113 q 46 659 46 503 q 54 957 46 815 q 422 968 217 965 q 629 965 628 971 q 633 903 633 936 q 631 831 633 871 q 629 768 629 790 l 629 767 q 449 753 563 751 q 265 750 336 754 l 261 750 l 260 749 q 256 665 260 739 q 261 586 253 592 l 263 585 q 316 583 288 583 q 379 581 344 582 q 433 581 414 581 l 433 579 q 438 485 440 574 q 436 386 436 396 q 343 378 408 378 q 268 371 278 378 q 268 197 257 311 l 269 196 q 440 191 317 196 q 633 189 563 186 m 279 1053 l 144 1054 l 140 1054 q 137 1099 138 1071 q 138 1158 136 1126 q 139 1194 139 1190 q 218 1203 165 1203 q 290 1196 271 1204 l 289 1165 q 284 1101 286 1135 q 282 1056 282 1067 l 282 1054 l 282 1053 l 279 1053 m 521 1053 l 386 1054 l 382 1054 q 378 1099 379 1071 q 379 1158 378 1126 q 381 1194 381 1190 q 460 1203 407 1203 q 532 1196 513 1204 l 531 1165 q 526 1101 528 1135 q 524 1056 524 1067 l 524 1054 l 524 1053 l 521 1053 z "},"Ì":{"ha":381,"x_min":17,"x_max":347,"o":"m 17 1176 l 113 1274 q 238 1154 150 1244 q 344 1047 326 1064 q 263 1040 322 1042 q 158 1042 204 1038 q 122 1081 150 1054 q 60 1137 93 1107 q 18 1175 26 1167 l 17 1176 m 314 976 l 347 976 l 347 971 q 343 649 347 863 q 338 326 339 436 q 346 7 338 215 q 223 -7 340 -11 q 93 -6 106 -3 q 96 497 106 154 q 104 981 86 839 l 104 983 q 133 983 110 985 q 161 981 157 981 q 314 976 276 976 z "},"Í":{"ha":418,"x_min":40,"x_max":403,"o":"m 268 976 l 301 976 l 301 971 q 297 649 301 863 q 292 326 293 436 q 300 7 292 215 q 177 -7 294 -11 q 47 -6 60 -3 q 50 497 60 154 q 58 981 40 839 l 58 983 q 88 983 64 985 q 115 981 111 981 q 268 976 231 976 m 307 1274 l 403 1176 l 401 1175 q 359 1138 393 1167 q 296 1081 325 1108 q 261 1042 267 1054 q 156 1040 215 1038 q 75 1047 96 1042 q 181 1154 93 1064 q 307 1274 269 1244 z "},"Î":{"ha":483,"x_min":19,"x_max":471,"o":"m 244 1275 l 471 1050 q 447 1048 469 1051 q 391 1041 425 1044 q 311 1043 357 1038 q 275 1075 303 1043 q 240 1111 247 1107 q 204 1077 233 1108 q 168 1043 175 1046 q 19 1049 153 1042 q 72 1110 42 1078 q 122 1163 101 1143 q 185 1222 143 1183 q 244 1275 228 1260 m 319 976 l 353 976 l 353 971 q 349 649 353 863 q 344 326 344 436 q 351 7 343 215 q 228 -7 346 -11 q 99 -6 111 -3 q 101 497 111 154 q 110 981 92 839 l 110 983 q 139 983 115 985 q 167 981 163 981 q 319 976 282 976 z "},"Ï":{"ha":439,"x_min":26,"x_max":422,"o":"m 303 976 l 336 976 l 336 971 q 332 649 336 863 q 327 326 328 436 q 335 7 326 215 q 212 -7 329 -11 q 82 -6 94 -3 q 85 497 94 154 q 93 981 75 839 l 93 983 q 122 983 99 985 q 150 981 146 981 q 303 976 265 976 m 169 1053 l 35 1054 l 31 1054 q 27 1099 28 1071 q 28 1158 26 1126 q 29 1194 29 1190 q 108 1203 56 1203 q 181 1196 161 1204 l 178 1165 q 174 1101 176 1135 q 172 1056 172 1067 l 172 1054 l 172 1053 l 169 1053 m 411 1053 l 276 1054 l 272 1054 q 269 1099 269 1071 q 269 1158 268 1126 q 271 1194 271 1190 q 350 1203 297 1203 q 422 1196 403 1204 l 419 1165 q 416 1101 418 1135 q 414 1056 414 1067 l 414 1054 l 414 1053 l 411 1053 z "},"Ð":{"ha":710,"x_min":28,"x_max":688,"o":"m 29 569 l 108 568 q 107 954 111 821 q 167 963 117 956 q 235 973 217 971 q 299 978 253 975 q 367 979 344 982 q 427 969 389 976 q 488 949 465 963 q 537 912 511 935 q 581 858 563 889 q 639 728 624 789 q 672 567 667 636 q 656 304 688 432 q 479 11 596 36 q 363 1 426 1 q 226 3 299 0 q 114 6 154 7 q 108 376 108 183 q 35 378 82 378 q 31 460 35 397 q 29 569 28 522 m 461 285 q 492 393 483 319 q 493 528 501 467 q 490 554 493 531 q 485 583 486 578 q 479 610 483 589 q 472 639 475 631 q 462 664 468 647 q 449 690 456 681 q 431 710 442 699 q 408 729 421 721 q 335 741 374 743 q 268 728 297 739 q 269 564 272 690 l 351 563 q 353 485 351 554 q 356 385 356 417 l 268 386 q 271 240 268 265 q 280 232 271 235 q 302 228 289 229 q 328 228 315 228 q 353 230 342 229 q 367 231 365 231 q 461 285 428 236 z "},"Ñ":{"ha":696,"x_min":47,"x_max":656,"o":"m 656 24 l 654 4 q 608 -10 649 -10 q 524 -6 567 -11 q 450 -7 482 -1 l 449 -7 q 282 408 394 111 q 275 0 267 200 q 274 -1 275 -1 q 167 -3 250 -12 q 54 0 83 6 q 53 1 53 0 q 51 305 54 111 q 49 663 47 499 q 61 965 50 828 q 158 973 101 976 q 264 956 215 969 l 264 954 q 295 888 267 938 q 372 758 324 838 q 433 658 421 679 q 435 798 442 690 q 436 967 428 906 l 436 971 q 562 980 496 981 q 653 975 628 979 l 651 531 q 653 276 653 453 q 656 24 653 100 m 239 1046 l 239 1044 q 144 1050 215 1050 q 76 1049 100 1050 q 160 1228 111 1172 q 250 1275 199 1267 q 347 1254 301 1283 q 382 1219 363 1244 q 413 1188 401 1194 q 477 1188 449 1157 q 519 1261 506 1219 q 633 1265 521 1261 l 635 1264 q 636 1263 635 1263 q 586 1086 653 1183 q 531 1047 561 1057 q 434 1045 488 1029 q 363 1108 381 1061 q 308 1140 343 1140 q 260 1128 292 1140 q 239 1101 244 1117 q 239 1046 231 1075 z "},"Ò":{"ha":656,"x_min":38,"x_max":633,"o":"m 89 1176 l 185 1274 q 310 1154 222 1244 q 417 1047 399 1064 q 335 1040 394 1042 q 231 1042 276 1038 q 194 1081 222 1054 q 132 1137 165 1107 q 90 1175 99 1167 l 89 1176 m 606 829 q 628 743 619 797 q 631 606 633 686 q 628 465 628 560 q 624 321 628 371 l 619 275 q 567 88 613 161 q 424 3 525 31 q 265 -11 354 -18 q 151 15 197 -6 q 82 86 104 36 q 49 240 51 139 q 44 345 47 268 q 39 462 40 422 q 38 563 38 501 q 42 676 39 625 q 115 914 44 832 q 147 939 132 931 q 354 979 238 985 q 549 914 471 974 q 606 829 589 878 m 457 490 l 454 585 l 453 597 q 450 631 451 611 q 449 664 449 650 q 376 782 442 750 q 268 763 322 804 q 203 667 219 724 q 190 439 183 575 q 199 353 192 426 q 217 243 206 279 q 313 182 243 188 q 426 225 383 176 q 444 254 439 242 q 451 274 450 267 q 452 306 451 282 q 454 351 453 329 q 455 385 454 367 q 456 413 456 403 q 457 424 457 422 l 457 490 z "},"Ó":{"ha":656,"x_min":29,"x_max":625,"o":"m 597 829 q 619 743 611 797 q 622 606 625 686 q 619 465 619 560 q 615 321 619 371 l 611 275 q 558 88 604 161 q 415 3 517 31 q 257 -11 346 -18 q 142 15 189 -6 q 74 86 96 36 q 40 240 43 139 q 35 345 39 268 q 31 462 32 422 q 30 563 29 501 q 33 676 31 625 q 107 914 36 832 q 139 939 124 931 q 346 979 229 985 q 540 914 463 974 q 597 829 581 878 m 449 490 l 446 585 l 444 597 q 442 631 443 611 q 440 664 440 650 q 368 782 433 750 q 260 763 314 804 q 194 667 211 724 q 182 439 175 575 q 190 353 183 426 q 208 243 197 279 q 305 182 235 188 q 418 225 375 176 q 436 254 431 242 q 442 274 442 267 q 444 306 443 282 q 446 351 444 329 q 447 385 446 367 q 448 413 447 403 q 449 424 449 422 l 449 490 m 451 1274 l 547 1176 l 546 1175 q 503 1138 538 1167 q 440 1081 469 1108 q 406 1042 411 1054 q 300 1040 360 1038 q 219 1047 240 1042 q 326 1154 238 1064 q 451 1274 414 1244 z "},"Ô":{"ha":658,"x_min":33,"x_max":629,"o":"m 338 1275 l 564 1050 q 540 1048 563 1051 q 484 1041 518 1044 q 404 1043 450 1038 q 368 1075 396 1043 q 333 1111 340 1107 q 297 1077 326 1108 q 261 1043 268 1046 q 113 1049 246 1042 q 165 1110 135 1078 q 215 1163 194 1143 q 278 1222 236 1183 q 338 1275 321 1260 m 601 829 q 624 743 615 797 q 626 606 629 686 q 624 465 624 560 q 619 321 624 371 l 615 275 q 563 88 608 161 q 419 3 521 31 q 261 -11 350 -18 q 147 15 193 -6 q 78 86 100 36 q 44 240 47 139 q 40 345 43 268 q 35 462 36 422 q 34 563 33 501 q 38 676 35 625 q 111 914 40 832 q 143 939 128 931 q 350 979 233 985 q 544 914 467 974 q 601 829 585 878 m 453 490 l 450 585 l 449 597 q 446 631 447 611 q 444 664 444 650 q 372 782 438 750 q 264 763 318 804 q 199 667 215 724 q 186 439 179 575 q 194 353 188 426 q 213 243 201 279 q 309 182 239 188 q 422 225 379 176 q 440 254 435 242 q 447 274 446 267 q 448 306 447 282 q 450 351 449 329 q 451 385 450 367 q 452 413 451 403 q 453 424 453 422 l 453 490 z "},"Õ":{"ha":669,"x_min":39,"x_max":635,"o":"m 607 829 q 629 743 621 797 q 632 606 635 686 q 629 465 629 560 q 625 321 629 371 l 621 275 q 568 88 614 161 q 425 3 526 31 q 267 -11 356 -18 q 152 15 199 -6 q 83 86 106 36 q 50 240 53 139 q 45 345 49 268 q 40 462 42 422 q 40 563 39 501 q 43 676 40 625 q 117 914 46 832 q 149 939 133 931 q 356 979 239 985 q 550 914 472 974 q 607 829 590 878 m 458 490 l 456 585 l 454 597 q 451 631 453 611 q 450 664 450 650 q 378 782 443 750 q 269 763 324 804 q 204 667 221 724 q 192 439 185 575 q 200 353 193 426 q 218 243 207 279 q 315 182 244 188 q 428 225 385 176 q 446 254 440 242 q 452 274 451 267 q 453 306 453 282 q 456 351 454 329 q 456 385 456 367 q 458 413 457 403 q 458 424 458 422 l 458 490 m 217 1033 l 217 1032 q 122 1038 193 1038 q 54 1036 78 1038 q 138 1215 89 1160 q 228 1263 176 1254 q 325 1242 279 1271 q 360 1207 340 1232 q 390 1175 379 1182 q 455 1176 426 1144 q 497 1249 483 1207 q 611 1253 499 1249 l 613 1251 q 614 1250 613 1250 q 564 1074 631 1171 q 508 1035 539 1044 q 412 1033 465 1017 q 340 1096 358 1049 q 286 1128 321 1128 q 238 1115 269 1128 q 217 1089 222 1104 q 217 1033 208 1063 z "},"Ö":{"ha":663,"x_min":36,"x_max":632,"o":"m 604 829 q 626 743 618 797 q 629 606 632 686 q 626 465 626 560 q 622 321 626 371 l 618 275 q 565 88 611 161 q 422 3 524 31 q 264 -11 353 -18 q 149 15 196 -6 q 81 86 103 36 q 47 240 50 139 q 42 345 46 268 q 38 462 39 422 q 37 563 36 501 q 40 676 38 625 q 114 914 43 832 q 146 939 131 931 q 353 979 236 985 q 547 914 469 974 q 604 829 588 878 m 456 490 l 453 585 l 451 597 q 449 631 450 611 q 447 664 447 650 q 375 782 440 750 q 267 763 321 804 q 201 667 218 724 q 189 439 182 575 q 197 353 190 426 q 215 243 204 279 q 312 182 242 188 q 425 225 382 176 q 443 254 438 242 q 449 274 449 267 q 451 306 450 282 q 453 351 451 329 q 453 385 453 367 q 455 413 454 403 q 456 424 456 422 l 456 490 m 283 1053 l 149 1054 l 144 1054 q 141 1099 142 1071 q 142 1158 140 1126 q 143 1194 143 1190 q 222 1203 169 1203 q 294 1196 275 1204 l 292 1165 q 288 1101 290 1135 q 286 1056 286 1067 l 286 1054 l 286 1053 l 283 1053 m 525 1053 l 390 1054 l 386 1054 q 383 1099 383 1071 q 383 1158 382 1126 q 385 1194 385 1190 q 464 1203 411 1203 q 536 1196 517 1204 l 533 1165 q 530 1101 532 1135 q 528 1056 528 1067 l 528 1054 l 528 1053 l 525 1053 z "},"×":{"ha":1071,"x_min":43,"x_max":949,"o":"m 43 1008 l 942 1006 q 949 18 942 172 q 947 13 947 17 q 917 -5 947 0 q 678 -9 886 -10 q 50 3 469 -8 q 56 343 58 226 q 49 669 54 460 q 43 1008 43 878 m 340 517 q 319 588 333 538 q 294 669 304 639 q 258 760 285 699 q 192 893 231 821 q 188 140 188 678 q 295 392 258 288 q 340 517 332 497 m 632 514 q 713 317 640 454 q 799 149 786 179 q 801 378 801 246 q 800 666 801 510 q 799 886 799 822 q 716 720 792 868 q 632 514 640 572 m 482 569 q 543 700 486 582 q 624 890 600 818 q 490 890 592 890 q 357 889 389 889 q 428 696 376 819 q 482 569 481 572 m 629 143 l 481 456 q 417 312 474 439 q 346 135 361 185 q 508 134 414 131 q 629 143 603 138 z "},"Ø":{"ha":669,"x_min":28,"x_max":635,"o":"m 628 603 q 628 521 628 586 q 626 429 628 456 q 623 352 625 403 q 616 262 621 301 q 604 182 611 222 q 534 59 588 107 q 404 4 481 11 q 326 1 379 1 q 251 -3 274 0 l 250 -3 l 249 -3 q 231 -24 249 -11 l 229 -25 l 231 -25 q 147 -28 211 -29 q 47 -29 82 -28 q 83 93 42 -21 q 84 94 83 94 q 85 96 85 94 q 84 97 85 97 q 83 99 83 97 q 47 646 28 319 q 51 709 49 663 q 58 787 53 756 q 78 846 64 818 q 133 928 101 896 l 138 932 q 388 974 211 989 q 392 990 390 975 q 401 1004 393 1004 l 403 1004 q 470 1003 436 1000 q 540 1005 504 1006 q 590 994 576 1004 q 576 944 590 976 q 565 896 563 913 q 624 770 613 842 q 628 603 635 699 m 197 388 q 258 571 213 435 q 326 781 304 707 l 326 782 l 325 782 l 315 782 q 260 758 288 779 q 221 708 232 736 q 212 621 215 679 q 204 532 208 563 q 201 516 203 526 q 200 500 200 506 q 197 388 189 414 m 449 543 l 449 549 q 319 182 433 507 l 321 181 l 322 181 q 397 208 360 188 q 443 260 433 228 q 457 368 456 314 q 453 476 458 422 q 449 543 449 529 z "},"Ù":{"ha":668,"x_min":33,"x_max":651,"o":"m 114 1176 l 210 1274 q 335 1154 247 1244 q 442 1047 424 1064 q 360 1040 419 1042 q 256 1042 301 1038 q 219 1081 247 1054 q 157 1137 190 1107 q 115 1175 124 1167 l 114 1176 m 633 931 l 633 929 q 617 210 651 529 q 545 53 604 115 q 389 -19 486 -10 q 228 -8 307 -28 q 93 68 150 13 q 33 204 36 124 q 38 549 33 293 q 39 943 42 804 l 38 944 l 39 944 q 97 946 49 944 q 178 946 146 947 q 235 938 210 944 l 235 936 q 247 254 219 600 q 298 197 260 211 q 373 202 336 183 q 418 261 410 221 q 426 624 424 388 q 431 933 429 860 q 465 937 438 933 q 511 942 492 940 q 556 944 531 943 q 601 941 582 944 q 633 931 621 938 z "},"Ú":{"ha":669,"x_min":26,"x_max":644,"o":"m 626 931 l 626 929 q 610 210 644 529 q 538 53 597 115 q 382 -19 479 -10 q 222 -8 300 -28 q 86 68 143 13 q 26 204 29 124 q 31 549 26 293 q 32 943 35 804 l 31 944 l 32 944 q 90 946 42 944 q 171 946 139 947 q 228 938 203 944 l 228 936 q 240 254 213 600 q 291 197 253 211 q 366 202 329 183 q 411 261 403 221 q 419 624 417 388 q 424 933 422 860 q 458 937 431 933 q 504 942 485 940 q 549 944 524 943 q 594 941 575 944 q 626 931 614 938 m 461 1274 l 557 1176 l 556 1175 q 513 1138 547 1167 q 450 1081 479 1108 q 415 1042 421 1054 q 310 1040 369 1038 q 229 1047 250 1042 q 335 1154 247 1064 q 461 1274 424 1244 z "},"Û":{"ha":672,"x_min":32,"x_max":650,"o":"m 325 1275 l 551 1050 q 528 1048 550 1051 q 472 1041 506 1044 q 392 1043 438 1038 q 356 1075 383 1043 q 321 1111 328 1107 q 285 1077 314 1108 q 249 1043 256 1046 q 100 1049 233 1042 q 152 1110 122 1078 q 203 1163 182 1143 q 266 1222 224 1183 q 325 1275 308 1260 m 632 931 l 632 929 q 615 210 650 529 q 544 53 603 115 q 388 -19 485 -10 q 227 -8 306 -28 q 92 68 149 13 q 32 204 35 124 q 36 549 32 293 q 38 943 40 804 l 36 944 l 38 944 q 96 946 47 944 q 176 946 144 947 q 233 938 208 944 l 233 936 q 246 254 218 600 q 297 197 258 211 q 372 202 335 183 q 417 261 408 221 q 425 624 422 388 q 429 933 428 860 q 463 937 436 933 q 510 942 490 940 q 555 944 529 943 q 600 941 581 944 q 632 931 619 938 z "},"Ü":{"ha":675,"x_min":33,"x_max":651,"o":"m 276 1053 l 142 1054 l 138 1054 q 134 1099 135 1071 q 135 1158 133 1126 q 136 1194 136 1190 q 215 1203 163 1203 q 288 1196 268 1204 l 286 1165 q 281 1101 283 1135 q 279 1056 279 1067 l 279 1054 l 279 1053 l 276 1053 m 518 1053 l 383 1054 l 379 1054 q 376 1099 376 1071 q 376 1158 375 1126 q 378 1194 378 1190 q 457 1203 404 1203 q 529 1196 510 1204 l 528 1165 q 523 1101 525 1135 q 521 1056 521 1067 l 521 1054 l 521 1053 l 518 1053 m 633 931 l 633 929 q 617 210 651 529 q 545 53 604 115 q 389 -19 486 -10 q 228 -8 307 -28 q 93 68 150 13 q 33 204 36 124 q 38 549 33 293 q 39 943 42 804 l 38 944 l 39 944 q 97 946 49 944 q 178 946 146 947 q 235 938 210 944 l 235 936 q 247 254 219 600 q 298 197 260 211 q 373 202 336 183 q 418 261 410 221 q 426 624 424 388 q 431 933 429 860 q 465 937 438 933 q 511 942 492 940 q 556 944 531 943 q 601 941 582 944 q 633 931 621 938 z "},"Ý":{"ha":632,"x_min":17,"x_max":624,"o":"m 624 957 l 624 956 q 419 468 569 783 q 217 -1 269 153 q 122 -1 192 1 q 19 -3 51 -4 l 17 -3 q 197 475 40 72 l 197 478 q 110 717 178 558 q 24 956 43 876 q 88 960 40 956 q 172 963 135 964 q 235 953 210 963 q 317 713 272 804 q 426 950 357 785 q 429 951 428 950 q 624 957 563 969 m 440 1274 l 536 1176 l 535 1175 q 492 1138 526 1167 q 429 1081 458 1108 q 394 1042 400 1054 q 289 1040 349 1038 q 208 1047 229 1042 q 315 1154 226 1064 q 440 1274 403 1244 z "},"Þ":{"ha":646,"x_min":49,"x_max":633,"o":"m 251 260 q 251 152 251 200 q 249 81 250 104 q 247 42 247 58 q 247 19 246 25 q 249 6 247 13 q 151 -6 238 -7 q 49 -6 64 -4 q 56 522 63 208 q 58 1014 50 835 l 247 1010 q 249 944 247 982 q 250 814 250 906 q 288 859 263 844 q 335 876 314 874 q 400 878 357 878 q 566 785 499 875 q 633 557 633 694 q 613 394 633 475 q 544 249 593 313 q 429 185 496 185 q 334 206 383 185 q 251 260 285 226 m 454 603 q 413 666 446 640 q 325 692 379 692 q 262 671 271 692 q 253 547 253 650 q 253 531 253 542 q 253 478 253 494 q 258 438 254 461 q 272 404 263 414 q 297 387 281 394 q 339 379 314 379 q 429 422 396 379 q 463 529 463 465 q 454 603 463 575 z "},"ß":{"ha":628,"x_min":15,"x_max":608,"o":"m 300 493 q 349 592 310 556 q 390 708 417 657 q 322 760 369 749 q 194 756 232 776 q 192 714 194 742 q 189 672 189 686 q 190 565 188 649 q 194 460 194 499 q 196 381 194 438 q 199 297 197 324 q 201 131 199 294 q 189 0 204 -3 q 53 1 86 0 q 22 4 29 1 q 18 483 15 136 q 18 961 21 829 l 19 963 q 163 990 90 982 q 309 988 235 997 q 441 949 383 978 q 535 857 499 919 q 571 706 571 794 q 503 489 571 603 q 510 460 496 476 q 535 428 531 435 q 558 399 540 422 q 579 365 575 375 q 594 331 583 354 q 606 291 604 308 q 608 250 608 274 q 604 201 608 226 q 486 32 583 79 q 399 1 439 8 q 288 0 358 -6 q 283 169 271 60 q 328 197 290 194 q 381 242 369 204 q 381 320 393 279 q 344 383 368 361 q 300 493 296 433 z "},"à":{"ha":649,"x_min":25,"x_max":615,"o":"m 608 692 q 611 658 611 669 l 611 644 q 612 349 608 564 q 608 56 615 135 q 608 47 608 53 q 608 37 608 40 q 608 28 608 33 q 608 20 608 24 q 606 13 607 17 q 602 6 604 8 q 597 1 600 3 q 590 -1 594 0 l 574 -1 q 528 1 558 -1 q 483 3 497 3 q 453 1 472 3 q 424 -1 433 -1 q 407 29 407 4 q 410 55 407 40 q 413 78 413 69 q 327 20 378 43 q 229 -3 276 -3 q 114 61 163 -3 q 45 206 65 125 q 25 369 25 288 q 92 597 25 507 q 258 690 160 688 q 322 688 301 690 q 365 672 342 686 q 400 626 388 657 q 402 666 399 643 q 406 697 406 689 q 472 699 406 699 q 608 692 569 694 m 204 415 q 196 342 196 388 q 229 235 196 278 q 319 192 263 192 q 361 199 344 192 q 387 217 378 207 q 400 250 396 226 q 405 290 404 274 q 406 343 406 306 q 406 360 406 354 q 397 482 406 465 q 333 504 385 504 q 246 478 279 504 q 204 415 213 453 m 157 950 l 253 1047 q 378 928 290 1018 q 485 821 467 838 q 403 813 463 815 q 299 815 344 811 q 262 854 290 828 q 200 910 233 881 q 158 949 167 940 l 157 950 z "},"á":{"ha":650,"x_min":18,"x_max":608,"o":"m 601 692 q 604 658 604 669 l 604 644 q 605 349 601 564 q 601 56 608 135 q 601 47 601 53 q 601 37 601 40 q 601 28 601 33 q 601 20 601 24 q 599 13 600 17 q 595 6 597 8 q 590 1 593 3 q 583 -1 588 0 l 567 -1 q 522 1 553 -1 q 476 3 492 3 q 447 1 467 3 q 417 -1 428 -1 q 400 29 400 4 q 403 55 400 40 q 406 78 406 69 q 320 20 371 43 q 222 -3 269 -3 q 107 61 156 -3 q 38 206 58 125 q 18 369 18 288 q 85 597 18 507 q 251 690 153 688 q 315 688 294 690 q 358 672 335 686 q 393 626 381 657 q 395 666 392 643 q 399 697 399 689 q 465 699 399 699 q 601 692 563 694 m 197 415 q 189 342 189 388 q 222 235 189 278 q 313 192 256 192 q 354 199 338 192 q 380 217 371 207 q 393 250 389 226 q 398 290 397 274 q 399 343 399 306 q 399 360 399 354 q 390 482 399 465 q 326 504 378 504 q 239 478 272 504 q 197 415 206 453 m 444 1047 l 540 950 l 539 949 q 497 911 531 940 q 433 855 463 882 q 399 815 404 828 q 293 813 353 811 q 213 821 233 815 q 319 928 231 838 q 444 1047 407 1018 z "},"â":{"ha":653,"x_min":24,"x_max":614,"o":"m 347 1051 l 574 826 q 550 824 572 828 q 494 817 528 821 q 414 819 460 814 q 378 851 406 819 q 343 888 350 883 q 307 853 336 885 q 271 819 278 822 q 122 825 256 818 q 174 887 144 854 q 225 940 204 919 q 288 998 246 960 q 347 1051 331 1036 m 607 692 q 610 658 610 669 l 610 644 q 610 349 607 564 q 607 56 614 135 q 607 47 607 53 q 607 37 607 40 q 607 28 607 33 q 606 20 607 24 q 604 13 606 17 q 601 6 603 8 q 596 1 599 3 q 589 -1 593 0 l 572 -1 q 528 1 558 -1 q 482 3 497 3 q 453 1 472 3 q 422 -1 433 -1 q 406 29 406 4 q 408 55 406 40 q 411 78 411 69 q 326 20 376 43 q 228 -3 275 -3 q 113 61 161 -3 q 44 206 64 125 q 24 369 24 288 q 91 597 24 507 q 257 690 158 688 q 320 688 300 690 q 363 672 340 686 q 399 626 386 657 q 401 666 397 643 q 404 697 404 689 q 471 699 404 699 q 607 692 568 694 m 203 415 q 194 342 194 388 q 228 235 194 278 q 318 192 261 192 q 360 199 343 192 q 385 217 376 207 q 399 250 394 226 q 403 290 403 274 q 404 343 404 306 q 404 360 404 354 q 396 482 404 465 q 332 504 383 504 q 244 478 278 504 q 203 415 211 453 z "},"ã":{"ha":676,"x_min":29,"x_max":638,"o":"m 613 692 q 615 658 615 669 l 615 644 q 616 349 613 564 q 613 56 619 135 q 613 47 613 53 q 613 37 613 40 q 613 28 613 33 q 612 20 613 24 q 610 13 611 17 q 606 6 608 8 q 601 1 604 3 q 594 -1 599 0 l 578 -1 q 533 1 564 -1 q 488 3 503 3 q 458 1 478 3 q 428 -1 438 -1 q 411 29 411 4 q 414 55 411 40 q 417 78 417 69 q 331 20 382 43 q 233 -3 281 -3 q 118 61 167 -3 q 49 206 69 125 q 29 369 29 288 q 97 597 29 507 q 263 690 164 688 q 326 688 306 690 q 369 672 346 686 q 404 626 392 657 q 406 666 403 643 q 410 697 410 689 q 476 699 410 699 q 613 692 574 694 m 208 415 q 200 342 200 388 q 233 235 200 278 q 324 192 267 192 q 365 199 349 192 q 391 217 382 207 q 404 250 400 226 q 409 290 408 274 q 410 343 410 306 q 410 360 410 354 q 401 482 410 465 q 338 504 389 504 q 250 478 283 504 q 208 415 217 453 m 231 819 l 231 818 q 136 824 207 824 q 68 822 92 824 q 151 1001 103 946 q 242 1049 190 1040 q 339 1028 293 1057 q 374 993 354 1018 q 404 961 393 968 q 469 962 440 931 q 511 1035 497 993 q 625 1039 513 1035 l 626 1038 q 628 1036 626 1036 l 628 1035 q 601 894 638 964 q 496 814 564 825 q 410 824 450 806 q 354 882 371 842 q 306 914 336 913 q 235 883 254 914 l 231 875 q 231 819 222 849 z "},"ä":{"ha":667,"x_min":28,"x_max":618,"o":"m 611 692 q 614 658 614 669 l 614 644 q 615 349 611 564 q 611 56 618 135 q 611 47 611 53 q 611 37 611 40 q 611 28 611 33 q 610 20 611 24 q 608 13 610 17 q 605 6 607 8 q 600 1 603 3 q 593 -1 597 0 l 576 -1 q 531 1 561 -1 q 486 3 500 3 q 456 1 475 3 q 426 -1 436 -1 q 410 29 410 4 q 413 55 410 40 q 415 78 415 69 q 330 20 381 43 q 232 -3 279 -3 q 117 61 165 -3 q 48 206 68 125 q 28 369 28 288 q 95 597 28 507 q 261 690 163 688 q 324 688 304 690 q 367 672 344 686 q 403 626 390 657 q 405 666 401 643 q 408 697 408 689 q 475 699 408 699 q 611 692 572 694 m 207 415 q 199 342 199 388 q 232 235 199 278 q 322 192 265 192 q 364 199 347 192 q 390 217 381 207 q 403 250 399 226 q 408 290 407 274 q 408 343 408 306 q 408 360 408 354 q 400 482 408 465 q 336 504 388 504 q 249 478 282 504 q 207 415 215 453 m 161 1056 l 350 1051 q 352 974 350 1043 q 354 874 354 906 q 318 861 347 863 q 240 863 289 860 q 167 864 192 865 q 163 946 167 883 q 161 1056 160 1008 m 417 1056 l 606 1051 q 608 974 606 1043 q 610 874 610 906 q 574 861 603 863 q 496 863 544 860 q 422 864 447 865 q 419 946 422 883 q 417 1056 415 1008 z "},"å":{"ha":653,"x_min":24,"x_max":614,"o":"m 451 825 q 368 792 432 794 q 290 790 342 788 q 228 831 243 793 q 226 989 210 924 q 242 1017 229 1000 q 350 1044 281 1051 q 460 1004 433 1042 q 451 825 486 913 m 304 975 q 283 947 288 964 q 281 924 281 928 q 294 863 281 876 q 329 850 308 850 l 343 850 q 403 871 394 853 q 410 933 411 908 q 400 964 408 951 q 346 983 381 983 q 304 975 322 983 m 607 692 q 610 658 610 669 l 610 644 q 610 349 607 564 q 607 56 614 135 q 607 47 607 53 q 607 37 607 40 q 607 28 607 33 q 606 20 607 24 q 604 13 606 17 q 601 6 603 8 q 596 1 599 3 q 589 -1 593 0 l 572 -1 q 528 1 558 -1 q 482 3 497 3 q 453 1 472 3 q 422 -1 433 -1 q 406 29 406 4 q 408 55 406 40 q 411 78 411 69 q 326 20 376 43 q 228 -3 275 -3 q 113 61 161 -3 q 44 206 64 125 q 24 369 24 288 q 91 597 24 507 q 257 690 158 688 q 320 688 300 690 q 363 672 340 686 q 399 626 386 657 q 401 666 397 643 q 404 697 404 689 q 471 699 404 699 q 607 692 568 694 m 203 415 q 194 342 194 388 q 228 235 194 278 q 318 192 261 192 q 360 199 343 192 q 385 217 376 207 q 399 250 394 226 q 403 290 403 274 q 404 343 404 306 q 404 360 404 354 q 396 482 404 465 q 332 504 383 504 q 244 478 278 504 q 203 415 211 453 z "},"æ":{"ha":1088,"x_min":117,"x_max":1075,"o":"m 701 346 l 701 322 q 701 306 701 318 q 702 290 701 293 q 703 276 703 286 q 703 263 703 267 q 706 251 704 260 q 708 240 707 243 q 712 230 710 236 q 717 219 714 224 q 722 208 719 214 q 785 157 744 169 q 857 173 825 144 q 886 268 889 201 q 968 269 899 267 q 1050 265 1038 272 q 1047 235 1049 256 q 1045 206 1046 215 q 1043 178 1044 196 q 1040 149 1042 160 q 1037 125 1039 139 q 1033 103 1035 111 q 1028 85 1031 94 q 1022 69 1025 75 q 1014 60 1018 64 q 952 17 993 31 q 882 1 911 3 q 789 1 853 -1 q 713 4 725 4 q 589 82 635 18 q 517 29 544 46 q 383 -11 454 -7 q 255 10 311 -15 q 158 80 199 35 q 117 188 118 125 q 156 324 117 251 q 313 402 199 390 q 493 372 426 414 q 492 433 490 413 q 492 467 493 454 q 489 488 492 479 q 437 549 478 535 q 358 539 396 563 q 321 471 321 515 q 149 472 192 450 q 192 602 139 550 q 323 669 246 654 q 478 674 400 685 q 596 626 557 663 q 724 685 647 671 q 878 681 801 700 q 1053 357 1075 646 q 884 343 1024 349 q 701 346 744 338 m 339 135 q 455 152 419 121 q 484 223 490 183 q 453 278 478 263 q 293 268 356 324 q 272 236 281 256 q 265 196 264 217 q 284 158 265 175 q 339 135 303 140 m 861 549 q 815 561 833 561 q 735 539 758 561 q 706 476 713 517 q 710 449 701 453 q 829 447 718 447 q 890 444 858 447 q 909 445 907 444 q 911 456 911 446 q 911 463 911 460 q 861 549 911 525 z "},"ç":{"ha":635,"x_min":51,"x_max":610,"o":"m 410 -17 q 377 -110 404 -35 q 346 -204 350 -186 l 346 -206 q 194 -204 194 -206 q 261 -14 228 -115 l 243 -12 q 124 49 172 0 q 72 131 89 79 q 56 236 56 183 q 55 347 56 289 q 51 449 54 406 q 60 549 51 499 q 82 631 61 561 q 159 691 100 671 q 290 711 218 711 q 344 710 308 710 q 399 710 379 711 q 553 651 500 703 q 568 638 561 646 q 581 619 575 631 q 590 598 586 607 q 596 572 593 589 q 600 544 599 554 q 603 512 601 535 q 605 478 604 489 q 606 440 606 468 q 607 401 607 413 q 431 408 557 390 q 390 485 424 460 q 303 497 356 510 q 256 467 274 489 q 243 439 247 460 q 238 344 239 407 q 235 258 236 282 q 263 198 232 218 q 333 179 294 178 q 394 196 372 181 q 428 269 414 210 q 515 271 440 268 q 604 267 590 274 q 565 49 590 74 q 410 -17 525 -10 m 608 -122 l 610 -125 q 608 -124 608 -125 l 608 -122 z "},"è":{"ha":619,"x_min":25,"x_max":613,"o":"m 129 950 l 225 1047 q 351 928 263 1018 q 457 821 439 838 q 376 813 435 815 q 271 815 317 811 q 234 854 263 828 q 172 910 206 881 q 131 949 139 940 l 129 950 m 218 349 l 218 324 q 218 306 218 319 q 219 290 218 293 q 219 276 219 286 q 220 262 219 265 q 222 250 221 258 q 225 238 224 242 q 228 227 226 233 q 233 215 231 221 q 239 204 236 210 q 304 148 261 161 q 381 166 347 135 q 413 267 415 197 q 499 268 425 265 q 588 264 572 271 q 549 47 574 68 q 503 7 531 22 q 438 -12 475 -8 q 371 -17 400 -17 q 295 -16 342 -18 q 229 -14 249 -14 q 157 11 190 -8 q 56 166 88 60 q 31 394 25 272 q 61 588 42 535 q 198 699 96 667 q 404 704 300 731 q 590 360 613 669 q 412 346 560 351 q 218 349 264 340 m 386 564 q 338 578 364 578 q 253 554 278 578 q 222 488 228 531 q 228 460 218 463 q 353 457 236 457 q 413 456 381 457 q 437 456 433 454 q 440 468 440 457 q 440 474 440 471 q 386 564 440 536 z "},"é":{"ha":622,"x_min":18,"x_max":606,"o":"m 426 1047 l 522 950 l 521 949 q 478 911 513 940 q 415 855 444 882 q 381 815 386 828 q 275 813 335 811 q 194 821 215 815 q 301 928 213 838 q 426 1047 389 1018 m 211 349 l 211 324 q 211 306 211 319 q 212 290 211 293 q 213 276 213 286 q 213 262 213 265 q 215 250 214 258 q 218 238 217 242 q 222 227 219 233 q 226 215 224 221 q 232 204 229 210 q 297 148 254 161 q 374 166 340 135 q 406 267 408 197 q 492 268 418 265 q 581 264 565 271 q 542 47 567 68 q 496 7 524 22 q 431 -12 468 -8 q 364 -17 393 -17 q 288 -16 335 -18 q 222 -14 242 -14 q 150 11 183 -8 q 49 166 81 60 q 24 394 18 272 q 54 588 35 535 q 191 699 89 667 q 397 704 293 731 q 583 360 606 669 q 405 346 551 351 q 211 349 258 340 m 379 564 q 331 578 357 578 q 246 554 271 578 q 215 488 221 531 q 221 460 211 463 q 346 457 229 457 q 406 456 374 457 q 430 456 426 454 q 433 468 433 457 q 433 474 433 471 q 379 564 433 536 z "},"ê":{"ha":624,"x_min":24,"x_max":611,"o":"m 325 1051 l 551 826 q 528 824 550 828 q 472 817 506 821 q 392 819 438 814 q 356 851 383 819 q 321 888 328 883 q 285 853 314 885 q 249 819 256 822 q 100 825 233 818 q 152 887 122 854 q 203 940 182 919 q 266 998 224 960 q 325 1051 308 1036 m 217 349 l 217 324 q 217 306 217 319 q 217 290 217 293 q 218 276 218 286 q 219 262 218 265 q 221 250 219 258 q 224 238 222 242 q 227 227 225 233 q 232 215 229 221 q 238 204 235 210 q 303 148 260 161 q 380 166 346 135 q 411 267 414 197 q 497 268 424 265 q 586 264 571 271 q 547 47 572 68 q 501 7 529 22 q 436 -12 474 -8 q 369 -17 399 -17 q 294 -16 340 -18 q 228 -14 247 -14 q 156 11 189 -8 q 55 166 86 60 q 29 394 24 272 q 60 588 40 535 q 197 699 94 667 q 403 704 299 731 q 589 360 611 669 q 410 346 557 351 q 217 349 264 340 m 385 564 q 336 578 363 578 q 251 554 276 578 q 221 488 226 531 q 226 460 217 463 q 351 457 235 457 q 411 456 379 457 q 435 456 432 454 q 439 468 439 457 q 439 474 439 471 q 385 564 439 536 z "},"ë":{"ha":638,"x_min":31,"x_max":618,"o":"m 93 1056 l 282 1051 q 284 974 282 1043 q 286 874 286 906 q 250 861 279 863 q 172 863 221 860 q 99 864 124 865 q 95 946 99 883 q 93 1056 92 1008 m 349 1056 l 538 1051 q 540 974 538 1043 q 542 874 542 906 q 506 861 535 863 q 428 863 476 860 q 354 864 379 865 q 351 946 354 883 q 349 1056 347 1008 m 224 349 l 224 324 q 224 306 224 319 q 224 290 224 293 q 225 276 225 286 q 226 262 225 265 q 228 250 226 258 q 231 238 229 242 q 234 227 232 233 q 239 215 236 221 q 244 204 242 210 q 310 148 267 161 q 387 166 353 135 q 418 267 421 197 q 504 268 431 265 q 593 264 578 271 q 554 47 579 68 q 508 7 536 22 q 443 -12 481 -8 q 376 -17 406 -17 q 301 -16 347 -18 q 235 -14 254 -14 q 163 11 196 -8 q 62 166 93 60 q 36 394 31 272 q 67 588 47 535 q 203 699 101 667 q 410 704 306 731 q 596 360 618 669 q 417 346 565 351 q 224 349 269 340 m 392 564 q 343 578 369 578 q 258 554 283 578 q 228 488 233 531 q 233 460 224 463 q 358 457 242 457 q 418 456 386 457 q 442 456 439 454 q 446 468 446 457 q 446 474 446 471 q 392 564 446 536 z "},"ì":{"ha":365,"x_min":11,"x_max":339,"o":"m 308 699 l 332 699 l 332 694 q 328 467 332 628 q 325 235 325 306 q 331 8 325 165 q 235 -1 329 -4 q 135 0 142 1 q 138 357 143 113 q 143 701 132 601 l 143 703 q 163 703 147 704 q 182 701 179 701 q 308 699 251 697 m 11 950 l 107 1047 q 233 928 144 1018 q 339 821 321 838 q 258 813 317 815 q 153 815 199 811 q 116 854 144 828 q 54 910 88 881 q 13 949 21 940 l 11 950 z "},"í":{"ha":367,"x_min":28,"x_max":356,"o":"m 35 699 l 58 699 q 185 701 115 697 q 203 703 188 701 q 224 703 219 704 l 224 701 q 229 357 235 589 q 232 0 224 125 q 131 -1 225 1 q 36 8 38 -4 q 42 235 42 165 q 38 467 42 306 q 35 694 35 628 l 35 699 m 260 1047 l 356 950 l 354 949 q 312 911 346 940 q 249 855 278 882 q 214 815 219 828 q 108 813 168 811 q 28 821 49 815 q 134 928 46 838 q 260 1047 222 1018 z "},"î":{"ha":474,"x_min":13,"x_max":464,"o":"m 307 699 l 331 699 l 331 694 q 327 467 331 628 q 324 235 324 306 q 329 8 324 165 q 234 -1 328 -4 q 133 0 140 1 q 136 357 142 113 q 142 701 131 601 l 142 703 q 162 703 146 704 q 181 701 178 701 q 307 699 250 697 m 238 1051 l 464 826 q 440 824 463 828 q 384 817 418 821 q 304 819 350 814 q 268 851 296 819 q 233 888 240 883 q 197 853 226 885 q 161 819 168 822 q 13 825 146 818 q 65 887 35 854 q 115 940 94 919 q 178 998 136 960 q 238 1051 221 1036 z "},"ï":{"ha":493,"x_min":22,"x_max":472,"o":"m 24 1056 l 213 1051 q 215 974 213 1043 q 217 874 217 906 q 181 861 210 863 q 103 863 151 860 q 29 864 54 865 q 26 946 29 883 q 24 1056 22 1008 m 279 1056 l 468 1051 q 470 974 468 1043 q 472 874 472 906 q 436 861 465 863 q 358 863 407 860 q 285 864 310 865 q 281 946 285 883 q 279 1056 278 1008 m 319 699 l 343 699 l 343 694 q 340 467 343 628 q 336 235 336 306 q 342 8 336 165 q 247 -1 340 -4 q 146 0 153 1 q 149 357 154 113 q 154 701 143 601 l 154 703 q 174 703 158 704 q 193 701 190 701 q 319 699 263 697 z "},"ð":{"ha":771,"x_min":32,"x_max":725,"o":"m 217 289 l 219 267 q 288 194 235 217 q 400 178 340 172 q 515 299 529 193 q 472 380 510 347 q 390 424 435 413 q 306 431 346 435 q 217 289 199 417 m 400 1082 q 550 1188 543 1183 q 611 1135 574 1156 q 674 1088 649 1114 q 615 1052 658 1078 q 543 1007 572 1026 q 629 899 599 961 q 668 786 651 854 q 691 673 685 718 q 708 539 697 628 q 719 338 725 435 q 692 163 714 240 q 607 35 669 86 q 447 -29 544 -17 q 262 -20 347 -40 q 115 60 176 0 q 42 215 53 121 q 39 247 39 235 l 38 286 q 78 522 32 439 q 249 621 124 606 q 476 590 385 636 q 469 653 472 613 q 461 717 467 694 q 371 882 440 824 q 151 738 224 783 q 93 793 136 760 q 49 829 50 826 q 217 950 50 829 q 136 986 190 956 q 51 1031 82 1017 q 90 1068 50 1032 q 175 1138 129 1104 q 233 1165 221 1171 q 312 1124 263 1154 q 400 1082 361 1094 z "},"ñ":{"ha":642,"x_min":36,"x_max":606,"o":"m 236 619 q 271 640 264 635 q 410 688 331 685 q 550 644 490 692 q 581 508 576 621 q 580 232 585 396 q 579 3 575 68 q 406 -3 542 -3 q 403 152 403 39 q 400 319 403 265 q 399 340 400 325 q 397 363 397 354 q 394 385 396 371 q 390 407 392 399 q 384 426 388 415 q 376 443 381 436 q 365 454 371 450 q 363 456 364 456 q 360 457 360 456 q 313 467 340 467 q 258 448 286 468 q 228 382 231 428 q 231 194 225 329 q 226 10 236 58 l 226 4 q 150 -4 211 -7 q 54 -4 89 -1 q 51 338 54 25 q 53 692 47 650 q 150 692 101 688 q 178 695 154 692 q 215 699 203 699 q 233 693 228 699 q 236 651 236 675 q 236 619 236 626 m 199 819 l 199 818 q 104 824 175 824 q 36 822 60 824 q 119 1001 71 946 q 210 1049 158 1040 q 307 1028 261 1057 q 342 993 322 1018 q 372 961 361 968 q 437 962 408 931 q 479 1035 465 993 q 593 1039 481 1035 l 594 1038 q 596 1036 594 1036 l 596 1035 q 569 894 606 964 q 464 814 532 825 q 378 824 418 806 q 322 882 339 842 q 274 914 304 913 q 203 883 222 914 l 199 875 q 199 819 190 849 z "},"ò":{"ha":631,"x_min":51,"x_max":608,"o":"m 128 950 l 224 1047 q 349 928 261 1018 q 456 821 438 838 q 374 813 433 815 q 269 815 315 811 q 233 854 261 828 q 171 910 204 881 q 129 949 138 940 l 128 950 m 81 633 q 158 694 99 674 q 289 714 217 714 q 342 713 307 713 q 397 713 378 714 q 551 653 497 706 q 607 403 600 621 q 608 378 608 386 q 578 75 599 131 q 564 51 571 58 q 498 4 542 19 q 423 -13 454 -11 q 324 -12 392 -15 q 242 -10 257 -10 q 122 51 171 3 q 71 134 88 82 q 53 239 54 186 q 53 350 53 292 q 51 451 53 408 q 58 551 51 508 q 63 576 58 561 q 73 609 67 592 q 81 633 79 626 m 254 469 q 242 442 246 463 q 236 347 238 408 q 233 261 235 285 q 262 202 232 222 q 329 183 292 182 q 393 199 367 185 q 425 244 417 210 q 429 419 439 369 q 389 491 422 469 q 301 500 356 513 q 254 469 272 492 z "},"ó":{"ha":633,"x_min":44,"x_max":601,"o":"m 443 1047 l 539 950 l 538 949 q 495 911 529 940 q 432 855 461 882 q 397 815 403 828 q 292 813 351 811 q 211 821 232 815 q 317 928 229 838 q 443 1047 406 1018 m 74 633 q 151 694 92 674 q 282 714 210 714 q 335 713 300 713 q 390 713 371 714 q 544 653 490 706 q 600 403 593 621 q 601 378 601 386 q 571 75 592 131 q 557 51 564 58 q 491 4 535 19 q 416 -13 447 -11 q 317 -12 385 -15 q 235 -10 250 -10 q 115 51 164 3 q 64 134 81 82 q 47 239 47 186 q 46 350 46 292 q 44 451 46 408 q 51 551 44 508 q 56 576 51 561 q 66 609 60 592 q 74 633 72 626 m 247 469 q 235 442 239 463 q 229 347 231 408 q 226 261 228 285 q 255 202 225 222 q 322 183 285 182 q 386 199 360 185 q 418 244 410 210 q 422 419 432 369 q 382 491 415 469 q 294 500 349 513 q 247 469 265 492 z "},"ô":{"ha":636,"x_min":50,"x_max":607,"o":"m 339 1051 l 565 826 q 542 824 564 828 q 485 817 519 821 q 406 819 451 814 q 369 851 397 819 q 335 888 342 883 q 299 853 328 885 q 263 819 269 822 q 114 825 247 818 q 166 887 136 854 q 217 940 196 919 q 280 998 238 960 q 339 1051 322 1036 m 79 633 q 156 694 97 674 q 288 714 215 714 q 341 713 306 713 q 396 713 376 714 q 550 653 496 706 q 606 403 599 621 q 607 378 607 386 q 576 75 597 131 q 563 51 569 58 q 497 4 540 19 q 422 -13 453 -11 q 323 -12 390 -15 q 240 -10 256 -10 q 121 51 169 3 q 69 134 86 82 q 52 239 53 186 q 51 350 51 292 q 50 451 51 408 q 57 551 50 508 q 61 576 57 561 q 72 609 65 592 q 79 633 78 626 m 253 469 q 240 442 244 463 q 235 347 236 408 q 232 261 233 285 q 260 202 231 222 q 328 183 290 182 q 392 199 365 185 q 424 244 415 210 q 428 419 438 369 q 388 491 421 469 q 300 500 354 513 q 253 469 271 492 z "},"õ":{"ha":658,"x_min":54,"x_max":624,"o":"m 217 819 l 217 818 q 122 824 193 824 q 54 822 78 824 q 138 1001 89 946 q 228 1049 176 1040 q 325 1028 279 1057 q 360 993 340 1018 q 390 961 379 968 q 455 962 426 931 q 497 1035 483 993 q 611 1039 499 1035 l 613 1038 q 614 1036 613 1036 l 614 1035 q 587 894 624 964 q 482 814 550 825 q 397 824 436 806 q 340 882 357 842 q 292 914 322 913 q 221 883 240 914 l 217 875 q 217 819 208 849 m 85 633 q 162 694 103 674 q 293 714 221 714 q 347 713 311 713 q 401 713 382 714 q 556 653 501 706 q 611 403 604 621 q 613 378 613 386 q 582 75 603 131 q 568 51 575 58 q 502 4 546 19 q 427 -13 458 -11 q 328 -12 396 -15 q 246 -10 261 -10 q 126 51 175 3 q 75 134 92 82 q 58 239 58 186 q 57 350 57 292 q 56 451 57 408 q 63 551 56 508 q 67 576 63 561 q 77 609 71 592 q 85 633 83 626 m 258 469 q 246 442 250 463 q 240 347 242 408 q 238 261 239 285 q 266 202 236 222 q 333 183 296 182 q 397 199 371 185 q 429 244 421 210 q 433 419 443 369 q 393 491 426 469 q 306 500 360 513 q 258 469 276 492 z "},"ö":{"ha":647,"x_min":56,"x_max":613,"o":"m 103 1056 l 292 1051 q 294 974 292 1043 q 296 874 296 906 q 260 861 289 863 q 182 863 231 860 q 108 864 133 865 q 105 946 108 883 q 103 1056 101 1008 m 358 1056 l 547 1051 q 549 974 547 1043 q 551 874 551 906 q 515 861 544 863 q 438 863 486 860 q 364 864 389 865 q 360 946 364 883 q 358 1056 357 1008 m 85 633 q 162 694 103 674 q 293 714 221 714 q 347 713 311 713 q 401 713 382 714 q 556 653 501 706 q 611 403 604 621 q 613 378 613 386 q 582 75 603 131 q 568 51 575 58 q 502 4 546 19 q 427 -13 458 -11 q 328 -12 396 -15 q 246 -10 261 -10 q 126 51 175 3 q 75 134 92 82 q 58 239 58 186 q 57 350 57 292 q 56 451 57 408 q 63 551 56 508 q 67 576 63 561 q 77 609 71 592 q 85 633 83 626 m 258 469 q 246 442 250 463 q 240 347 242 408 q 238 261 239 285 q 266 202 236 222 q 333 183 296 182 q 397 199 371 185 q 429 244 421 210 q 433 419 443 369 q 393 491 426 469 q 306 500 360 513 q 258 469 276 492 z "},"÷":{"ha":611,"x_min":13,"x_max":600,"o":"m 13 238 q 14 327 13 257 q 15 399 15 397 l 597 399 q 595 314 597 392 q 600 231 593 236 l 599 231 q 306 234 588 231 q 13 238 24 238 m 376 0 l 219 1 l 215 1 q 212 52 213 19 q 213 122 211 85 q 214 163 214 158 q 305 174 240 174 q 388 165 369 174 l 386 131 q 381 54 383 94 q 379 3 379 14 l 379 1 l 379 0 l 376 0 m 376 467 l 219 468 l 215 468 q 212 519 213 486 q 213 588 211 551 q 214 629 214 625 q 305 640 240 640 q 388 632 369 640 l 386 597 q 381 521 383 561 q 379 469 379 481 l 379 468 l 379 467 l 376 467 z "},"ø":{"ha":497,"x_min":28,"x_max":468,"o":"m 457 414 q 442 114 457 199 q 390 27 429 61 q 299 -12 351 -7 q 243 -15 281 -14 q 189 -18 206 -15 l 188 -18 q 175 -32 188 -19 l 174 -33 l 175 -33 q 44 -36 165 -36 q 69 51 42 -31 l 71 53 l 69 54 l 69 56 q 44 444 28 221 q 47 489 46 458 q 51 543 47 519 q 65 586 56 567 q 104 644 82 622 l 108 649 q 288 678 165 692 q 290 690 289 679 q 296 700 290 700 l 297 700 q 371 698 315 696 q 431 692 426 700 q 421 658 431 681 q 414 622 411 635 q 457 414 468 558 m 151 261 q 195 393 163 297 q 243 540 228 489 l 243 542 l 242 542 l 236 542 q 196 524 215 539 q 168 489 176 508 q 161 419 164 464 q 157 364 158 374 q 153 340 156 354 q 151 261 149 268 m 331 372 l 331 375 q 238 114 329 374 q 239 113 239 114 q 326 169 313 128 q 338 247 336 208 q 335 323 339 285 q 331 372 331 361 z "},"ù":{"ha":615,"x_min":50,"x_max":589,"o":"m 118 950 l 214 1047 q 340 928 251 1018 q 446 821 428 838 q 365 813 424 815 q 260 815 306 811 q 223 854 251 828 q 161 910 194 881 q 119 949 128 940 l 118 950 m 400 75 q 365 54 372 60 q 226 6 306 10 q 86 50 146 3 q 55 185 60 72 q 56 463 50 299 q 57 692 61 628 q 231 697 94 697 q 233 542 233 656 q 236 375 233 429 q 238 355 236 369 q 240 332 239 340 q 242 310 240 324 q 247 288 244 296 q 252 269 249 279 q 260 251 256 258 q 271 240 265 244 q 274 239 272 239 q 276 238 275 239 q 323 227 296 228 q 378 247 350 226 q 408 313 406 267 q 405 501 411 363 q 410 685 399 639 l 410 690 q 486 699 425 701 q 582 699 547 696 q 585 357 582 669 q 583 3 589 44 q 486 3 535 7 q 458 -1 482 3 q 421 -4 433 -4 q 403 1 408 -4 q 400 44 400 19 q 400 75 400 68 z "},"ú":{"ha":617,"x_min":40,"x_max":579,"o":"m 431 1047 l 526 950 l 525 949 q 483 911 517 940 q 419 855 449 882 q 385 815 390 828 q 279 813 339 811 q 199 821 219 815 q 305 928 217 838 q 431 1047 393 1018 m 390 75 q 356 54 363 60 q 216 6 296 10 q 76 50 136 3 q 45 185 50 72 q 46 463 40 299 q 47 692 51 628 q 221 697 85 697 q 224 542 224 656 q 226 375 224 429 q 228 355 226 369 q 230 332 229 340 q 233 310 231 324 q 237 288 235 296 q 242 269 239 279 q 251 251 246 258 q 261 240 256 244 q 264 239 261 239 q 267 238 267 239 q 313 227 286 228 q 368 247 340 226 q 399 313 396 267 q 395 501 401 363 q 400 685 389 639 l 400 690 q 476 699 415 701 q 572 699 538 696 q 576 357 572 669 q 574 3 579 44 q 476 3 525 7 q 448 -1 472 3 q 411 -4 424 -4 q 393 1 399 -4 q 390 44 390 19 q 390 75 390 68 z "},"û":{"ha":619,"x_min":47,"x_max":586,"o":"m 328 1051 l 554 826 q 531 824 553 828 q 474 817 508 821 q 394 819 440 814 q 358 851 386 819 q 324 888 331 883 q 288 853 317 885 q 251 819 258 822 q 103 825 236 818 q 155 887 125 854 q 206 940 185 919 q 269 998 226 960 q 328 1051 311 1036 m 397 75 q 363 54 369 60 q 223 6 303 10 q 83 50 143 3 q 52 185 57 72 q 53 463 47 299 q 54 692 58 628 q 228 697 92 697 q 231 542 231 656 q 233 375 231 429 q 235 355 233 369 q 237 332 236 340 q 240 310 238 324 q 244 288 242 296 q 249 269 246 279 q 258 251 253 258 q 268 240 263 244 q 271 239 268 239 q 274 238 272 239 q 320 227 293 228 q 375 247 347 226 q 406 313 403 267 q 402 501 408 363 q 407 685 396 639 l 407 690 q 483 699 422 701 q 579 699 544 696 q 583 357 579 669 q 581 3 586 44 q 483 3 532 7 q 455 -1 479 3 q 418 -4 431 -4 q 400 1 406 -4 q 397 44 397 19 q 397 75 397 68 z "},"ü":{"ha":633,"x_min":54,"x_max":593,"o":"m 93 1056 l 282 1051 q 284 974 282 1043 q 286 874 286 906 q 250 861 279 863 q 172 863 221 860 q 99 864 124 865 q 95 946 99 883 q 93 1056 92 1008 m 349 1056 l 538 1051 q 540 974 538 1043 q 542 874 542 906 q 506 861 535 863 q 428 863 476 860 q 354 864 379 865 q 351 946 354 883 q 349 1056 347 1008 m 404 75 q 369 54 376 60 q 230 6 310 10 q 90 50 150 3 q 59 185 64 72 q 60 463 54 299 q 61 692 65 628 q 235 697 99 697 q 238 542 238 656 q 240 375 238 429 q 242 355 240 369 q 244 332 243 340 q 247 310 244 324 q 251 288 249 296 q 256 269 253 279 q 265 251 260 258 q 275 240 269 244 q 278 239 275 239 q 281 238 281 239 q 327 227 300 228 q 382 247 354 226 q 413 313 410 267 q 409 501 415 363 q 414 685 403 639 l 414 690 q 490 699 429 701 q 586 699 551 696 q 590 357 586 669 q 588 3 593 44 q 490 3 539 7 q 462 -1 486 3 q 425 -4 438 -4 q 407 1 413 -4 q 404 44 404 19 q 404 75 404 68 z "},"ý":{"ha":671,"x_min":7,"x_max":656,"o":"m 450 1047 l 546 950 l 544 949 q 502 911 536 940 q 439 855 468 882 q 404 815 410 828 q 299 813 358 811 q 218 821 239 815 q 324 928 236 838 q 450 1047 413 1018 m 253 690 q 274 574 258 661 q 302 428 290 488 q 331 299 314 369 q 361 190 347 229 q 405 440 381 243 q 453 693 429 636 q 549 695 472 693 q 656 693 625 697 q 582 386 635 614 q 558 281 572 349 q 533 168 543 214 q 501 60 522 122 q 458 -43 481 -1 q 397 -128 436 -85 q 309 -197 357 -172 q 191 -237 261 -222 q 35 -246 121 -251 q 26 -61 7 -161 q 72 -62 40 -61 q 119 -64 103 -64 q 157 -60 135 -64 q 190 -46 179 -56 q 206 -16 200 -36 q 208 33 213 4 q 185 149 199 88 q 163 253 172 211 q 133 373 153 296 q 107 476 114 450 q 75 592 100 501 q 47 694 50 683 q 153 692 81 690 q 253 690 225 694 z "},"þ":{"ha":635,"x_min":43,"x_max":628,"o":"m 246 72 q 250 -231 246 -169 q 149 -240 249 -243 q 43 -239 50 -237 q 50 397 50 -46 q 58 1008 50 839 l 247 1004 q 244 626 247 951 q 283 672 257 657 q 330 688 308 686 q 394 690 351 690 q 560 597 493 688 q 628 369 628 507 q 608 206 628 288 q 539 61 588 125 q 424 -3 490 -3 q 328 18 378 -3 q 246 72 279 39 m 449 415 q 407 478 440 453 q 319 504 374 504 q 256 483 265 504 q 247 360 247 463 q 247 343 247 354 q 248 290 247 307 q 253 250 249 274 q 266 217 257 226 q 292 199 275 207 q 333 192 308 192 q 424 235 390 192 q 457 342 457 278 q 449 415 457 388 z "},"ÿ":{"ha":679,"x_min":14,"x_max":663,"o":"m 142 1056 l 331 1051 q 333 974 331 1043 q 335 874 335 906 q 299 861 328 863 q 221 863 269 860 q 147 864 172 865 q 144 946 147 883 q 142 1056 140 1008 m 397 1056 l 586 1051 q 588 974 586 1043 q 590 874 590 906 q 554 861 583 863 q 476 863 525 860 q 403 864 428 865 q 399 946 403 883 q 397 1056 396 1008 m 260 690 q 281 574 265 661 q 309 428 297 488 q 338 299 321 369 q 368 190 354 229 q 412 440 388 243 q 460 693 436 636 q 556 695 479 693 q 663 693 632 697 q 589 386 642 614 q 565 281 579 349 q 540 168 550 214 q 508 60 529 122 q 465 -43 488 -1 q 403 -128 443 -85 q 316 -197 364 -172 q 198 -237 268 -222 q 42 -246 128 -251 q 33 -61 14 -161 q 78 -62 47 -61 q 126 -64 110 -64 q 164 -60 142 -64 q 197 -46 186 -56 q 213 -16 207 -36 q 215 33 219 4 q 192 149 206 88 q 169 253 179 211 q 140 373 160 296 q 114 476 121 450 q 82 592 107 501 q 54 694 57 683 q 160 692 88 690 q 260 690 232 694 z "},"ĳ":{"ha":692,"x_min":42,"x_max":647,"o":"m 218 699 l 242 699 l 242 694 q 238 467 242 628 q 235 235 235 306 q 240 8 235 165 q 145 -1 239 -4 q 44 0 51 1 q 47 357 53 113 q 53 701 42 601 l 53 703 q 73 703 57 704 q 92 701 89 701 q 218 699 161 697 m 47 1001 l 236 997 q 238 920 236 989 q 240 819 240 851 q 204 807 233 808 q 126 808 175 806 q 53 810 78 811 q 49 892 53 829 q 47 1001 46 954 m 463 504 l 463 690 q 556 692 493 686 q 642 694 618 697 q 644 522 647 649 q 644 365 642 394 q 645 264 644 332 q 646 159 646 196 q 644 67 646 122 q 637 -37 642 13 q 624 -137 632 -86 q 243 -260 565 -275 q 243 -72 225 -207 q 368 -64 303 -76 q 457 -17 433 -51 q 458 236 458 49 q 463 504 458 424 m 454 1001 l 639 997 q 641 920 639 989 q 643 819 643 851 q 608 807 636 808 q 533 808 581 806 q 460 810 486 811 q 456 892 460 829 q 454 1001 453 954 z "},"Œ":{"ha":1185,"x_min":53,"x_max":1154,"o":"m 1146 190 l 1146 188 q 1133 4 1154 67 l 1132 4 q 878 3 1076 3 q 622 -3 681 4 q 501 -11 576 -4 q 390 -19 425 -18 q 275 -14 356 -19 q 75 151 129 1 q 55 318 57 232 q 60 531 53 404 q 69 700 68 658 q 109 845 71 779 q 214 946 147 911 q 285 970 247 965 q 375 971 322 975 q 454 968 428 967 q 748 966 626 965 q 1007 968 869 967 l 1144 969 q 1140 765 1147 846 q 955 756 1078 754 q 772 747 832 757 l 771 746 q 769 694 772 728 q 767 633 767 661 q 778 586 768 606 q 860 583 803 583 q 947 579 918 583 q 947 578 947 578 l 949 575 q 951 479 953 575 q 949 381 949 383 l 949 379 l 947 379 l 786 379 l 785 379 q 774 298 776 372 q 788 197 772 224 l 790 197 q 964 194 843 196 q 1146 190 1085 193 m 482 692 q 476 701 479 694 q 472 713 474 708 q 431 763 456 746 q 357 783 400 782 q 285 765 314 785 q 239 672 249 736 q 236 572 236 647 q 238 442 242 528 q 240 315 235 357 q 296 188 250 231 q 352 171 322 167 q 410 196 382 175 q 456 263 443 225 q 479 358 469 300 q 493 628 497 533 q 482 692 490 667 z "},"œ":{"ha":1013,"x_min":36,"x_max":972,"o":"m 689 -1 l 669 1 q 606 19 635 7 q 561 47 578 32 q 533 75 544 61 q 516 98 522 89 q 508 107 510 107 q 463 43 493 68 q 388 10 432 18 q 319 -1 344 1 q 253 -3 293 -3 q 240 -3 244 -3 q 125 61 174 -3 q 56 206 76 125 q 36 369 36 288 q 103 599 36 507 q 269 693 171 690 q 315 694 271 693 q 378 694 360 696 q 432 685 397 692 q 487 662 467 679 q 517 618 507 644 q 589 669 546 651 q 660 690 632 688 q 740 693 689 693 q 801 693 790 693 q 906 630 865 682 q 959 508 946 578 q 967 357 972 439 q 788 343 936 349 q 594 346 640 338 l 594 321 q 594 303 594 317 q 595 287 594 290 q 596 273 596 283 q 597 259 596 263 q 599 247 597 256 q 601 235 600 239 q 605 224 603 231 q 610 213 607 218 q 615 201 613 207 q 681 145 638 158 q 758 163 724 132 q 789 264 792 194 q 875 265 801 263 q 964 261 949 268 q 925 44 950 65 q 839 3 907 19 q 689 -1 771 -14 m 763 561 q 714 575 740 575 q 629 551 654 575 q 599 485 604 528 q 604 457 594 460 q 729 454 613 454 q 789 453 757 454 q 813 453 810 451 q 817 465 817 454 q 817 471 817 468 q 763 561 817 533 m 196 485 q 181 392 181 433 q 181 381 181 388 q 181 321 181 343 q 188 259 182 299 q 203 196 193 219 q 234 153 213 172 q 286 132 256 133 q 328 135 310 131 q 360 151 347 139 q 382 177 372 164 q 397 212 392 190 q 406 250 403 233 q 410 294 410 267 q 412 335 411 321 q 412 378 413 350 q 411 415 411 406 q 391 538 411 510 q 313 567 371 567 q 196 485 214 567 z "},"Š":{"ha":764,"x_min":76,"x_max":728,"o":"m 638 1264 l 411 1039 q 352 1092 394 1054 q 289 1151 310 1131 q 238 1203 268 1171 q 186 1265 208 1236 q 335 1271 319 1272 q 371 1237 342 1268 q 407 1203 400 1206 q 442 1239 414 1207 q 478 1271 469 1271 q 558 1273 524 1276 q 614 1266 592 1269 q 638 1264 636 1263 m 707 658 l 708 658 q 694 827 728 757 q 589 933 660 897 q 435 970 519 965 q 281 949 351 975 q 168 863 215 921 q 103 738 121 806 q 107 594 86 669 q 189 460 128 518 q 283 413 235 422 q 310 407 288 411 q 340 401 332 403 q 367 395 347 400 q 395 387 386 390 q 419 376 404 383 q 443 362 435 369 q 461 344 451 354 q 476 322 471 335 q 482 296 481 310 q 433 206 494 226 q 332 219 379 186 q 294 288 297 244 q 190 290 285 288 q 82 286 94 293 l 82 282 l 82 278 q 126 128 76 194 q 251 28 175 61 q 410 -7 326 -4 q 573 31 500 -10 q 678 153 646 71 q 708 306 713 222 q 656 451 703 390 q 551 550 614 511 q 415 597 489 589 q 325 657 342 608 q 325 694 322 685 q 380 754 332 743 q 469 736 428 765 q 499 660 510 707 q 707 658 581 638 z "},"š":{"ha":694,"x_min":67,"x_max":672,"o":"m 357 765 l 131 990 q 154 992 132 989 q 210 999 176 996 q 290 997 244 1003 q 326 965 299 997 q 361 929 354 933 q 397 963 368 932 q 433 997 426 994 q 582 992 449 999 q 530 930 560 963 q 479 877 500 897 q 416 819 458 857 q 357 765 374 781 m 657 481 q 458 481 547 463 q 433 542 467 515 q 363 567 400 569 q 306 531 322 560 q 306 470 290 501 q 364 424 322 439 q 610 333 563 394 q 628 103 672 231 q 379 -22 567 -25 q 153 36 239 -28 q 67 211 67 100 l 67 215 l 67 218 q 131 222 94 221 q 212 221 167 222 q 272 219 257 219 q 318 156 274 179 q 405 147 363 133 q 446 211 447 161 q 430 262 450 243 q 381 286 410 281 q 306 302 353 292 q 228 326 258 313 q 115 409 153 351 q 81 526 78 467 q 122 638 83 585 q 225 707 160 690 q 371 722 278 722 q 536 704 464 721 q 657 481 657 653 z "},"Ÿ":{"ha":639,"x_min":24,"x_max":631,"o":"m 631 957 l 631 956 q 426 468 576 783 q 224 -1 276 153 q 128 -1 199 1 q 26 -3 58 -4 l 24 -3 q 204 475 47 72 l 204 478 q 117 717 185 558 q 31 956 50 876 q 94 960 47 956 q 179 963 142 964 q 242 953 217 963 q 324 713 279 804 q 433 950 364 785 q 436 951 435 950 q 631 957 569 969 m 272 1053 l 138 1054 l 133 1054 q 130 1099 131 1071 q 131 1158 129 1126 q 132 1194 132 1190 q 211 1203 158 1203 q 283 1196 264 1204 l 281 1165 q 277 1101 279 1135 q 275 1056 275 1067 l 275 1054 l 275 1053 l 272 1053 m 514 1053 l 379 1054 l 375 1054 q 372 1099 372 1071 q 372 1158 371 1126 q 374 1194 374 1190 q 453 1203 400 1203 q 525 1196 506 1204 l 522 1165 q 519 1101 521 1135 q 517 1056 517 1067 l 517 1054 l 517 1053 l 514 1053 z "},"Ž":{"ha":696,"x_min":39,"x_max":654,"o":"m 588 1264 l 361 1039 q 302 1092 344 1054 q 239 1151 260 1131 q 188 1203 218 1171 q 136 1265 158 1236 q 285 1271 269 1272 q 321 1237 292 1268 q 357 1203 350 1206 q 392 1239 364 1207 q 428 1271 419 1271 q 508 1273 474 1276 q 564 1266 542 1269 q 588 1264 586 1263 m 647 742 l 647 743 q 651 853 647 760 q 647 964 654 946 q 492 966 593 964 q 331 969 392 968 q 188 967 269 969 q 39 958 106 965 q 42 953 42 956 l 42 951 q 50 849 50 924 q 61 761 50 774 q 396 743 261 761 q 312 627 378 718 q 212 488 246 536 q 131 361 178 439 q 56 221 83 283 q 57 144 60 178 q 56 69 54 110 q 68 -1 58 28 q 636 -3 338 14 l 636 0 q 639 222 649 151 l 639 226 q 518 223 586 224 q 403 219 450 222 q 289 208 356 217 l 290 210 q 457 453 328 268 q 647 742 586 638 z "},"ž":{"ha":657,"x_min":42,"x_max":615,"o":"m 357 765 l 131 990 q 154 992 132 989 q 210 999 176 996 q 290 997 244 1003 q 326 965 299 997 q 361 929 354 933 q 397 963 368 932 q 433 997 426 994 q 582 992 449 999 q 530 930 560 963 q 479 877 500 897 q 416 819 458 857 q 357 765 374 781 m 615 690 q 614 627 615 665 q 613 560 613 589 q 615 504 613 532 q 465 355 572 458 q 307 194 357 251 q 455 196 342 197 q 608 203 568 194 q 610 108 608 174 q 611 10 611 43 q 46 1 269 1 q 45 107 49 60 q 43 179 42 154 q 204 347 90 240 q 361 504 318 453 q 51 482 146 494 q 50 594 47 533 q 51 690 53 654 q 263 691 132 690 q 438 692 394 692 q 532 691 453 688 q 615 690 611 694 z "},"ƒ":{"ha":649,"x_min":15,"x_max":631,"o":"m 193 443 l 189 443 q 135 442 169 444 q 71 442 100 440 q 18 453 42 443 q 17 457 17 454 q 16 476 15 471 q 18 527 17 482 q 19 628 19 572 q 37 628 32 629 q 89 628 42 628 q 196 631 136 629 q 189 914 201 749 q 549 926 204 926 q 619 926 594 926 q 621 904 619 924 q 625 832 622 885 q 631 711 628 779 q 510 702 622 708 q 374 696 397 696 q 367 669 369 689 q 368 636 364 649 q 399 635 375 636 q 451 633 422 633 q 551 635 479 633 q 547 606 546 619 q 551 543 549 592 q 553 450 554 494 l 551 450 q 369 449 532 457 q 370 297 371 338 q 365 144 369 257 q 360 -7 361 32 l 360 -8 q 197 0 324 0 q 194 169 193 24 q 201 443 196 314 l 200 443 l 193 443 z "},"ˆ":{"ha":482,"x_min":15,"x_max":467,"o":"m 240 960 l 467 735 q 443 733 465 736 q 387 726 421 729 q 307 728 353 722 q 271 760 299 728 q 236 796 243 792 q 200 762 229 793 q 164 728 171 731 q 15 733 149 726 q 67 795 38 763 q 118 848 97 828 q 181 906 139 868 q 240 960 224 944 z "},"˜":{"ha":624,"x_min":24,"x_max":597,"o":"m 186 692 q 92 696 168 696 q 24 694 47 696 q 59 789 33 732 q 107 874 85 846 q 198 920 144 911 q 296 900 251 929 q 330 867 310 890 q 364 835 350 843 q 426 834 396 803 q 469 906 456 865 q 583 910 472 906 q 586 907 586 910 q 581 820 597 868 q 533 735 564 772 q 481 693 513 706 q 382 691 432 675 q 311 753 332 707 q 254 785 283 786 q 210 771 236 785 q 186 744 193 760 q 186 692 178 726 z "},"–":{"ha":617,"x_min":43,"x_max":572,"o":"m 43 231 q 45 374 43 257 q 47 494 47 492 l 568 494 q 572 221 568 383 l 571 221 q 307 226 556 221 q 43 231 58 231 z "},"—":{"ha":947,"x_min":44,"x_max":903,"o":"m 44 222 q 47 370 44 249 q 49 494 49 492 l 764 494 l 899 494 q 897 411 899 479 q 897 294 896 343 q 903 213 897 246 l 901 213 q 473 217 886 213 q 44 222 60 222 z "},"‘":{"ha":286,"x_min":22,"x_max":268,"o":"m 174 644 l 172 644 q 127 640 169 644 q 59 635 85 636 q 22 642 33 635 q 111 983 97 914 l 142 983 q 213 984 172 983 q 268 985 253 985 l 268 983 q 236 858 254 929 q 207 747 218 788 q 175 647 196 706 q 174 644 175 646 z "},"’":{"ha":286,"x_min":22,"x_max":268,"o":"m 174 644 l 172 644 q 127 640 169 644 q 59 635 85 636 q 22 642 33 635 q 111 983 97 914 l 142 983 q 213 984 172 983 q 268 985 253 985 l 268 983 q 236 858 254 929 q 207 747 218 788 q 175 647 196 706 q 174 644 175 646 z "},"‚":{"ha":286,"x_min":22,"x_max":268,"o":"m 174 -128 l 172 -128 q 127 -132 169 -128 q 59 -137 85 -136 q 22 -131 33 -137 q 111 211 97 142 l 142 211 q 213 212 172 211 q 268 213 253 213 l 268 211 q 236 86 254 157 q 207 -26 218 15 q 175 -125 196 -67 q 174 -128 175 -126 z "},"“":{"ha":528,"x_min":29,"x_max":497,"o":"m 124 975 l 125 975 q 170 979 128 975 q 238 984 213 983 q 275 978 263 985 q 186 636 247 858 l 156 636 q 85 635 125 636 q 29 635 44 635 l 29 636 q 61 761 43 690 q 90 873 79 832 q 122 972 101 914 q 124 975 122 974 m 346 975 l 347 975 q 392 979 350 975 q 460 984 435 983 q 497 978 485 985 q 408 636 469 858 l 378 636 q 307 635 347 636 q 251 635 267 635 l 251 636 q 283 761 265 690 q 313 873 301 832 q 344 972 324 914 q 346 975 344 974 z "},"”":{"ha":528,"x_min":31,"x_max":499,"o":"m 404 644 l 403 644 q 358 640 400 644 q 290 635 315 636 q 253 642 264 635 q 342 983 328 914 l 372 983 q 443 984 403 983 q 499 985 483 985 l 499 983 q 467 858 485 929 q 438 747 449 788 q 406 647 426 706 q 404 644 406 646 m 182 644 l 181 644 q 135 640 178 644 q 67 635 93 636 q 31 642 42 635 q 119 983 106 914 l 150 983 q 221 984 181 983 q 276 985 261 985 l 276 983 q 244 858 263 929 q 215 747 226 788 q 183 647 204 706 q 182 644 183 646 z "},"„":{"ha":528,"x_min":29,"x_max":497,"o":"m 124 203 l 125 203 q 170 207 128 203 q 238 212 213 211 q 275 206 263 213 q 186 -136 247 86 l 156 -136 q 85 -137 125 -136 q 29 -137 44 -137 l 29 -136 q 61 -11 43 -82 q 90 101 79 60 q 122 200 101 142 q 124 203 122 201 m 346 203 l 347 203 q 392 207 350 203 q 460 212 435 211 q 497 206 485 213 q 408 -136 469 86 l 378 -136 q 307 -137 347 -136 q 251 -137 267 -137 l 251 -136 q 283 -11 265 -82 q 313 101 301 60 q 344 200 324 142 q 346 203 344 201 z "},"†":{"ha":346,"x_min":11,"x_max":336,"o":"m 225 338 l 225 336 q 185 335 222 336 q 133 332 149 335 q 128 506 126 379 q 128 694 129 633 q 72 693 122 696 q 14 701 21 690 q 12 754 11 710 q 13 807 13 799 q 72 809 28 810 q 128 814 117 808 q 133 961 128 901 q 224 965 181 975 q 222 892 221 939 q 222 814 224 844 l 222 811 q 335 811 313 814 q 336 704 332 739 l 336 703 q 283 701 324 703 q 221 700 242 699 l 219 700 q 222 518 221 644 q 225 338 222 392 z "},"‡":{"ha":358,"x_min":17,"x_max":343,"o":"m 19 592 q 88 595 43 594 q 133 596 132 596 q 133 697 136 671 l 133 699 q 81 698 124 700 q 24 703 38 696 q 19 756 17 710 q 19 810 21 801 q 79 813 40 813 q 133 815 118 814 l 138 961 l 138 963 q 228 967 185 976 q 229 892 228 942 q 229 815 231 843 q 340 815 319 818 q 342 707 340 736 q 291 704 332 708 q 229 703 250 700 l 228 703 q 231 597 222 658 q 340 599 296 606 q 340 549 340 590 q 343 492 340 508 l 343 490 q 231 485 238 485 l 228 485 q 229 421 229 468 q 231 340 229 374 q 136 336 207 336 l 135 336 q 133 374 135 342 q 132 430 132 407 q 133 479 132 453 q 79 481 121 482 q 22 486 38 481 q 19 538 18 499 q 19 592 21 576 z "},"•":{"ha":339,"x_min":38,"x_max":303,"o":"m 54 279 q 44 304 46 293 q 40 388 39 346 q 46 460 40 431 q 50 471 50 469 q 67 493 57 488 q 86 504 83 503 q 107 510 100 508 q 113 510 108 510 q 119 511 117 511 l 185 511 q 233 507 222 511 q 299 443 293 489 q 294 321 303 408 q 251 260 285 274 q 201 250 236 253 q 177 249 193 250 q 148 248 161 249 q 122 246 135 247 l 121 246 q 54 279 83 240 z "},"…":{"ha":725,"x_min":46,"x_max":682,"o":"m 211 0 l 54 1 l 50 1 q 47 52 47 19 q 47 122 46 85 q 49 163 49 158 q 140 174 75 174 q 222 165 204 174 l 219 131 q 216 54 218 94 q 214 3 214 14 l 214 1 l 214 0 l 211 0 m 440 0 l 283 1 l 279 1 q 276 53 276 21 q 276 121 275 85 q 278 163 278 157 q 369 174 304 174 q 451 165 433 174 l 450 131 q 445 54 447 94 q 443 3 443 14 l 443 1 l 443 0 l 440 0 m 671 0 l 514 1 l 510 1 q 506 52 507 19 q 507 122 506 85 q 508 163 508 158 q 599 174 535 174 q 682 165 664 174 l 681 131 q 676 54 678 94 q 674 3 674 14 l 674 1 l 674 0 l 671 0 z "},"‰":{"ha":1189,"x_min":32,"x_max":1168,"o":"m 418 210 l 339 10 q 335 3 338 6 q 310 1 325 1 q 254 1 296 1 q 161 -1 213 0 l 160 -1 q 161 26 153 -1 q 182 88 169 54 q 196 125 194 121 q 240 247 219 200 q 371 608 250 282 q 401 699 383 640 q 424 769 419 758 q 437 803 426 774 q 463 885 447 833 q 492 985 479 938 q 586 983 513 981 q 675 974 660 986 q 670 961 672 968 q 667 949 668 954 q 606 747 663 933 q 581 678 601 733 q 551 594 561 624 q 509 468 547 583 q 449 293 471 353 q 418 210 429 238 m 33 678 l 32 713 l 35 747 q 38 777 36 754 q 42 811 40 800 q 49 840 44 822 q 61 872 54 858 q 79 896 68 885 q 182 949 121 947 q 287 909 247 951 q 339 804 326 867 q 344 724 346 754 q 333 610 347 665 q 279 514 319 556 q 179 475 239 472 q 113 493 142 478 q 44 594 60 528 q 40 633 43 606 q 33 676 36 661 l 33 678 m 142 767 l 149 665 q 150 639 150 656 q 151 613 150 622 q 165 588 151 596 q 196 586 179 581 q 206 590 201 588 q 213 595 210 593 q 217 602 215 597 q 221 609 219 607 q 224 617 222 611 q 226 624 225 622 q 228 633 226 626 q 229 642 229 640 q 230 649 229 644 q 231 657 231 654 q 218 822 238 751 q 215 826 217 825 q 214 829 214 826 q 172 840 196 853 q 150 822 160 836 q 142 768 139 806 l 142 767 m 510 207 l 508 242 l 511 276 q 515 306 513 283 q 519 340 517 329 q 526 369 521 351 q 538 401 531 388 q 556 425 544 414 q 658 478 597 476 q 763 438 724 481 q 815 333 803 396 q 821 253 822 283 q 810 140 824 194 q 756 43 796 85 q 656 4 715 1 q 589 22 618 7 q 521 124 536 57 q 516 163 519 135 q 510 206 513 190 l 510 207 m 618 296 l 625 194 q 626 169 625 186 q 628 142 628 151 q 642 117 628 125 q 672 115 656 110 q 682 119 678 117 q 689 124 686 122 q 694 131 692 126 q 697 138 696 136 q 700 146 699 140 q 702 153 701 151 q 704 163 703 156 q 706 171 706 169 q 706 178 706 174 q 707 186 707 183 q 694 351 714 281 q 693 354 694 353 q 690 358 692 356 q 649 369 672 382 q 626 351 636 365 q 618 297 615 335 l 618 296 m 854 207 l 853 242 l 856 276 q 859 306 857 283 q 863 340 861 329 q 870 369 865 351 q 882 401 875 388 q 900 425 889 414 q 1003 478 942 476 q 1108 438 1068 481 q 1160 333 1147 396 q 1165 253 1167 283 q 1154 140 1168 194 q 1100 43 1140 85 q 1000 4 1060 1 q 933 22 963 7 q 865 124 881 57 q 860 163 864 135 q 854 206 857 190 l 854 207 m 963 296 l 969 194 q 971 167 969 185 q 972 142 972 150 q 986 117 972 125 q 1017 115 1000 110 q 1026 119 1022 117 q 1033 124 1031 122 q 1038 131 1036 126 q 1042 138 1040 136 q 1044 146 1043 140 q 1047 153 1046 151 q 1049 163 1047 156 q 1050 171 1050 169 q 1051 178 1050 174 q 1051 186 1051 183 q 1039 351 1058 281 q 1038 354 1039 353 q 1035 358 1036 356 q 993 369 1017 382 q 971 351 981 365 q 963 297 960 335 l 963 296 z "},"‹":{"ha":554,"x_min":38,"x_max":496,"o":"m 496 118 l 481 104 l 458 82 q 388 15 421 44 l 386 17 q 230 163 360 43 q 38 364 100 282 q 112 449 68 403 q 214 555 156 496 q 299 640 272 614 q 378 722 354 699 q 432 674 396 713 q 483 626 468 636 q 366 498 456 592 q 239 360 276 404 q 362 242 276 326 q 496 118 447 157 z "},"›":{"ha":554,"x_min":53,"x_max":511,"o":"m 68 104 l 53 118 q 187 242 101 157 q 310 360 272 326 q 183 498 272 404 q 65 626 93 592 q 117 674 81 636 q 171 722 153 713 q 250 640 194 699 q 335 555 276 614 q 437 449 393 496 q 511 364 481 403 q 319 163 449 282 q 163 17 189 43 l 161 15 q 90 82 128 44 l 68 104 z "},"€":{"ha":689,"x_min":42,"x_max":650,"o":"m 342 1 l 317 4 q 186 53 246 18 q 135 97 154 72 q 63 253 85 156 q 44 448 42 350 q 46 654 46 546 q 104 860 53 779 q 181 931 133 903 q 281 968 228 958 q 394 982 333 978 q 514 984 456 986 q 631 985 572 982 l 632 985 l 632 983 q 635 779 644 871 q 633 775 635 776 q 592 778 625 775 q 546 781 558 781 q 503 782 533 782 q 457 780 472 782 q 417 772 442 778 q 377 758 392 767 q 347 736 363 750 q 319 704 331 722 l 325 704 q 443 697 421 704 l 443 696 q 443 558 451 632 l 443 557 q 345 547 415 547 q 267 547 275 547 l 265 547 q 269 501 265 518 q 443 499 400 501 q 444 361 457 443 q 357 355 413 356 q 283 353 301 354 q 319 284 292 310 q 388 249 346 258 q 469 236 429 239 q 562 232 510 233 q 643 225 614 231 l 643 224 q 646 118 642 203 q 640 10 650 33 q 342 1 539 -7 z "},"™":{"ha":751,"x_min":26,"x_max":706,"o":"m 339 892 q 336 779 342 826 q 247 779 311 785 l 246 779 l 244 778 q 249 396 243 775 l 249 394 q 188 392 231 392 q 129 389 146 392 l 131 397 q 131 422 131 407 q 131 459 131 438 q 131 513 132 481 q 131 582 131 544 q 129 669 131 619 q 125 774 128 719 l 124 775 q 74 783 110 782 q 38 783 39 783 q 35 897 26 803 l 33 899 q 339 892 268 899 m 703 621 l 701 390 l 606 390 q 603 504 604 411 q 596 646 601 597 q 574 618 588 636 q 557 594 561 600 q 535 620 550 597 q 506 640 521 643 q 507 393 503 460 q 406 390 492 390 q 404 393 406 392 q 403 886 397 410 q 450 890 404 890 q 501 889 496 889 l 503 889 q 525 854 513 878 q 543 822 538 831 q 547 821 544 821 q 573 856 557 832 q 597 890 589 881 q 648 892 610 890 q 704 893 686 894 q 704 757 703 849 q 703 621 706 665 z "},"⅛":{"ha":808,"x_min":18,"x_max":779,"o":"m 297 11 l 296 10 q 294 7 294 8 l 292 1 q 232 2 285 0 q 171 1 179 4 q 326 441 200 89 q 504 985 453 793 q 569 985 513 982 q 632 979 625 988 l 632 978 q 551 737 604 894 q 465 481 499 579 q 385 250 432 382 q 297 11 339 118 m 233 433 q 190 421 233 421 q 156 423 179 421 q 124 425 133 425 l 124 426 l 124 493 q 128 625 124 538 q 132 757 132 713 q 131 771 132 767 q 119 751 128 771 q 101 732 110 732 q 56 742 93 732 q 18 757 18 753 q 57 840 21 778 q 101 911 93 903 q 132 912 111 911 q 164 913 153 913 q 236 910 189 913 q 239 794 239 883 q 235 638 239 742 q 232 482 232 535 q 233 433 232 450 m 779 367 l 779 347 q 733 246 779 289 q 778 140 778 206 q 745 41 778 79 q 649 3 713 3 q 549 42 583 3 q 515 144 515 81 q 551 250 515 213 q 519 349 519 290 q 547 447 519 404 q 621 493 575 490 q 728 476 690 496 q 762 438 744 468 q 779 367 779 408 m 608 383 l 607 376 q 606 360 606 372 q 650 306 606 307 q 681 320 669 306 q 692 357 692 335 q 680 394 692 379 q 646 410 668 410 q 608 383 618 410 m 604 174 q 603 154 603 169 q 615 113 603 131 q 646 94 626 94 q 676 110 665 94 q 686 146 686 125 q 674 184 686 168 q 639 200 661 200 q 604 174 613 200 z "},"⅜":{"ha":864,"x_min":22,"x_max":835,"o":"m 353 11 l 351 10 q 350 7 350 8 l 347 1 q 288 2 340 0 q 226 1 235 4 q 382 441 256 89 q 560 985 508 793 q 624 985 568 982 q 688 979 681 988 l 688 978 q 607 737 660 894 q 521 481 554 579 q 441 250 488 382 q 353 11 394 118 m 835 367 l 835 347 q 789 246 835 289 q 833 140 833 206 q 801 41 833 79 q 704 3 768 3 q 605 42 639 3 q 571 144 571 81 q 607 250 571 213 q 575 349 575 290 q 603 447 575 404 q 676 493 631 490 q 783 476 746 496 q 817 438 800 468 q 835 367 835 408 m 664 383 l 663 376 q 661 360 661 372 q 706 306 661 307 q 736 320 725 306 q 747 357 747 335 q 735 394 747 379 q 701 410 724 410 q 664 383 674 410 m 660 174 q 658 154 658 169 q 670 113 658 131 q 701 94 682 94 q 731 110 721 94 q 742 146 742 125 q 729 184 742 168 q 694 200 717 200 q 660 174 668 200 m 51 450 q 29 500 31 475 q 25 534 26 511 q 22 571 24 557 q 24 572 22 572 q 67 576 38 572 q 114 578 97 579 l 115 578 q 156 537 125 549 q 208 551 186 525 q 215 582 217 564 q 197 611 213 600 q 121 621 172 629 q 115 649 115 632 q 117 688 115 667 q 118 717 118 708 q 156 720 126 719 q 200 729 185 721 q 214 764 215 738 q 192 799 214 793 q 147 792 171 806 q 114 760 122 779 q 65 759 106 760 q 22 758 24 758 l 22 760 q 25 824 22 815 q 101 899 40 876 q 223 907 161 921 q 308 853 285 893 q 318 803 321 833 q 317 572 321 649 q 306 492 314 510 q 236 428 288 444 q 122 422 189 415 q 85 432 110 424 q 68 439 75 435 q 57 447 61 443 q 51 450 53 450 z "},"⅝":{"ha":860,"x_min":24,"x_max":831,"o":"m 349 11 q 347 10 347 11 q 346 7 347 8 l 343 1 q 283 2 336 0 q 222 1 231 4 q 378 441 251 89 q 556 985 504 793 q 620 985 564 982 q 683 979 676 988 l 683 978 q 603 737 656 894 q 517 481 550 579 q 437 250 483 382 q 349 11 390 118 m 831 367 l 831 347 q 785 246 831 289 q 829 140 829 206 q 797 41 829 79 q 700 3 764 3 q 601 42 635 3 q 567 144 567 81 q 603 250 567 213 q 571 349 571 290 q 599 447 571 404 q 672 493 626 490 q 779 476 742 496 q 813 438 796 468 q 831 367 831 408 m 660 383 l 658 376 q 657 360 657 372 q 701 306 657 307 q 732 320 721 306 q 743 357 743 335 q 731 394 743 379 q 697 410 719 410 q 660 383 669 410 m 656 174 q 654 154 654 169 q 666 113 654 131 q 697 94 678 94 q 727 110 717 94 q 738 146 738 125 q 725 184 738 168 q 690 200 713 200 q 656 174 664 200 m 28 575 l 126 579 l 126 575 q 169 536 132 529 q 212 571 200 542 q 213 630 224 600 q 175 667 201 660 q 97 670 161 674 q 26 667 33 667 q 25 668 25 667 q 24 907 25 819 l 25 907 l 71 908 q 168 910 117 910 q 266 911 219 911 q 318 910 313 911 l 317 883 q 317 833 317 858 l 315 808 q 128 804 297 804 l 126 804 l 126 801 q 127 800 126 800 q 128 799 128 800 q 128 791 128 796 q 130 783 129 786 q 132 776 131 779 l 133 776 l 133 775 l 135 775 q 206 776 169 781 q 289 726 258 768 q 324 630 319 683 q 322 519 328 576 q 281 457 314 483 q 204 424 247 431 q 119 425 161 418 q 51 461 78 432 q 25 535 24 490 q 28 574 25 543 l 28 575 z "},"⅞":{"ha":846,"x_min":15,"x_max":817,"o":"m 335 11 q 333 10 333 11 q 332 7 333 8 l 329 1 q 269 2 322 0 q 208 1 217 4 q 364 441 238 89 q 542 985 490 793 q 606 985 550 982 q 669 979 663 988 l 669 978 q 589 737 642 894 q 503 481 536 579 q 423 250 469 382 q 335 11 376 118 m 817 367 l 817 347 q 771 246 817 289 q 815 140 815 206 q 783 41 815 79 q 686 3 750 3 q 587 42 621 3 q 553 144 553 81 q 589 250 553 213 q 557 349 557 290 q 585 447 557 404 q 658 493 613 490 q 765 476 728 496 q 799 438 782 468 q 817 367 817 408 m 646 383 l 644 376 q 643 360 643 372 q 688 306 643 307 q 718 320 707 306 q 729 357 729 335 q 717 394 729 379 q 683 410 706 410 q 646 383 656 410 m 642 174 q 640 154 640 169 q 652 113 640 131 q 683 94 664 94 q 713 110 703 94 q 724 146 724 125 q 711 184 724 168 q 676 200 699 200 q 642 174 650 200 m 21 785 l 18 785 q 22 874 22 813 q 304 872 215 882 l 304 782 q 205 588 275 713 q 114 421 135 463 q 84 419 106 421 q 44 418 63 418 q 15 421 26 418 q 72 538 36 464 q 135 669 107 611 q 185 779 163 728 q 110 783 175 779 q 21 785 46 786 z "},"●":{"ha":767,"x_min":31,"x_max":710,"o":"m 686 181 q 624 85 667 126 q 583 53 606 67 q 541 33 560 40 q 490 22 522 26 q 443 15 458 17 q 390 11 428 14 q 342 8 351 8 q 192 28 254 8 q 50 194 64 86 q 43 471 31 307 q 94 590 50 538 q 263 679 151 663 q 489 675 426 688 q 604 631 551 664 q 613 625 607 628 q 621 619 618 622 q 683 547 661 589 q 707 444 704 506 q 707 347 710 383 q 694 232 704 310 q 691 208 693 225 q 686 181 689 190 z "},"ﬀ":{"ha":1163,"x_min":31,"x_max":1140,"o":"m 338 692 l 689 693 q 692 773 686 732 q 713 856 697 814 q 762 932 729 899 q 840 979 794 965 q 1115 1007 946 1015 q 1115 808 1140 933 q 933 790 1044 815 q 891 753 901 785 q 890 681 881 721 l 1106 681 q 1107 631 1107 663 q 1106 562 1107 599 q 1106 515 1106 525 q 968 519 1049 518 q 885 519 888 519 l 885 3 q 785 1 851 7 q 696 -1 719 -4 q 683 514 696 210 q 332 519 511 519 l 332 3 q 232 1 299 7 q 142 -1 165 -4 q 135 135 136 32 q 137 373 135 239 q 139 518 139 507 q 35 517 75 518 l 31 696 q 136 694 104 696 q 137 774 132 732 q 158 857 142 815 q 207 932 174 899 q 288 979 240 965 q 563 1007 389 1015 q 563 808 581 953 q 379 790 494 814 q 338 692 317 781 z "},"ﬁ":{"ha":775,"x_min":25,"x_max":740,"o":"m 543 514 q 406 517 486 517 q 324 518 326 518 l 324 7 q 225 5 290 11 q 136 1 160 -1 q 130 135 131 35 q 131 376 129 236 q 132 517 132 515 q 29 515 68 517 l 25 682 q 129 681 97 682 q 131 762 126 721 q 151 846 136 803 q 199 923 167 889 q 279 974 232 957 q 553 1001 385 1010 q 553 804 571 943 q 371 788 522 807 q 330 750 340 783 q 329 678 319 717 l 543 678 q 543 694 543 682 q 543 717 543 707 q 543 735 543 728 l 543 736 q 564 736 547 738 q 583 735 581 735 q 715 732 660 731 l 740 732 l 740 728 q 737 490 740 649 q 733 247 733 331 q 739 10 732 164 q 638 0 725 -4 q 533 0 550 4 q 543 514 543 131 z "},"ﬂ":{"ha":796,"x_min":25,"x_max":753,"o":"m 550 522 q 412 526 493 525 q 328 526 331 526 l 328 7 q 228 6 294 11 q 138 3 163 0 q 131 140 132 36 q 133 379 131 244 q 135 525 135 514 q 29 524 69 525 l 25 693 q 132 692 100 693 q 136 802 126 746 q 184 913 146 858 q 283 989 222 968 q 554 1017 388 1025 q 574 1016 558 1017 q 593 1015 589 1015 q 728 1013 671 1011 l 753 1013 l 753 1007 q 749 696 753 933 q 744 320 744 458 q 750 10 743 182 q 648 1 746 -3 q 542 1 550 4 q 550 522 550 115 m 333 689 l 550 689 l 550 817 q 376 815 414 821 q 335 771 346 811 q 333 689 324 731 z "},"ﬃ":{"ha":1340,"x_min":33,"x_max":1301,"o":"m 338 690 l 688 692 q 717 864 681 779 q 839 976 753 949 q 1114 1004 943 1011 q 1114 807 1132 946 q 931 789 1046 813 q 890 753 900 785 q 889 681 881 721 l 1103 681 l 1103 738 l 1103 739 q 1124 739 1107 740 q 1144 738 1142 738 q 1276 735 1215 733 l 1301 735 l 1301 729 q 1298 491 1301 660 q 1294 249 1294 322 q 1300 10 1294 175 q 1199 0 1286 -4 q 1094 0 1111 4 q 1103 515 1103 126 q 966 519 1046 518 q 883 519 886 519 l 883 7 q 784 5 849 11 q 694 1 719 -1 q 682 514 694 214 q 332 519 508 519 l 332 7 q 233 5 299 11 q 143 1 168 -1 q 140 518 140 38 q 38 517 76 518 l 33 694 q 138 693 106 694 q 140 773 135 733 q 160 853 144 813 q 208 927 175 894 q 288 976 240 960 q 563 1004 393 1013 q 563 807 581 946 q 379 789 494 813 q 338 690 319 779 z "},"ﬄ":{"ha":1425,"x_min":33,"x_max":1382,"o":"m 340 692 l 692 693 q 694 773 689 732 q 716 856 700 814 q 765 932 732 899 q 843 979 797 965 q 1118 1007 949 1015 q 1118 808 1143 933 q 936 790 1047 815 q 894 753 904 785 q 893 681 883 721 l 1108 681 q 1110 631 1110 663 q 1109 562 1110 599 q 1108 515 1108 525 q 971 519 1051 518 q 888 519 890 519 l 888 3 q 788 1 854 7 q 699 -1 722 -4 q 686 514 699 210 q 335 519 514 519 l 335 3 q 235 1 301 7 q 144 -1 168 -4 q 138 135 139 32 q 140 373 138 239 q 142 518 142 507 q 38 517 78 518 l 33 696 q 139 694 107 696 q 140 774 135 732 q 160 857 144 815 q 210 932 176 899 q 290 979 243 965 q 565 1007 392 1015 q 565 808 583 953 q 382 790 497 814 q 340 692 319 781 m 1175 1007 l 1375 1003 q 1373 717 1375 971 q 1373 288 1371 464 q 1382 6 1375 111 q 1281 -3 1378 -7 q 1175 -3 1185 0 q 1172 502 1188 168 q 1175 1007 1157 836 z "}}}
